<?xml version="1.0" standalone="no"?>
<!DOCTYPE svg PUBLIC "-//W3C//DTD SVG 1.1//EN" "http://www.w3.org/Graphics/SVG/1.1/DTD/svg11.dtd" >
<svg xmlns="http://www.w3.org/2000/svg" xmlns:xlink="http://www.w3.org/1999/xlink" version="1.1">
<metadata>
Created by FontForge 20201107 at Wed Oct 21 09:06:50 2020
 By Unknown
Copyright (C) 2020 SANDBOX NETWORK Inc. All Rights Reserved
</metadata>
<defs>
<font id="SBAggroB" horiz-adv-x="920" >
  <font-face 
    font-family="SB Aggro Bold"
    font-weight="400"
    font-stretch="normal"
    units-per-em="1000"
    panose-1="2 2 6 3 2 1 1 2 1 1"
    ascent="800"
    descent="-200"
    x-height="478"
    cap-height="681"
    bbox="-32 -395.276 1111 801"
    underline-thickness="25"
    underline-position="-157"
    unicode-range="U+0020-FFE6"
  />
<missing-glyph horiz-adv-x="900" 
d="M50 -150v900h800v-900h-800zM115 -114h670l-335 385zM424 301l-334 384v-768zM783 714h-667l333 -384zM476 300l334 -384v770z" />
    <glyph glyph-name=".notdef" horiz-adv-x="900" 
d="M50 -150v900h800v-900h-800zM115 -114h670l-335 385zM424 301l-334 384v-768zM783 714h-667l333 -384zM476 300l334 -384v770z" />
    <glyph glyph-name="glyph1" horiz-adv-x="0" 
 />
    <glyph glyph-name="glyph2" horiz-adv-x="1024" 
 />
    <glyph glyph-name="space" unicode=" " horiz-adv-x="280" 
 />
    <glyph glyph-name="exclam" unicode="!" horiz-adv-x="347" 
d="M70 115v607h207v-607h-207zM70 -136v197h207v-197h-207z" />
    <glyph glyph-name="quotedbl" unicode="&#x22;" horiz-adv-x="586" 
d="M265 359h-195v341h195v-341zM516 409h-195v341h195v-341z" />
    <glyph glyph-name="numbersign" unicode="#" horiz-adv-x="855" 
d="M70 527h160l30 155h179l-30 -155h121l30 155h179l-30 -155h116v-172h-148l-27 -138h135v-172h-168l-30 -160h-178l30 160h-122l-30 -160h-179l30 160h-108v172h141l27 138h-128v172zM350 217h122l26 138h-121z" />
    <glyph glyph-name="dollar" unicode="$" horiz-adv-x="756" 
d="M451 732v-64q57 -10 109 -33t108 -60l-77 -130q-29 23 -65 40t-75 27v-163q51 -15 94.5 -32.5t75.5 -42t50 -60t18 -86.5q0 -48 -18 -84.5t-50 -62.5t-75.5 -42t-94.5 -22v-72h-138v73q-72 10 -136 37.5t-119 66.5l82 137q34 -29 78.5 -52t94.5 -35v171
q-45 12 -87.5 28.5t-75.5 41.5t-53 61.5t-20 89.5q0 51 18.5 88.5t51 62t75.5 38t91 18.5v61h138zM520 131q0 23 -16.5 40t-52.5 32v-137q37 6 53 22.5t16 42.5zM244 462q0 -23 15 -38.5t54 -30.5v128q-38 -6 -53.5 -21t-15.5 -38z" />
    <glyph glyph-name="percent" unicode="%" horiz-adv-x="925" 
d="M70 -115l570 797h209l-569 -797h-210zM30 520q0 42 16.5 76t44 57.5t63.5 36t74 12.5q39 0 74.5 -12.5t63 -36t43.5 -57t16 -76.5q0 -42 -16 -75.5t-43.5 -57t-63 -36t-74.5 -12.5q-38 0 -74 12.5t-63.5 36t-44 57t-16.5 75.5zM228 473q22 0 34.5 13.5t12.5 33.5
q0 21 -12.5 34t-34.5 13q-23 0 -35.5 -13.5t-12.5 -33.5t12.5 -33.5t35.5 -13.5zM500 47q0 42 16.5 76t44 57.5t63.5 36t74 12.5q39 0 74.5 -12.5t63 -36t43.5 -57t16 -76.5q0 -42 -16 -75.5t-43.5 -57t-63 -36t-74.5 -12.5q-38 0 -74 12.5t-63.5 36t-44 57t-16.5 75.5z
M698 0q22 0 34.5 13.5t12.5 33.5q0 21 -12.5 34t-34.5 13q-23 0 -35.5 -13.5t-12.5 -33.5t12.5 -33.5t35.5 -13.5z" />
    <glyph glyph-name="ampersand" unicode="&#x26;" horiz-adv-x="855" 
d="M574 -81q-47 -26 -101.5 -40t-118.5 -14q-71 0 -127 16t-95.5 46t-60.5 72t-21 95q0 33 7.5 62t25.5 55.5t49 51t79 48.5q-32 44 -49.5 88t-17.5 89q0 47 19.5 86t54 67.5t81.5 44.5t102 16t101 -15t79 -42t51 -64t18 -81q0 -37 -9.5 -67.5t-31 -58t-56 -52.5t-84.5 -51
l103 -109q23 56 32 119h188q-8 -72 -31 -136t-63 -117l137 -144h-228zM366 17q54 0 96 21l-148 157q-26 -15 -41 -28t-23 -24.5t-10 -22.5t-2 -22q0 -38 32.5 -59.5t95.5 -21.5zM332 483q0 -42 40 -100q53 28 71.5 52.5t18.5 52.5q0 26 -16 44t-45 18q-28 0 -48.5 -17.5
t-20.5 -49.5z" />
    <glyph glyph-name="quotesingle" unicode="'" horiz-adv-x="345" 
d="M271 409h-195v341h195v-341z" />
    <glyph glyph-name="parenleft" unicode="(" horiz-adv-x="482" 
d="M50 289q0 66 9.5 125.5t30.5 114t55 105t83 98.5h233q-98 -94 -150.5 -203.5t-52.5 -239.5t52.5 -240t150.5 -204h-233q-49 48 -83 98.5t-55 105.5t-30.5 114.5t-9.5 125.5z" />
    <glyph glyph-name="parenright" unicode=")" horiz-adv-x="482" 
d="M432 289q0 -66 -9.5 -125.5t-30.5 -114.5t-55 -105.5t-83 -98.5h-233q98 94 150.5 204t52.5 240t-52.5 239.5t-150.5 203.5h233q49 -48 83 -98.5t55 -105t30.5 -114t9.5 -125.5z" />
    <glyph glyph-name="asterisk" unicode="*" horiz-adv-x="470" 
d="M450 494l-102 -30l69 -92l-109 -82l-71 98l-71 -98l-110 82l67 92l-103 30l51 138l96 -38v113h138v-113l94 37z" />
    <glyph glyph-name="plus" unicode="+" horiz-adv-x="688" 
d="M70 388h170v154h208v-154h170v-172h-170v-171h-208v171h-170v172z" />
    <glyph glyph-name="comma" unicode="," horiz-adv-x="285" 
d="M261 -116q0 -36 -15 -63.5t-41.5 -47t-64 -30.5t-82.5 -14v82q57 4 80 21t23 46h-105v192h205v-186z" />
    <glyph glyph-name="hyphen" unicode="-" horiz-adv-x="688" 
d="M70 388h548v-172h-548v172z" />
    <glyph glyph-name="period" unicode="." horiz-adv-x="311" 
d="M56 -122v192h205v-192h-205z" />
    <glyph glyph-name="slash" unicode="/" horiz-adv-x="591" 
d="M20 -115l330 797h219l-322 -797h-227z" />
    <glyph glyph-name="zero" unicode="0" horiz-adv-x="788" 
d="M42 284q0 97 23.5 174.5t68 131.5t109 82.5t147.5 28.5q81 0 145.5 -28.5t109.5 -82.5t69 -131.5t24 -174.5q0 -98 -22.5 -175.5t-67 -131.5t-109.5 -83t-149 -29q-83 0 -147.5 29t-109 83t-68 131.5t-23.5 175.5zM250 284q0 -67 11.5 -114t31 -76.5t44.5 -43t53 -13.5
q29 0 54.5 13.5t45 43t30.5 76.5t11 114q0 66 -11 113t-30.5 76t-45 42.5t-54.5 13.5q-28 0 -53 -13.5t-44.5 -42.5t-31 -76t-11.5 -113z" />
    <glyph glyph-name="one" unicode="1" horiz-adv-x="418" 
d="M20 682h328v-797h-208v625h-120v172z" />
    <glyph glyph-name="two" unicode="2" horiz-adv-x="729" 
d="M306 218q68 54 105.5 108.5t37.5 102.5q0 16 -4.5 33.5t-15 32t-28.5 23.5t-45 9q-111 0 -160 -133l-159 83q16 54 48 96t75.5 70.5t97 42.5t112.5 13q62 -1 115.5 -21t92.5 -56t61 -86.5t20 -111.5q-2 -44 -17.5 -83.5t-40.5 -76t-58 -70t-70 -63.5l-92 -75h309v-171
h-631v134z" />
    <glyph glyph-name="three" unicode="3" horiz-adv-x="744" 
d="M55 511q16 46 47 81.5t72.5 59.5t89 36.5t96.5 12.5q63 0 120 -17.5t99.5 -49.5t67.5 -76.5t25 -98.5q0 -27 -7 -53t-21.5 -48.5t-36.5 -39t-52 -24.5q30 -7 55 -22.5t44 -38t29.5 -51t10.5 -60.5q0 -62 -27 -110t-72.5 -80.5t-106.5 -49.5t-129 -17q-47 0 -95.5 10
t-92 32t-79 57t-54.5 85l174 80q15 -45 54.5 -68.5t88.5 -23.5q24 0 47 4.5t42 14.5t30.5 26t11.5 39q0 27 -13 44.5t-33 28t-45.5 14.5t-49.5 4h-81v152h81q20 0 41 3.5t38.5 13t28.5 25.5t11 41q0 21 -9.5 36.5t-25.5 25.5t-36.5 15t-41.5 5q-42 0 -77 -25t-53 -68z" />
    <glyph glyph-name="four" unicode="4" horiz-adv-x="735" 
d="M30 19v172l345 491h223v-491h107v-172h-107v-134h-208v134h-360zM390 435l-166 -244h166v244z" />
    <glyph glyph-name="five" unicode="5" horiz-adv-x="743" 
d="M216 146q22 -54 55.5 -81.5t93.5 -27.5q54 0 87 29t33 77t-34 76t-88 30q-71 2 -107 -40h-186v473h581v-172h-373v-120q29 16 64.5 23.5t73.5 7.5q49 0 98 -18t89 -53t65 -86.5t25 -118.5q0 -57 -23.5 -108t-66 -89.5t-103.5 -60.5t-136 -22q-64 0 -118 15t-96 43t-70 67
t-39 86l175 70v0z" />
    <glyph glyph-name="six" unicode="6" horiz-adv-x="745" 
d="M505 682l-126 -263q22 3 43 3q49 0 98.5 -20t89 -55.5t64 -85t24.5 -109.5q0 -71 -28.5 -125t-75.5 -90t-107 -54t-123 -18q-73 0 -136.5 23t-107 66.5t-62 106t-0.5 142.5q6 27 21 58t32 67l170 354h224zM376 251q-57 0 -86 -31.5t-29 -76.5t30 -76t85 -31t85 31t30 76
t-29 76.5t-86 31.5z" />
    <glyph glyph-name="seven" unicode="7" horiz-adv-x="665" 
d="M327 -115h-224l283 625h-366v172h610v-128z" />
    <glyph glyph-name="eight" unicode="8" horiz-adv-x="740" 
d="M370 -135q-65 0 -123.5 16.5t-102 48t-69 76.5t-25.5 101q0 40 12.5 72t33.5 56t48 39.5t56 22.5q-57 14 -92 60.5t-35 111.5q0 55 23.5 98.5t63.5 73.5t94 45.5t116 15.5q61 0 115.5 -15.5t94.5 -45.5t63.5 -73.5t23.5 -98.5q0 -65 -35 -111.5t-92 -60.5q30 -6 57 -21.5
t47.5 -39.5t33 -56.5t12.5 -72.5q0 -56 -25.5 -101t-69 -76.5t-102 -48t-123.5 -16.5zM370 17q51 0 81 27t30 69t-30 69.5t-81 27.5t-81 -27.5t-30 -69.5t30 -69t81 -27zM370 377q48 0 73 25.5t25 60.5t-25 61t-73 26t-73 -26t-25 -61t25 -60.5t73 -25.5z" />
    <glyph glyph-name="nine" unicode="9" horiz-adv-x="747" 
d="M243 -115l126 263q-23 -3 -43 -3q-49 0 -98.5 20t-89 55.5t-64 85t-24.5 109.5q0 71 28.5 125t75.5 90t107 54t123 18q73 0 136.5 -23t107 -66.5t62 -106.5t0.5 -142q-6 -27 -21 -58t-32 -67l-170 -354h-224zM372 316q57 0 86 31.5t29 76.5t-30 76t-85 31t-85 -31
t-30 -76t29 -76.5t86 -31.5z" />
    <glyph glyph-name="colon" unicode=":" horiz-adv-x="345" 
d="M70 -15v192h205v-192h-205zM70 415v192h205v-192h-205z" />
    <glyph glyph-name="semicolon" unicode=";" horiz-adv-x="345" 
d="M70 415v192h205v-192h-205zM275 -9q0 -36 -15 -63.5t-41.5 -47t-64 -30.5t-82.5 -14v82q57 4 80 21t23 46h-105v192h205v-186z" />
    <glyph glyph-name="less" unicode="&#x3c;" horiz-adv-x="610" 
d="M590 -33l-141 -141l-379 379v161l379 379l141 -141l-320 -318z" />
    <glyph glyph-name="equal" unicode="=" horiz-adv-x="688" 
d="M70 508h548v-172h-548v172zM70 268h548v-172h-548v172z" />
    <glyph glyph-name="greater" unicode="&#x3e;" horiz-adv-x="610" 
d="M340 286l-320 318l141 141l379 -379v-161l-379 -379l-141 141z" />
    <glyph glyph-name="question" unicode="?" horiz-adv-x="683" 
d="M218 345q37 4 74.5 15t66.5 28t47.5 40.5t18.5 52.5q0 21 -9.5 38t-24.5 28.5t-34 17t-38 5.5q-20 0 -41 -7t-40 -21t-34 -35t-22 -49l-163 72q15 58 46 98.5t73 66t91.5 37t101.5 11.5q73 0 129.5 -20.5t94.5 -55t58 -80t20 -94.5q0 -44 -16.5 -84t-44.5 -73t-66 -57
t-81 -36v-128h-207v230zM218 60h207v-196h-207v196z" />
    <glyph glyph-name="at" unicode="@" horiz-adv-x="1015" 
d="M774 -97q-63 -26 -130 -37t-139 -11q-100 0 -183.5 32.5t-144 90.5t-94 136.5t-33.5 170.5q0 89 34 167t94.5 136t144.5 91.5t185 33.5q103 0 187 -30.5t144 -83.5t93 -125t33 -156q0 -55 -16.5 -101.5t-48 -80.5t-76.5 -53t-102 -19q-42 0 -76.5 11.5t-51.5 39.5h-1
q-22 -21 -54.5 -33.5t-70.5 -12.5q-45 0 -82.5 16t-64.5 44t-42 67t-15 84q0 46 16.5 85.5t44.5 68t65 45t78 16.5q33 0 64 -8t51 -26l14 28h115v-251q0 -22 8 -31.5t28 -9.5q53 0 53 116q0 61 -20.5 108.5t-59 80.5t-93 50t-121.5 17q-66 0 -120 -20.5t-92.5 -57.5
t-59.5 -89.5t-21 -116.5q0 -65 21 -117.5t59 -89.5t92 -57t119 -20q71 0 127.5 7.5t103.5 24.5zM559 280q0 32 -20 51.5t-52 19.5q-30 0 -49.5 -19.5t-19.5 -51.5q0 -30 20 -49t49 -19q32 0 52 19t20 49z" />
    <glyph glyph-name="A" unicode="A" horiz-adv-x="842" 
d="M20 -115l270 797h262l270 -797h-208l-76 223l-258 -71l-52 -152h-208zM344 226l140 39l-63 187z" />
    <glyph glyph-name="B" unicode="B" horiz-adv-x="853" 
d="M765 471q0 -54 -19.5 -98.5t-62.5 -76.5q25 -10 46.5 -26t38 -39t26 -54t9.5 -70q0 -60 -18 -102t-49.5 -69t-73.5 -39t-90 -12h-502v797h464q48 0 90 -10.5t73.5 -35.5t49.5 -65t18 -100zM591 138q0 20 -9 35.5t-23.5 26t-32.5 16.5t-37 9l-216 -59v-115h216q44 0 73 20
t29 67zM494 391q34 8 51 28t17 44q0 26 -21 39t-47 13h-221v-178z" />
    <glyph glyph-name="C" unicode="C" horiz-adv-x="886" 
d="M50 284q0 92 33.5 169t92 132.5t138.5 86.5t172 31q124 0 214 -50.5t162 -149.5l-137 -115q-37 66 -93.5 105t-140.5 39q-52 0 -95 -19t-73.5 -52.5t-47.5 -79t-17 -97.5t16.5 -97t47.5 -78.5t74.5 -52.5t96.5 -19q43 0 77.5 10t63 29t52 46t43.5 61l134 -119
q-68 -95 -158.5 -147t-218.5 -52q-92 0 -172 31t-138.5 86.5t-92 132.5t-33.5 169z" />
    <glyph glyph-name="D" unicode="D" horiz-adv-x="853" 
d="M70 682h386q81 0 145.5 -30.5t109.5 -83.5t68.5 -125.5t23.5 -157.5q0 -88 -25.5 -161.5t-75 -126.5t-122 -82.5t-167.5 -29.5h-343v797zM278 57h123q49 0 85.5 18.5t60.5 50t36 73.5t12 89q0 46 -14 86.5t-40.5 70.5t-65.5 47.5t-90 17.5h-107v-453z" />
    <glyph glyph-name="E" unicode="E" horiz-adv-x="749" 
d="M671 378v-172h-393v-150h422v-171h-630v797h620v-172h-412v-132h393z" />
    <glyph glyph-name="F" unicode="F" horiz-adv-x="710" 
d="M671 378v-172h-393v-321h-208v797h620v-172h-412v-132h393z" />
    <glyph glyph-name="G" unicode="G" horiz-adv-x="931" 
d="M480 37q80 0 131 37t61 105h-211v172h420v-111q0 -92 -31.5 -162t-86 -117t-127.5 -71.5t-155 -24.5q-91 0 -169.5 31t-136.5 86.5t-91.5 132.5t-33.5 169t33.5 169t92 132.5t138.5 86.5t172 31q124 0 214 -50.5t162 -149.5l-137 -115q-37 66 -97.5 105t-144.5 39
q-45 0 -86 -18t-71.5 -50.5t-49 -78t-18.5 -101.5t17 -101.5t47 -78t70.5 -50t87.5 -17.5z" />
    <glyph glyph-name="H" unicode="H" horiz-adv-x="855" 
d="M577 -115v373l-299 -82v-291h-208v797h208v-335l299 83v252h208v-797h-208z" />
    <glyph glyph-name="I" unicode="I" horiz-adv-x="348" 
d="M278 682v-797h-208v797h208z" />
    <glyph glyph-name="J" unicode="J" horiz-adv-x="649" 
d="M126 107q26 -29 58.5 -48t73.5 -19q27 0 48.5 10t35.5 27t21.5 39.5t7.5 48.5v517h208v-506q0 -71 -22 -129t-63.5 -99.5t-101 -63t-134.5 -19.5q-66 3 -126 26.5t-113 71.5z" />
    <glyph glyph-name="K" unicode="K" horiz-adv-x="769" 
d="M520 -115l-242 338v-338h-208v797h208v-300l242 300h229l-308 -382l308 -415h-229z" />
    <glyph glyph-name="L" unicode="L" horiz-adv-x="679" 
d="M70 682h208v-625h381v-172h-589v797z" />
    <glyph glyph-name="M" unicode="M" horiz-adv-x="1029" 
d="M748 682h213v-797h-208v398l-163 -398h-149l-163 398v-398h-208v797h213l232 -567z" />
    <glyph glyph-name="N" unicode="N" horiz-adv-x="855" 
d="M70 682h208l299 -483v483h208v-797h-208l-299 492v-492h-208v797z" />
    <glyph glyph-name="O" unicode="O" horiz-adv-x="975" 
d="M50 285q0 91 33.5 168t92 132.5t138.5 86.5t174 31q95 0 175 -31t138.5 -86.5t91 -132.5t32.5 -168q0 -92 -32.5 -169t-91 -133t-138.5 -87t-175 -31q-94 0 -174 31t-138.5 87t-92 133t-33.5 169zM258 285q0 -55 16.5 -100.5t46.5 -78.5t72.5 -51.5t94.5 -18.5t94.5 18.5
t72.5 51.5t46.5 78.5t16.5 100.5q0 53 -16.5 98t-46.5 78t-72.5 51.5t-94.5 18.5t-94.5 -18.5t-72.5 -51.5t-46.5 -78t-16.5 -98z" />
    <glyph glyph-name="P" unicode="P" horiz-adv-x="814" 
d="M70 682h447q52 0 97.5 -14t78.5 -42.5t52 -73.5t19 -106q0 -60 -15 -102.5t-45 -72t-74.5 -49t-102.5 -32.5l-249 -55v-250h-208v797zM557 441q0 28 -18.5 48.5t-49.5 20.5h-211v-193l190 35q51 9 70 33t19 56z" />
    <glyph glyph-name="Q" unicode="Q" horiz-adv-x="975" 
d="M50 285q0 91 33.5 168t92 132.5t138.5 86.5t174 31q95 0 175 -31t138.5 -86.5t91 -132.5t32.5 -168q0 -76 -22 -141.5t-63 -117.5l75 -75l-120 -121l-87 87q-48 -25 -103 -38.5t-117 -13.5q-94 0 -174 31t-138.5 87t-92 133t-33.5 169zM621 245l77 -78q20 52 20 118
q0 53 -16.5 98t-46.5 78t-72.5 51.5t-94.5 18.5t-94.5 -18.5t-72.5 -51.5t-46.5 -78t-16.5 -98q0 -55 16.5 -100.5t46.5 -78.5t72.5 -51.5t94.5 -18.5q50 0 88 13l-75 75z" />
    <glyph glyph-name="R" unicode="R" horiz-adv-x="829" 
d="M70 682h447q52 0 97.5 -14t78.5 -42.5t52 -73.5t19 -106q0 -80 -27 -129.5t-80 -79.5l152 -352h-217l-124 292l-190 -42v-250h-208v797zM557 441q0 28 -18.5 48.5t-49.5 20.5h-211v-193l190 35q51 9 70 33t19 56z" />
    <glyph glyph-name="S" unicode="S" horiz-adv-x="762" 
d="M131 145q53 -45 124 -73t146 -27q50 1 73 15t23 42q0 33 -26.5 53t-88.5 37q-53 15 -109 32.5t-102 46.5t-75.5 74t-29.5 116q0 63 24.5 108.5t67 75t99 43.5t119.5 14q44 0 83.5 -6t78 -18.5t76 -31.5t77.5 -46l-82 -160q-48 37 -106 58t-122 23q-21 1 -39.5 -1.5
t-32.5 -9t-22.5 -16.5t-8.5 -25t4.5 -26.5t17.5 -21.5t37.5 -20t65.5 -21q64 -18 120.5 -37.5t98.5 -49t66 -73.5t24 -111q0 -62 -24 -108t-67 -76t-102 -45t-129 -15q-100 0 -186.5 30t-160.5 83z" />
    <glyph glyph-name="T" unicode="T" horiz-adv-x="774" 
d="M491 510v-625h-208v625h-253v172h714v-172h-253z" />
    <glyph glyph-name="U" unicode="U" horiz-adv-x="855" 
d="M427 -135q-74 0 -138.5 23t-113.5 65t-77 101.5t-28 133.5v494h208v-484q0 -32 10 -60t29 -49t47 -33.5t63 -12.5t63 12.5t47.5 33.5t29.5 49t10 60v484h208v-494q0 -74 -28.5 -133.5t-77 -101.5t-114 -65t-138.5 -23z" />
    <glyph glyph-name="V" unicode="V" horiz-adv-x="842" 
d="M228 682l193 -567l193 567h208l-270 -797h-262l-270 797h208z" />
    <glyph glyph-name="W" unicode="W" horiz-adv-x="1059" 
d="M228 682l102 -461l96 461h203l91 -469l107 469h207l-202 -797h-207l-99 503l-97 -503h-206l-202 797h207z" />
    <glyph glyph-name="X" unicode="X" horiz-adv-x="792" 
d="M249 682l145 -223l146 223h229l-258 -402l258 -395h-237l-138 214l-137 -214h-237l258 395l-258 402h229z" />
    <glyph glyph-name="Y" unicode="Y" horiz-adv-x="809" 
d="M249 682l156 -263l156 263h229l-282 -464v-333h-208v336l-280 461h229z" />
    <glyph glyph-name="Z" unicode="Z" horiz-adv-x="724" 
d="M50 -115v172l348 442h-329v183h589v-160l-351 -454h367v-183h-624z" />
    <glyph glyph-name="bracketleft" unicode="[" horiz-adv-x="429" 
d="M409 732v-172h-131v-543h131v-172h-339v887h339z" />
    <glyph glyph-name="backslash" unicode="\" horiz-adv-x="1059" 
d="M1037 230h-134l-83 -335h-186l-63 335h-86l-62 -335h-186l-84 335h-133v119h103l-80 323h160l75 -323h95l59 323h193l59 -323h95l75 323h160l-81 -323h104v-119zM331 121l20 109h-46zM726 122l25 108h-45zM507 349h42l-21 111z" />
    <glyph glyph-name="bracketright" unicode="]" horiz-adv-x="429" 
d="M359 732v-887h-339v172h131v543h-131v172h339z" />
    <glyph glyph-name="asciicircum" unicode="^" horiz-adv-x="531" 
d="M361 716l151 -275h-192l-53 110l-53 -110h-195l151 275h191z" />
    <glyph glyph-name="underscore" unicode="_" horiz-adv-x="488" 
d="M20 37h448v-172h-448v172z" />
    <glyph glyph-name="grave" unicode="`" horiz-adv-x="391" 
d="M186 451l-166 265h208l144 -265h-186z" />
    <glyph glyph-name="a" unicode="a" horiz-adv-x="833" 
d="M586 478h177v-593h-178l-16 48q-42 -35 -94.5 -52t-108.5 -16q-70 1 -128 25t-100 66t-65 99t-23 125q0 70 24.5 128.5t67 100.5t100 65.5t123.5 23.5q58 0 109 -15t94 -47zM397 37q63 0 101 40t38 103q0 66 -38 105.5t-101 39.5t-101 -39.5t-38 -105.5q0 -63 38 -103
t101 -40z" />
    <glyph glyph-name="b" unicode="b" horiz-adv-x="833" 
d="M277 444q42 28 89.5 41t101.5 13q66 0 123.5 -23.5t100 -65.5t67 -100.5t24.5 -128.5q0 -68 -23 -125t-65 -99t-100 -66t-128 -25q-57 -1 -109 16t-94 52l-16 -48h-178v797h207v-238zM436 37q63 0 101 40t38 103q0 66 -38 105.5t-101 39.5t-101 -39.5t-38 -105.5
q0 -63 38 -103t101 -40z" />
    <glyph glyph-name="c" unicode="c" horiz-adv-x="720" 
d="M404 336q-69 0 -108 -43t-39 -112q0 -33 10 -61t29 -48.5t46 -32.5t62 -12q48 0 86 21.5t64 64.5l135 -113q-26 -33 -56 -59.5t-65 -45.5t-77 -29.5t-92 -10.5q-74 0 -138 23t-111 65.5t-73.5 102.5t-26.5 135t27 135t74 103t110.5 66t137.5 23q94 0 165.5 -38.5
t125.5 -107.5l-136 -112q-24 41 -62 63.5t-88 22.5z" />
    <glyph glyph-name="d" unicode="d" horiz-adv-x="833" 
d="M556 682h207v-797h-178l-16 48q-42 -35 -94.5 -52t-108.5 -16q-70 1 -128 25t-100 66t-65 99t-23 125q0 70 24.5 128.5t67 100.5t100 65.5t123.5 23.5q54 0 101.5 -13t89.5 -41v238zM397 37q63 0 101 40t38 103q0 66 -38 105.5t-101 39.5t-101 -39.5t-38 -105.5
q0 -63 38 -103t101 -40z" />
    <glyph glyph-name="e" unicode="e" horiz-adv-x="792" 
d="M270 74q45 -57 131 -57q60 0 103 18.5t81 59.5l135 -100q-57 -66 -130.5 -103t-172.5 -37q-81 0 -148 22.5t-116 64.5t-76 102.5t-27 136.5q0 74 27.5 134.5t75.5 103t112 66t137 23.5q75 0 138 -22.5t108 -64.5t70.5 -103t25.5 -138zM409 348q-68 0 -112 -33t-56 -92
l292 65q-20 26 -51 43t-73 17z" />
    <glyph glyph-name="f" unicode="f" horiz-adv-x="502" 
d="M336 -115h-208v401h-108v172h108v47q0 40 14.5 73t40 56t58.5 35.5t71 12.5h170v-172h-93q-25 0 -39 -14.5t-14 -37.5h136v-172h-136v-401z" />
    <glyph glyph-name="g" unicode="g" horiz-adv-x="833" 
d="M763 -92q0 -67 -24.5 -122t-68.5 -94.5t-104.5 -62t-132.5 -24.5q-64 -2 -125.5 11t-111 42.5t-81.5 77.5t-37 117h208q2 -19 13 -33.5t28.5 -24t38.5 -14.5t43 -5q28 0 54.5 8t47 23.5t32.5 37.5t12 51v61q-38 -38 -88 -55.5t-101 -16.5q-66 1 -123.5 23.5t-100.5 62.5
t-67.5 95.5t-24.5 123.5q0 70 25.5 127t69 97t100.5 62t120 22q58 0 109 -15t94 -47l18 42h177v-570zM397 57q28 0 53 8.5t44 25t30.5 41.5t11.5 58q0 35 -11.5 60.5t-30.5 42t-44 24.5t-53 8t-53 -8t-44 -24.5t-30.5 -42t-11.5 -60.5q0 -33 11.5 -58t30.5 -41.5t44 -25
t53 -8.5z" />
    <glyph glyph-name="h" unicode="h" horiz-adv-x="783" 
d="M278 446q35 25 77 38.5t79 13.5q60 0 111 -17.5t88.5 -49.5t58.5 -76t21 -97v-373h-208v309q0 37 -9 62.5t-24 41t-34.5 22t-39.5 6.5q-45 0 -77.5 -27.5t-42.5 -72.5v-341h-208v797h208v-236z" />
    <glyph glyph-name="i" unicode="i" horiz-adv-x="348" 
d="M278 478v-593h-208v593h208zM278 710v-172h-208v172h208z" />
    <glyph glyph-name="j" unicode="j" horiz-adv-x="384" 
d="M314 710v-172h-208v172h208zM106 478h208v-449q0 -56 -14.5 -95.5t-39.5 -64.5t-58.5 -36t-71.5 -11h-130v172h54q23 0 37.5 14.5t14.5 49.5v420z" />
    <glyph glyph-name="k" unicode="k" horiz-adv-x="733" 
d="M456 -115l-178 201v-201h-208v797h208v-376l178 172h249l-283 -272l290 -321h-256z" />
    <glyph glyph-name="l" unicode="l" horiz-adv-x="348" 
d="M278 682v-797h-208v797h208z" />
    <glyph glyph-name="m" unicode="m" horiz-adv-x="1038" 
d="M623 -115h-208v359q0 35 -17.5 58t-50.5 23q-16 0 -28 -7.5t-20 -19t-13.5 -26t-7.5 -28.5v-359h-208v593h178l16 -42q30 33 69 47t77 15q45 1 87.5 -20t73.5 -61q37 46 86.5 64t96.5 17q41 -1 79.5 -18.5t68.5 -50t48 -78.5t18 -103v-363h-208v359q0 35 -17.5 58
t-50.5 23q-31 0 -47.5 -20t-21.5 -51v-369z" />
    <glyph glyph-name="n" unicode="n" horiz-adv-x="783" 
d="M264 436q18 14 39 25.5t43.5 19.5t45 12.5t42.5 4.5q60 0 111 -17.5t88.5 -49.5t58.5 -76t21 -97v-373h-208v309q0 37 -9 62.5t-24 41t-34.5 22t-39.5 6.5q-45 0 -77.5 -27.5t-42.5 -72.5v-341h-208v593h178z" />
    <glyph glyph-name="o" unicode="o" horiz-adv-x="811" 
d="M50 180q0 76 28.5 137t77 103.5t113 65t137.5 22.5q74 0 139 -22.5t113 -64.5t76 -103t28 -137q0 -75 -28 -135.5t-76 -103t-113 -65t-139 -22.5q-73 0 -137.5 22.5t-113 64.5t-77 102.5t-28.5 135.5zM406 26q34 0 62 12t47 32.5t29.5 48.5t10.5 61q0 34 -10.5 62.5
t-29.5 49.5t-47 32.5t-62 11.5q-35 0 -62.5 -12t-47 -33t-29.5 -49.5t-10 -61.5t10 -61t29.5 -48.5t47 -32.5t62.5 -12z" />
    <glyph glyph-name="p" unicode="p" horiz-adv-x="833" 
d="M247 478l17 -42q44 32 94.5 47t109.5 15q66 0 123.5 -23.5t100 -65.5t67 -100.5t24.5 -128.5q0 -68 -23 -125t-65 -99t-100 -66t-128 -25q-52 -1 -100 13.5t-89 43.5v-268h-208v824h177zM436 37q63 0 101 40t38 103q0 66 -38 105.5t-101 39.5t-101 -39.5t-38 -105.5
q0 -63 38 -103t101 -40z" />
    <glyph glyph-name="q" unicode="q" horiz-adv-x="833" 
d="M586 478h177v-824h-208v268q-41 -29 -89.5 -43.5t-99.5 -13.5q-70 1 -128 25t-100 66t-65 99t-23 125q0 70 24.5 128.5t67 100.5t100 65.5t123.5 23.5q58 0 109 -15t94 -47zM397 37q63 0 101 40t38 103q0 66 -38 105.5t-101 39.5t-101 -39.5t-38 -105.5q0 -63 38 -103
t101 -40z" />
    <glyph glyph-name="r" unicode="r" horiz-adv-x="550" 
d="M261 426q23 26 58 39t73 13h130l-36 -172h-120q-18 0 -34 -8t-28 -22t-19 -33t-7 -41v-317h-208v593h178z" />
    <glyph glyph-name="s" unicode="s" horiz-adv-x="621" 
d="M501 293q-19 12 -41.5 21.5t-45 16.5t-44 11t-37.5 4q-70 0 -70 -35q0 -17 16 -26t42 -16q52 -14 100.5 -30t86 -39.5t59.5 -57t22 -82.5q0 -53 -21.5 -92t-58 -64t-86 -37t-104.5 -12q-75 0 -146.5 21.5t-137.5 66.5l73 143q18 -14 42 -26.5t50 -21.5t53 -14.5t51 -5.5
q42 -1 59.5 7.5t17.5 29.5t-24 32t-57 20q-56 15 -101 31.5t-76.5 40.5t-49 57t-18.5 81q-1 51 21.5 87t59.5 59t83.5 34t94.5 11q79 0 142 -24t112 -54l-67 -137v0z" />
    <glyph glyph-name="t" unicode="t" horiz-adv-x="502" 
d="M336 478h136v-172h-136v-196q0 -24 14 -38.5t39 -14.5h93v-172h-170q-38 0 -71 12.5t-58.5 35.5t-40 55.5t-14.5 73.5v244h-108v172h108v204h208v-204z" />
    <glyph glyph-name="u" unicode="u" horiz-adv-x="783" 
d="M519 -73q-36 -29 -82.5 -45.5t-87.5 -16.5q-60 0 -111 17.5t-88.5 49.5t-58.5 76t-21 97v373h208v-309q0 -37 9 -62.5t24 -41t34.5 -22t39.5 -6.5q45 0 77.5 27.5t42.5 72.5v341h208v-593h-178z" />
    <glyph glyph-name="v" unicode="v" horiz-adv-x="737" 
d="M486 -115h-236l-230 593h214l134 -363l134 363h214z" />
    <glyph glyph-name="w" unicode="w" horiz-adv-x="947" 
d="M572 478l81 -310l87 310h186l-177 -593h-178l-98 370l-98 -370h-178l-177 593h186l86 -310l82 310h198z" />
    <glyph glyph-name="x" unicode="x" horiz-adv-x="746" 
d="M263 478l110 -141l110 141h233l-227 -290l237 -303h-233l-120 153l-120 -153h-233l236 303l-226 290h233z" />
    <glyph glyph-name="y" unicode="y" horiz-adv-x="783" 
d="M713 -92q0 -67 -23 -122t-63.5 -94t-96.5 -61.5t-122 -25.5q-58 -2 -115 10.5t-103 42.5t-76.5 78t-35.5 117h208q4 -38 33 -57.5t65 -19.5q25 0 47 8t38.5 23.5t26 37.5t9.5 51v47q-31 -28 -72.5 -43t-83.5 -15q-60 0 -111 17.5t-88.5 49.5t-58.5 76t-21 97v353h208
v-289q0 -37 9 -62.5t24 -41t34.5 -22t39.5 -6.5q45 0 77.5 27.5t42.5 72.5v321h208v-570z" />
    <glyph glyph-name="z" unicode="z" horiz-adv-x="695" 
d="M50 -115v153l302 268h-280v173h551v-152l-306 -270h327v-172h-594z" />
    <glyph glyph-name="braceleft" unicode="{" horiz-adv-x="449" 
d="M197 284q64 -14 92.5 -53.5t28.5 -102.5v-39q0 -47 29.5 -64.5t81.5 -17.5v-172q-71 0 -129.5 14.5t-100.5 43t-65.5 71t-23.5 98.5v42q0 52 -23.5 73t-66.5 21v172q43 0 66.5 21t23.5 73v42q0 56 23.5 98.5t65.5 71t100.5 43t129.5 14.5v-172q-52 0 -81.5 -17.5
t-29.5 -64.5v-39q0 -63 -28.5 -102.5t-92.5 -53.5z" />
    <glyph glyph-name="bar" unicode="|" horiz-adv-x="348" 
d="M278 712v-857h-208v857h208z" />
    <glyph glyph-name="braceright" unicode="}" horiz-adv-x="449" 
d="M252 284q-64 14 -92.5 53.5t-28.5 102.5v39q0 47 -29.5 64.5t-81.5 17.5v172q70 0 129 -14.5t101 -43t65.5 -71t23.5 -98.5v-42q0 -52 23.5 -73t66.5 -21v-172q-43 0 -66.5 -21t-23.5 -73v-42q0 -56 -23.5 -98.5t-65.5 -71t-101 -43t-129 -14.5v172q52 0 81.5 17.5
t29.5 64.5v39q0 63 28.5 102.5t92.5 53.5z" />
    <glyph glyph-name="asciitilde" unicode="~" horiz-adv-x="647" 
d="M204 434q31 0 64.5 -10.5t61.5 -22.5q29 -13 63 -23t66 -10q37 0 64.5 8.5t53.5 26.5v-172q-27 -16 -60.5 -25t-73.5 -9q-31 0 -64.5 10t-61.5 22q-29 13 -63 23.5t-66 10.5q-37 0 -64.5 -6.5t-53.5 -20.5v172q26 12 59.5 19t74.5 7z" />
    <glyph glyph-name="uni3001" unicode="&#x3001;" horiz-adv-x="940" 
d="M53 16v126l256 -102v-188z" />
    <glyph glyph-name="uni3002" unicode="&#x3002;" horiz-adv-x="940" 
d="M320 0q0 -27 -9.5 -50t-26.5 -40t-40.5 -26.5t-50.5 -9.5q-26 0 -49 9.5t-40.5 26.5t-27.5 40t-10 50q0 28 10 51.5t27.5 40.5t40.5 26t49 9t49 -9.5t40.5 -26.5t27.5 -40t10 -51zM236 0q0 21 -12 34t-31 13t-31 -13t-12 -34t12 -33.5t31 -12.5t31 12.5t12 33.5z" />
    <glyph glyph-name="periodcentered" unicode="&#xb7;" horiz-adv-x="300" 
d="M230 221h-161v161h161v-161z" />
    <glyph glyph-name="twodotenleader" unicode="&#x2025;" horiz-adv-x="800" 
d="M309 221h-161v161h161v-161zM650 221h-161v161h161v-161z" />
    <glyph glyph-name="ellipsis" unicode="&#x2026;" horiz-adv-x="800" 
d="M212 221h-161v161h161v-161zM477 221h-161v161h161v-161zM747 221h-161v161h161v-161z" />
    <glyph glyph-name="dieresis" unicode="&#xa8;" horiz-adv-x="520" 
d="M227 531h-151v151h151v-151zM442 531h-152v151h152v-151z" />
    <glyph glyph-name="uni3003" unicode="&#x3003;" horiz-adv-x="940" 
d="M348 116h-92l95 349h155zM533 116h-92l95 349h155z" />
    <glyph glyph-name="uni00AD" unicode="&#xad;" horiz-adv-x="500" 
d="M82 365h337v-129h-337v129z" />
    <glyph glyph-name="uniFF3C" unicode="&#xff3c;" horiz-adv-x="940" 
d="M838 -98l-95 -69l-646 862l95 66z" />
    <glyph glyph-name="similar" unicode="&#x223c;" horiz-adv-x="940" 
d="M829 317q-62 -51 -116.5 -77.5t-118.5 -26.5q-37 0 -78.5 13.5t-80.5 36.5q-23 12 -48 21t-47 9q-42 0 -80 -18.5t-89 -56.5l-64 76q34 28 63 49t57 35t55.5 21t57.5 7q35 0 74.5 -11.5t75.5 -31.5q29 -16 56 -25.5t48 -9.5q48 0 89 12t90 42z" />
    <glyph glyph-name="quoteleft" unicode="&#x2018;" horiz-adv-x="345" 
d="M70 595q0 36 15 63.5t41.5 47t64 30.5t82.5 14v-82q-57 -4 -80 -21t-23 -46h105v-192h-205v186z" />
    <glyph glyph-name="quoteright" unicode="&#x2019;" horiz-adv-x="345" 
d="M275 564q0 -36 -15 -63.5t-41.5 -47t-64 -30.5t-82.5 -14v82q57 4 80 21t23 46h-105v192h205v-186z" />
    <glyph glyph-name="quotedblleft" unicode="&#x201c;" horiz-adv-x="586" 
d="M311 646q0 36 15 63.5t41.5 47t64 30.5t82.5 14v-82q-57 -4 -80 -21t-23 -46h105v-192h-205v186zM70 596q0 36 15 63.5t41.5 47t64 30.5t82.5 14v-82q-57 -4 -80 -21t-23 -46h105v-192h-205v186z" />
    <glyph glyph-name="quotedblright" unicode="&#x201d;" horiz-adv-x="586" 
d="M275 514q0 -36 -15 -63.5t-41.5 -47t-64 -30.5t-82.5 -14v82q57 4 80 21t23 46h-105v192h205v-186zM516 564q0 -36 -15 -63.5t-41.5 -47t-64 -30.5t-82.5 -14v82q57 4 80 21t23 46h-105v192h205v-186z" />
    <glyph glyph-name="uni3014" unicode="&#x3014;" horiz-adv-x="500" 
d="M420 -70l-48 -109l-250 106v747l251 107l47 -107l-155 -70v-607z" />
    <glyph glyph-name="uni3015" unicode="&#x3015;" horiz-adv-x="500" 
d="M245 -3v607l-155 70l47 107l251 -107v-747l-250 -106l-48 109z" />
    <glyph glyph-name="uni3008" unicode="&#x3008;" horiz-adv-x="550" 
d="M236 300l294 -357l-98 -77l-356 434l357 434l97 -78z" />
    <glyph glyph-name="uni3009" unicode="&#x3009;" horiz-adv-x="550" 
d="M17 656l97 78l357 -434l-356 -434l-98 77l294 357z" />
    <glyph glyph-name="uni300A" unicode="&#x300a;" horiz-adv-x="600" 
d="M172 300l248 -378l-98 -56l-286 434l286 433l93 -53zM346 300l248 -378l-98 -56l-286 434l286 433l93 -53z" />
    <glyph glyph-name="uni300B" unicode="&#x300b;" horiz-adv-x="600" 
d="M195 680l93 53l286 -433l-286 -434l-98 56l248 378zM21 680l93 53l286 -433l-286 -434l-98 56l248 378z" />
    <glyph glyph-name="uni300C" unicode="&#x300c;" horiz-adv-x="450" 
d="M413 628h-172v-325h-155v449h327v-124z" />
    <glyph glyph-name="uni300D" unicode="&#x300d;" horiz-adv-x="450" 
d="M36 -28h172v335h155v-459h-327v124z" />
    <glyph glyph-name="uni300E" unicode="&#x300e;" horiz-adv-x="450" 
d="M413 599h-158v-296h-168v448h326v-152zM341 663v20h-183v-312h24v292h159z" />
    <glyph glyph-name="uni300F" unicode="&#x300f;" horiz-adv-x="450" 
d="M36 4h158v305h169v-460h-327v155zM108 -63v-20h183v324h-24v-304h-159z" />
    <glyph glyph-name="uni3010" unicode="&#x3010;" horiz-adv-x="460" 
d="M85 -136v873h387q-51 -42 -88.5 -93t-61.5 -107t-35.5 -115.5t-11.5 -119.5t11 -120t35 -116.5t62 -107.5t91 -94h-389z" />
    <glyph glyph-name="uni3011" unicode="&#x3011;" horiz-adv-x="460" 
d="M-15 -136q53 43 91 94t62 107.5t35 116.5t11 120t-11.5 119.5t-35.5 115.5t-61.5 107t-88.5 93h387v-873h-389z" />
    <glyph glyph-name="plusminus" unicode="&#xb1;" horiz-adv-x="660" 
d="M406 454h171v-129h-171v-181h-152v181h-169v129h169v180h152v-180zM85 -23v126h490v-126h-490z" />
    <glyph glyph-name="multiply" unicode="&#xd7;" horiz-adv-x="650" 
d="M69 164l133 133l-133 133l122 122l133 -133l133 133l122 -122l-133 -133l133 -133l-122 -122l-133 133l-133 -133z" />
    <glyph glyph-name="divide" unicode="&#xf7;" horiz-adv-x="688" 
d="M50 388h588v-162h-588v162zM344 624q21 0 40 -8t33 -22t22 -33t8 -40t-8 -40t-22 -33t-33 -22t-40 -8t-40 8t-33 22t-22 33t-8 40t8 40t22 33t33 22t40 8zM344 196q21 0 40 -8t33 -22t22 -33t8 -40t-8 -40t-22 -33t-33 -22t-40 -8t-40 8t-33 22t-22 33t-8 40t8 40t22 33
t33 22t40 8z" />
    <glyph glyph-name="notequal" unicode="&#x2260;" horiz-adv-x="740" 
d="M470 458h200v-122h-232l-18 -72h250v-121h-282l-32 -126h-150l32 126h-169v121h200l18 72h-218v122h250l29 114h152z" />
    <glyph glyph-name="lessequal" unicode="&#x2264;" horiz-adv-x="700" 
d="M78 349v88l546 210v-140l-311 -114l311 -116v-137zM75 -4v126h549v-126h-549z" />
    <glyph glyph-name="greaterequal" unicode="&#x2265;" horiz-adv-x="700" 
d="M75 140v137l311 116l-311 114v140l546 -210v-88zM75 -4v126h549v-126h-549z" />
    <glyph glyph-name="infinity" unicode="&#x221e;" horiz-adv-x="800" 
d="M744 327q0 -39 -12.5 -72t-36 -57t-56.5 -38t-73 -14q-45 0 -90 24t-75 62q-29 -36 -71 -59t-98 -23q-41 0 -74 13.5t-56.5 37.5t-36 57t-12.5 72t13.5 72t38 57t58.5 37t75 13q47 0 87.5 -24t72.5 -62q29 38 74 62t93 24q42 0 75 -13.5t56 -37.5t35.5 -57.5t12.5 -73.5z
M623 328q0 14 -4.5 27.5t-12.5 24t-18 17t-22 6.5q-26 0 -52 -23t-45 -55q18 -32 43 -52t53 -20q27 0 42.5 22.5t15.5 52.5zM233 255q27 0 52 19t45 52q-18 31 -42.5 54t-51.5 23q-25 0 -42.5 -21.5t-17.5 -50.5q0 -30 15.5 -53t41.5 -23z" />
    <glyph glyph-name="therefore" unicode="&#x2234;" horiz-adv-x="940" 
d="M560 516q0 -20 -7 -36.5t-19.5 -29.5t-29.5 -20t-36 -7t-36 7t-29.5 20t-19.5 29.5t-7 36.5q0 19 7 36t19.5 29.5t29.5 19.5t36 7t36 -7t29.5 -19.5t19.5 -29.5t7 -36zM328 116q0 -20 -7 -36.5t-19.5 -29.5t-29.5 -20t-36 -7t-36 7t-29.5 20t-19.5 29.5t-7 36.5
q0 19 7 36t19.5 29.5t29.5 19.5t36 7t36 -7t29.5 -19.5t19.5 -29.5t7 -36zM793 116q0 -20 -7 -36.5t-19.5 -29.5t-29.5 -20t-36 -7t-36 7t-29.5 20t-19.5 29.5t-7 36.5q0 19 7 36t19.5 29.5t29.5 19.5t36 7t36 -7t29.5 -19.5t19.5 -29.5t7 -36z" />
    <glyph glyph-name="degree" unicode="&#xb0;" horiz-adv-x="420" 
d="M341 621q0 -28 -10.5 -52t-28.5 -41.5t-42 -27.5t-50 -10t-50 10t-42 27.5t-29 41.5t-11 52t11 52t29 41.5t42 27.5t50 10t50 -10t42 -27.5t28.5 -41.5t10.5 -52zM245 621q0 18 -10.5 28.5t-24.5 10.5q-15 0 -25.5 -10.5t-10.5 -28.5q0 -19 10.5 -29.5t25.5 -10.5
q14 0 24.5 10.5t10.5 29.5z" />
    <glyph glyph-name="minute" unicode="&#x2032;" horiz-adv-x="340" 
d="M158 453h-109l102 268h163z" />
    <glyph glyph-name="second" unicode="&#x2033;" horiz-adv-x="540" 
d="M153 454h-105l103 267h159zM333 454h-106l108 267h158z" />
    <glyph glyph-name="uni2103" unicode="&#x2103;" horiz-adv-x="1064" 
d="M220 264q0 84 33.5 157t92 127t138.5 84.5t172 30.5q124 0 214 -50.5t162 -149.5l-137 -115q-37 66 -93.5 105t-140.5 39q-52 0 -95 -19t-73.5 -50.5t-47.5 -72.5t-17 -86t16.5 -86t47.5 -72.5t74.5 -50t96.5 -18.5q43 0 77.5 10t63 29t52 46t43.5 61l134 -119
q-68 -95 -158.5 -147t-218.5 -52q-92 0 -172 30.5t-138.5 84.5t-92 127t-33.5 157zM50 654q0 28 11.5 54t31.5 45.5t47.5 31t59.5 11.5q31 0 58.5 -11.5t47.5 -31t31.5 -45.5t11.5 -54q0 -29 -11.5 -55t-31.5 -45.5t-47.5 -31.5t-58.5 -12q-33 0 -60.5 11.5t-47.5 31t-31 46
t-11 55.5zM200 619q14 0 24.5 10.5t10.5 24.5t-10.5 24.5t-24.5 10.5t-24.5 -10.5t-10.5 -24.5t10.5 -24.5t24.5 -10.5z" />
    <glyph glyph-name="uni212B" unicode="&#x212b;" horiz-adv-x="600" 
d="M390 87h-179l-49 -138h-161l225 612h147l226 -611h-160zM400 684q0 -23 -8.5 -41t-23 -30t-32.5 -18.5t-37 -6.5t-37.5 6.5t-32.5 18.5t-23 30t-9 41t9 41t23 30t32.5 18.5t37.5 6.5t37 -6.5t32.5 -18.5t23 -30t8.5 -41zM255 212h90l-45 127zM318 684q0 8 -5.5 13
t-12.5 5q-9 0 -14 -5t-5 -13q0 -18 19 -18q7 0 12.5 5t5.5 13z" />
    <glyph glyph-name="uniFFE0" unicode="&#xffe0;" horiz-adv-x="480" 
d="M232 33q-45 9 -82 29.5t-63.5 54t-41 80.5t-14.5 109q0 60 14.5 106t41 79t63.5 54t82 30v94h124v-89q21 -3 43.5 -10t51.5 -21l-35 -123q-17 7 -31.5 12.5t-28.5 9.5v-282q15 3 32.5 8t38.5 12l25 -122q-28 -12 -50.5 -20t-45.5 -13v-86h-124v88zM186 311
q0 -50 12.5 -80.5t33.5 -47.5v247q-21 -17 -33.5 -45.5t-12.5 -73.5z" />
    <glyph glyph-name="uniFFE1" unicode="&#xffe1;" horiz-adv-x="540" 
d="M286 365h150v-132h-150q-2 -42 -9.5 -80.5t-27.5 -72.5h258v-132h-474v108q30 15 48 34.5t28.5 42t14.5 48t5 52.5h-91v132h91v78q0 121 58 179t171 58q28 0 47.5 -3t35 -8t28 -12.5t26.5 -16.5l-36 -127q-29 19 -50.5 29t-50.5 10q-23 0 -37 -6t-21.5 -18.5t-10.5 -32
t-3 -45.5v-85z" />
    <glyph glyph-name="uniFFE5" unicode="&#xffe5;" horiz-adv-x="600" 
d="M381 75v-134h-165v134h-155v124h155v33h-155v124h111l-179 324h175l131 -259l135 259h175l-183 -324h114v-124h-159v-33h159v-124h-159z" />
    <glyph glyph-name="male" unicode="&#x2642;" horiz-adv-x="630" 
d="M380 329q42 -11 74 -33.5t54 -53t33 -66.5t11 -74q0 -52 -19 -95t-51.5 -74.5t-75.5 -49t-92 -17.5q-48 0 -91 17.5t-75 49t-51 75t-19 94.5q0 37 10.5 72.5t31 66t51.5 53.5t72 34v159l-84 -95l-87 80l242 273l222 -273l-90 -89l-66 88v-142zM416 103q0 48 -26.5 81
t-74.5 33q-47 0 -74 -32.5t-27 -81.5q0 -51 27 -83t74 -32q48 0 74.5 33t26.5 82z" />
    <glyph glyph-name="female" unicode="&#x2640;" horiz-adv-x="630" 
d="M551 496q0 -80 -44.5 -139.5t-120.5 -84.5v-92h161v-127h-161v-184h-145v184h-157v127h157v92q-78 21 -120.5 82t-42.5 142q0 51 17 94.5t48 75t74.5 49t96.5 17.5t97 -18t75 -49.5t48 -74.5t17 -94zM412 496q0 50 -27 81.5t-71 31.5q-43 0 -70.5 -31t-27.5 -82
q0 -54 27.5 -84t70.5 -30q44 0 71 31.5t27 82.5z" />
    <glyph glyph-name="angle" unicode="&#x2220;" horiz-adv-x="800" 
d="M83 -32v82l483 559l106 -79l-368 -437h417v-125h-638z" />
    <glyph glyph-name="perpendicular" unicode="&#x22a5;" horiz-adv-x="800" 
d="M59 -38v126h262v485h157v-485h261v-126h-680z" />
    <glyph glyph-name="uni2312" unicode="&#x2312;" horiz-adv-x="540" 
d="M270 643q-23 0 -40 -12.5t-31 -44.5h-149q27 95 81 135.5t139 40.5t138.5 -40.5t80.5 -135.5h-149q-14 32 -30.5 44.5t-39.5 12.5z" />
    <glyph glyph-name="partialdiff" unicode="&#x2202;" horiz-adv-x="600" 
d="M99 614q53 22 88.5 29.5t73.5 7.5q72 0 126 -28t90 -76t54.5 -113t18.5 -140q0 -84 -20.5 -153t-58 -118.5t-90.5 -76.5t-118 -27q-56 0 -96 19t-66 51t-38.5 74t-12.5 89q0 62 18 112t50 85t76.5 54t98.5 19q30 0 59.5 -7t52.5 -22q-11 36 -27.5 61t-37 40t-44 22
t-46.5 7q-20 0 -48 -6.5t-67 -23.5zM269 45q24 0 44 13t36 36t26.5 54.5t15.5 68.5q2 5 0.5 11t-3.5 11q-10 26 -30 43.5t-45 17.5q-47 0 -75 -33t-34 -90q-2 -21 -0.5 -44.5t8.5 -43t21 -32t36 -12.5z" />
    <glyph glyph-name="gradient" unicode="&#x2207;" horiz-adv-x="940" 
d="M89 602h759l-375 -665zM675 509h-343l174 -307z" />
    <glyph glyph-name="equivalence" unicode="&#x2261;" horiz-adv-x="840" 
d="M119 400v126h600v-126h-600zM119 239v126h600v-126h-600zM119 78v126h600v-126h-600z" />
    <glyph glyph-name="uni2252" unicode="&#x2252;" horiz-adv-x="740" 
d="M69 326v122h601v-122h-601zM69 153v121h601v-121h-601zM286 552q0 -33 -24 -56t-57 -23t-56.5 23t-23.5 56t23.5 56.5t56.5 23.5t57 -23.5t24 -56.5zM614 48q0 -33 -24 -56t-57 -23t-56.5 23t-23.5 56t23.5 56.5t56.5 23.5t57 -23.5t24 -56.5z" />
    <glyph glyph-name="section" unicode="&#xa7;" horiz-adv-x="450" 
d="M79 92q36 -23 66.5 -32t58.5 -9q10 0 21 1.5t20 6.5t14.5 14t5.5 24q0 19 -15.5 33.5t-56.5 31.5q-40 16 -66.5 34.5t-42 40t-22 45.5t-6.5 50q0 34 16 66.5t44 53.5q-31 25 -45.5 55t-14.5 62q0 76 50 116t139 40q44 0 78 -9t68 -33l-39 -122q-26 16 -54 30t-55 14
q-46 0 -46 -33q0 -23 18.5 -38t54.5 -30q76 -31 105.5 -73t29.5 -105q0 -35 -12.5 -63.5t-40.5 -52.5q24 -25 39.5 -56t15.5 -65q0 -70 -50.5 -114.5t-154.5 -44.5q-48 0 -85 11t-77 37zM269 322q0 22 -13 35.5t-44 26.5q-8 -7 -13.5 -19.5t-5.5 -26.5q0 -20 15 -32.5
t49 -27.5q6 8 9 20.5t3 23.5z" />
    <glyph glyph-name="uni203B" unicode="&#x203b;" horiz-adv-x="931" 
d="M173 716l292 -293l293 293l120 -120l-293 -293l293 -292l-120 -120l-293 292l-292 -292l-120 120l292 292l-292 293zM133 397q21 0 40 -8t33 -22t22 -33t8 -40t-8 -40t-22 -33t-33 -22t-40 -8t-40 8t-33 22t-22 33t-8 40t8 40t22 33t33 22t40 8zM788 397q21 0 40 -8
t33 -22t22 -33t8 -40t-8 -40t-22 -33t-33 -22t-40 -8t-40 8t-33 22t-22 33t-8 40t8 40t22 33t33 22t40 8zM465 726q21 0 40 -8t33 -22t22 -33t8 -40t-8 -40t-22 -33t-33 -22t-40 -8t-40 8t-33 22t-22 33t-8 40t8 40t22 33t33 22t40 8zM465 78q21 0 40 -8t33 -22t22 -33
t8 -40t-8 -40t-22 -33t-33 -22t-40 -8t-40 8t-33 22t-22 33t-8 40t8 40t22 33t33 22t40 8z" />
    <glyph glyph-name="uni2606" unicode="&#x2606;" horiz-adv-x="940" 
d="M503 375l-35 119l-34 -119h-167l135 -98l-49 -127l112 86l120 -92l-54 132l140 99h-168zM650 250l109 -338l-292 209l-288 -202l105 335l-258 204h327l115 319l117 -319h328z" />
    <glyph glyph-name="uni2605" unicode="&#x2605;" horiz-adv-x="940" 
d="M650 250l109 -338l-292 209l-288 -202l105 335l-258 204h327l115 319l117 -319h328z" />
    <glyph glyph-name="circle" unicode="&#x25cb;" horiz-adv-x="940" 
d="M881 300q0 -86 -31 -161t-85.5 -130.5t-130 -87.5t-164.5 -32q-84 0 -159 30.5t-131 85t-88.5 130t-32.5 165.5q0 86 31 160.5t85.5 130t130 87t164.5 31.5q85 0 159.5 -30t130.5 -84t88.5 -129.5t32.5 -165.5zM758 300q0 63 -22.5 117.5t-61.5 95t-91.5 64t-112.5 23.5
q-57 0 -109.5 -22t-92 -61.5t-63 -95t-23.5 -121.5q0 -63 22.5 -118t61.5 -96.5t91.5 -65t112.5 -23.5q57 0 109.5 22.5t92 62.5t63 95.5t23.5 122.5z" />
    <glyph glyph-name="H18533" unicode="&#x25cf;" horiz-adv-x="940" 
d="M881 300q0 -86 -31 -161t-85.5 -130.5t-130 -87.5t-164.5 -32q-84 0 -159 30.5t-131 85t-88.5 130t-32.5 165.5q0 86 31 160.5t85.5 130t130 87t164.5 31.5q85 0 159.5 -30t130.5 -84t88.5 -129.5t32.5 -165.5z" />
    <glyph glyph-name="uni25CE" unicode="&#x25ce;" horiz-adv-x="940" 
d="M732 302q0 -54 -19.5 -102t-54.5 -83.5t-83 -56t-105 -20.5q-54 0 -101.5 19.5t-83 54.5t-56 83t-20.5 105q0 54 19.5 101t54.5 82t82.5 55t104.5 20q54 0 101.5 -19t83.5 -53.5t56.5 -81.5t20.5 -104zM616 302q0 33 -10.5 62t-30 51t-46 34.5t-59.5 12.5
q-31 0 -57.5 -12t-46 -33t-30.5 -50.5t-11 -64.5q0 -33 10.5 -63t29.5 -52t45.5 -35t59.5 -13q31 0 58 12t46.5 34t30.5 52t11 65zM881 300q0 -86 -31 -161t-85.5 -130.5t-130 -87.5t-164.5 -32q-84 0 -159 30.5t-131 85t-88.5 130t-32.5 165.5q0 86 31 160.5t85.5 130
t130 87t164.5 31.5q85 0 159.5 -30t130.5 -84t88.5 -129.5t32.5 -165.5zM761 300q0 65 -23 120.5t-62.5 96.5t-92.5 64t-113 23q-57 0 -110 -22t-93 -62t-64 -96t-24 -124q0 -65 23 -121t62.5 -97t92.5 -64.5t113 -23.5q57 0 110 22t93 62.5t64 96.5t24 125z" />
    <glyph glyph-name="uni25C7" unicode="&#x25c7;" horiz-adv-x="940" 
d="M469 -152l-457 456l457 457l459 -457zM768 304l-299 301l-298 -301l298 -299z" />
    <glyph glyph-name="uni25C6" unicode="&#x25c6;" horiz-adv-x="940" 
d="M469 -152l-457 456l457 457l459 -457z" />
    <glyph glyph-name="H22073" unicode="&#x25a1;" horiz-adv-x="940" 
d="M80 -85v774h779v-774h-779zM736 586h-534v-568h534v568z" />
    <glyph glyph-name="filledbox" unicode="&#x25a0;" horiz-adv-x="940" 
d="M80 -85v774h779v-774h-779z" />
    <glyph glyph-name="uni25B3" unicode="&#x25b3;" horiz-adv-x="940" 
d="M473 647l416 -659h-838zM472 438l-223 -350h439z" />
    <glyph glyph-name="triagup" unicode="&#x25b2;" horiz-adv-x="940" 
d="M473 647l416 -659h-838z" />
    <glyph glyph-name="uni25BD" unicode="&#x25bd;" horiz-adv-x="940" 
d="M51 602h838l-416 -659zM688 502h-439l223 -350z" />
    <glyph glyph-name="triagdn" unicode="&#x25bc;" horiz-adv-x="940" 
d="M51 602h838l-416 -659z" />
    <glyph glyph-name="arrowright" unicode="&#x2192;" horiz-adv-x="940" 
d="M634 100v138h-638v124h638v139l310 -201z" />
    <glyph glyph-name="arrowleft" unicode="&#x2190;" horiz-adv-x="940" 
d="M-6 300l310 201v-139h638v-124h-638v-138z" />
    <glyph glyph-name="arrowup" unicode="&#x2191;" horiz-adv-x="800" 
d="M599 466h-138v-626h-124v626h-139l201 310z" />
    <glyph glyph-name="arrowdown" unicode="&#x2193;" horiz-adv-x="800" 
d="M399 -174l-201 310h139v626h124v-626h138z" />
    <glyph glyph-name="arrowboth" unicode="&#x2194;" horiz-adv-x="940" 
d="M643 102v136h-331v-136l-304 198l304 199v-137h331v137l304 -199z" />
    <glyph glyph-name="uni3013" unicode="&#x3013;" horiz-adv-x="940" 
d="M38 352v122h865v-122h-865zM38 113v122h865v-122h-865z" />
    <glyph glyph-name="uni226A" unicode="&#x226a;" horiz-adv-x="940" 
d="M637 31l-64 -92l-512 360l507 371l67 -84l-380 -287zM883 32l-64 -92l-512 360l507 371l67 -84l-380 -287z" />
    <glyph glyph-name="uni226B" unicode="&#x226b;" horiz-adv-x="940" 
d="M685 300l-380 287l67 84l507 -371l-512 -360l-64 92zM439 301l-380 287l67 84l507 -371l-512 -360l-64 92z" />
    <glyph glyph-name="radical" unicode="&#x221a;" horiz-adv-x="520" 
d="M398 -193h-78l-188 432l-81 -53l-60 99l211 127l116 -272l103 637h140z" />
    <glyph glyph-name="uni223D" unicode="&#x223d;" horiz-adv-x="940" 
d="M880 299q0 -45 -14.5 -84.5t-42 -68.5t-67 -45.5t-89.5 -16.5q-15 0 -29.5 1t-30 6t-35 14.5t-44.5 26.5l67 99q29 -18 44.5 -22.5t27.5 -4.5q35 0 51.5 26.5t16.5 68.5q0 39 -16.5 63t-51.5 24q-40 0 -71.5 -32.5t-58.5 -80.5q-23 -41 -47.5 -75.5t-55.5 -59.5
t-70 -39.5t-91 -14.5q-103 0 -158.5 54.5t-55.5 160.5q0 50 16.5 89t45 65.5t67.5 40t85 13.5q16 0 31.5 -1.5t32 -5.5t35.5 -12t43 -21l-60 -108q-20 10 -32.5 16t-21.5 8.5t-15.5 3t-13.5 0.5q-35 0 -52.5 -22.5t-17.5 -64.5q0 -43 17 -68.5t52 -23.5q49 2 77 31.5
t57 86.5q23 45 47.5 79t55 56.5t69.5 34t90 11.5q52 0 92 -16t67 -43.5t40.5 -65.5t13.5 -83z" />
    <glyph glyph-name="proportional" unicode="&#x221d;" horiz-adv-x="940" 
d="M847 139q-44 -31 -78 -42.5t-73 -11.5q-29 0 -55.5 9t-50 23.5t-43 33t-35.5 38.5q-41 -51 -91 -77.5t-108 -26.5q-46 0 -84 17.5t-65.5 46.5t-43 68t-15.5 83q0 46 15 85.5t42 69t66 46t87 16.5q59 0 109.5 -25.5t88.5 -74.5q35 45 79.5 72.5t104.5 27.5
q41 0 74.5 -11.5t75.5 -40.5l-62 -110q-18 12 -30.5 19.5t-22.5 12t-19 6.5t-18 2q-31 0 -57.5 -28.5t-49.5 -65.5q9 -17 21 -34t26.5 -30.5t30.5 -21.5t33 -8q14 0 34 6t52 35zM313 206q38 0 65 27t51 70q-22 39 -50 66.5t-65 27.5q-32 0 -50 -29t-18 -68q0 -18 5 -34.5
t14 -30t21 -21.5t27 -8z" />
    <glyph glyph-name="uni2235" unicode="&#x2235;" horiz-adv-x="940" 
d="M569 116q0 -20 -8 -37t-21.5 -30t-32 -20.5t-39.5 -7.5t-39.5 7.5t-32 20.5t-21.5 30t-8 37q0 19 8 36.5t21.5 31t32 21t39.5 7.5t39.5 -7.5t32 -21t21.5 -31t8 -36.5zM337 516q0 -20 -8 -37t-21.5 -30t-32 -20.5t-39.5 -7.5t-39.5 7.5t-32 20.5t-21.5 30t-8 37
q0 19 8 36.5t21.5 31t32 21t39.5 7.5t39.5 -7.5t32 -21t21.5 -31t8 -36.5zM804 516q0 -20 -8 -37t-21.5 -30t-32 -20.5t-39.5 -7.5t-39.5 7.5t-32 20.5t-21.5 30t-8 37q0 19 8 36.5t21.5 31t32 21t39.5 7.5t39.5 -7.5t32 -21t21.5 -31t8 -36.5z" />
    <glyph glyph-name="integral" unicode="&#x222b;" horiz-adv-x="440" 
d="M309 29q4 -82 -36 -128t-125 -46q-11 0 -19.5 0.5t-18 2t-22.5 4.5t-32 8v130q37 -14 51.5 -16t22.5 -2q18 0 24 11t4 34l-27 543q-5 86 34 130t127 44q11 0 20 -0.5t19.5 -2t23 -4.5t31.5 -8v-134q-34 12 -51 17t-25 5q-31 0 -28 -45z" />
    <glyph glyph-name="uni222C" unicode="&#x222c;" horiz-adv-x="680" 
d="M301 29q4 -82 -36 -128t-125 -46q-11 0 -19 0.5t-17 2t-21.5 4t-31.5 7.5v130q18 -7 30 -10.5t19.5 -5t12.5 -1.5h9q18 0 24 11t4 34l-27 543q-5 86 34 130t127 44q11 0 19.5 -0.5t17.5 -2t20 -3.5t27 -6v-131q-17 6 -28 9t-18 4.5t-11.5 2t-8.5 0.5q-31 0 -28 -45z
M568 29q4 -82 -36 -128t-125 -46q-11 0 -19 0.5t-17 2t-21.5 4t-31.5 7.5v130q18 -7 30 -10.5t19.5 -5t12.5 -1.5h9q18 0 24 11t4 34l-27 543q-5 86 34 130t127 44q11 0 19.5 -0.5t17.5 -2t20 -3.5t27 -6v-131q-17 6 -28 9t-18 4.5t-11.5 2t-8.5 0.5q-31 0 -28 -45z" />
    <glyph glyph-name="element" unicode="&#x2208;" horiz-adv-x="940" 
d="M375 1q-68 0 -117.5 23t-81.5 63t-48 95t-16 118q0 64 18.5 116.5t53.5 90t85 58.5t113 21h446v-127h-448q-47 0 -71.5 -27t-35.5 -74h555v-128h-555q11 -45 35 -73.5t66 -28.5h454v-127h-453z" />
    <glyph glyph-name="suchthat" unicode="&#x220b;" horiz-adv-x="940" 
d="M112 1v127h454q42 0 66 28.5t35 73.5h-555v128h555q-11 47 -35.5 74t-71.5 27h-448v127h446q63 0 113 -21t85 -58.5t53.5 -90t18.5 -116.5q0 -63 -16 -118t-48 -95t-82 -63t-117 -23h-453z" />
    <glyph glyph-name="reflexsubset" unicode="&#x2286;" horiz-adv-x="940" 
d="M120 -41v127h701v-127h-701zM338 133q-118 0 -173.5 61.5t-55.5 170.5t62 166t174 57h476v-128h-478q-47 0 -67.5 -23.5t-20.5 -75.5q0 -48 19.5 -74.5t63.5 -26.5h483v-127h-483z" />
    <glyph glyph-name="reflexsuperset" unicode="&#x2287;" horiz-adv-x="940" 
d="M108 -41v127h702v-127h-702zM108 133v127h484q44 0 63.5 26.5t19.5 74.5q0 52 -20.5 75.5t-67.5 23.5h-479v128h477q112 0 174 -57t62 -166t-55.5 -170.5t-173.5 -61.5h-484z" />
    <glyph glyph-name="propersubset" unicode="&#x2282;" horiz-adv-x="940" 
d="M377 0q-68 0 -117.5 23t-82.5 63.5t-49 95.5t-16 118q0 64 18.5 117t53.5 91t85 59t113 21h444v-127h-446q-54 0 -84.5 -40t-30.5 -121q0 -93 30 -133t81 -40h450v-127h-449z" />
    <glyph glyph-name="propersuperset" unicode="&#x2283;" horiz-adv-x="940" 
d="M112 0v127h450q51 0 81 40t30 133q0 81 -30.5 121t-84.5 40h-446v127h444q63 0 113 -21t85 -59t53.5 -91t18.5 -117q0 -63 -16 -118t-49 -95.5t-83 -63.5t-117 -23h-449z" />
    <glyph glyph-name="union" unicode="&#x222a;" horiz-adv-x="800" 
d="M684 233q0 -65 -20 -117.5t-57 -90t-89.5 -58t-117.5 -20.5q-70 0 -123 20.5t-89 58.5t-54 91t-18 118v427h153v-418q0 -80 28.5 -124.5t102.5 -44.5t102.5 45.5t28.5 125.5v416h153v-429z" />
    <glyph glyph-name="intersection" unicode="&#x2229;" horiz-adv-x="800" 
d="M684 -53h-153v416q0 40 -6.5 71.5t-22 53.5t-40.5 34t-62 12q-74 0 -102.5 -44.5t-28.5 -124.5v-418h-153v427q0 65 18 118t54 91t89 58.5t123 20.5q65 0 117.5 -20.5t89.5 -58t57 -90.5t20 -117v-429z" />
    <glyph glyph-name="logicaland" unicode="&#x2227;" horiz-adv-x="940" 
d="M825 -33h-160l-194 407l-197 -406h-162l359 703z" />
    <glyph glyph-name="logicalor" unicode="&#x2228;" horiz-adv-x="940" 
d="M471 -65l-359 703h162l197 -406l194 407h160z" />
    <glyph glyph-name="uniFFE2" unicode="&#xffe2;" horiz-adv-x="940" 
d="M919 -177h-158v223h-741v127h899v-350z" />
    <glyph glyph-name="arrowdblright" unicode="&#x21d2;" horiz-adv-x="940" 
d="M593 139h-570v122h691l39 39l-40 40h-690v121h569l-51 51l85 94l302 -306l-299 -307l-85 96z" />
    <glyph glyph-name="arrowdblboth" unicode="&#x21d4;" horiz-adv-x="940" 
d="M593 139h-250l50 -50l-85 -96l-299 307l302 306l85 -94l-51 -51h247l-51 51l85 94l302 -306l-299 -307l-85 96zM222 261h492l39 39l-40 40h-489l-40 -40z" />
    <glyph glyph-name="universal" unicode="&#x2200;" horiz-adv-x="600" 
d="M162 681l48 -167h177l47 167h167l-221 -733h-161l-223 733h166zM351 389h-104l53 -183z" />
    <glyph glyph-name="existential" unicode="&#x2203;" horiz-adv-x="560" 
d="M66 259v132h262v157h-277v133h442v-733h-458v133h293v178h-262z" />
    <glyph glyph-name="acute" unicode="&#xb4;" horiz-adv-x="400" 
d="M175 761h165l-135 -172h-127z" />
    <glyph glyph-name="caron" unicode="&#x2c7;" horiz-adv-x="360" 
d="M233 588h-109l-101 173h132l26 -50l23 50h131z" />
    <glyph glyph-name="breve" unicode="&#x2d8;" horiz-adv-x="375" 
d="M326 761q-5 -79 -41 -110.5t-96 -31.5q-63 0 -98 35t-40 107h118q2 -28 8 -34.5t12 -6.5q7 0 12.5 6.5t6.5 34.5h118v0z" />
    <glyph glyph-name="hungarumlaut" unicode="&#x2dd;" horiz-adv-x="440" 
d="M119 761h137l-134 -172h-101zM270 761h137l-134 -172h-101z" />
    <glyph glyph-name="ring" unicode="&#x2da;" horiz-adv-x="300" 
d="M254 676q0 -24 -9 -43t-24 -33t-33.5 -21.5t-37.5 -7.5t-38 7.5t-34 21.5t-24 33t-9 43t9 43t24 32.5t34 21t38 7.5t37.5 -7.5t33.5 -21t24 -32.5t9 -43zM168 676q0 8 -5.5 13.5t-12.5 5.5q-8 0 -13.5 -5.5t-5.5 -13.5q0 -19 19 -19q7 0 12.5 5.5t5.5 13.5z" />
    <glyph glyph-name="dotaccent" unicode="&#x2d9;" horiz-adv-x="300" 
d="M80 632v140h140v-140h-140z" />
    <glyph glyph-name="cedilla" unicode="&#xb8;" horiz-adv-x="300" 
d="M209 -8l-15 -36q28 -11 42 -32t14 -47q0 -21 -9 -35.5t-24.5 -23.5t-36 -13t-43.5 -4q-50 0 -88 22l25 65q20 -9 31.5 -11.5t19.5 -3.5q12 -1 15.5 1t4.5 6q2 9 -17 15t-53 8l47 109z" />
    <glyph glyph-name="ogonek" unicode="&#x2db;" horiz-adv-x="300" 
d="M214 -64q-28 -5 -46 -20t-12 -29q3 -8 17 -8q19 0 50 19l25 -66q-23 -16 -49 -23t-49 -7q-19 0 -37 3.5t-32 12.5t-22.5 24.5t-8.5 38.5q0 19 9.5 40t27.5 39t44 31.5t59 17.5z" />
    <glyph glyph-name="exclamdown" unicode="&#xa1;" horiz-adv-x="240" 
d="M197 291l8 -518h-171l7 518h156zM200 499v-160h-165v160h165z" />
    <glyph glyph-name="questiondown" unicode="&#xbf;" horiz-adv-x="440" 
d="M314 267q0 -21 -2 -45t-9.5 -49t-21.5 -51t-38 -53q-33 -37 -46.5 -65.5t-13.5 -58.5q0 -24 13 -35.5t33 -11.5q14 0 26 3t24.5 11.5t27 23.5t33.5 39l84 -111q-26 -27 -49 -45.5t-47 -30t-50.5 -16t-57.5 -4.5q-50 0 -87 12.5t-61 34.5t-36 52t-12 66q0 52 25.5 103.5
t62.5 95.5q26 31 36 66t10 70v49h156v-50zM320 502v-160h-169v160h169z" />
    <glyph glyph-name="uni02D0" unicode="&#x2d0;" horiz-adv-x="300" 
d="M152 337l-125 211h243zM152 263l-125 -211h243z" />
    <glyph glyph-name="uni222E" unicode="&#x222e;" horiz-adv-x="600" 
d="M381 479q59 -18 93.5 -63t34.5 -114q0 -81 -45.5 -128t-120.5 -58l-9 -89q-4 -36 -13 -67t-28 -54t-50 -36t-77 -13h-18t-17.5 1.5t-23.5 5t-37 9.5l20 127q34 -14 47 -15t21 -1q47 0 53 49l10 91q-58 19 -92.5 64t-34.5 114q0 79 45.5 126.5t120.5 58.5l10 90
q4 36 13 66.5t27.5 53t49 35t77.5 12.5q20 0 38 -4.5t53 -14.5l-17 -127q-29 14 -43 16.5t-23 2.5q-20 0 -36 -11t-19 -39zM214 303q0 -37 20 -59l13 126q-15 -11 -24 -27.5t-9 -39.5zM386 302q0 33 -18 54l-13 -122q31 22 31 68z" />
    <glyph glyph-name="summation" unicode="&#x2211;" horiz-adv-x="700" 
d="M59 -52v71l274 293l-274 273v95h579v-134h-335l232 -223l-226 -240h330v-135h-580z" />
    <glyph glyph-name="product" unicode="&#x220f;" horiz-adv-x="688" 
d="M574 549v-612h-170v612h-131v-612h-167v612h-99v131h666v-131h-99z" />
    <glyph glyph-name="currency" unicode="&#xa4;" horiz-adv-x="560" 
d="M278 554q32 0 58 -8.5t46 -19.5l73 78l90 -91l-84 -71q13 -22 20 -47.5t7 -58.5q0 -38 -6.5 -65t-19.5 -50l79 -74l-89 -88l-73 79q-22 -13 -49 -20.5t-54 -7.5t-52.5 7t-48.5 20l-72 -79l-89 87l81 73q-14 23 -21.5 50t-7.5 62t8 64.5t22 52.5l-81 69l88 90l75 -79
q20 11 46 19t54 8zM277 434q-32 0 -49 -30t-17 -73q0 -26 6 -45t15.5 -31t21 -18t22.5 -6q25 0 46 24t21 80q0 18 -4 36t-12 32t-20.5 22.5t-29.5 8.5z" />
    <glyph glyph-name="uni2109" unicode="&#x2109;" horiz-adv-x="970" 
d="M50 654q0 28 11.5 54t31.5 45.5t47.5 31t59.5 11.5q31 0 58.5 -11.5t47.5 -31t31.5 -45.5t11.5 -54q0 -29 -11.5 -55t-31.5 -45.5t-47.5 -31.5t-58.5 -12q-33 0 -60.5 11.5t-47.5 31t-31 46t-11 55.5zM200 619q14 0 24.5 10.5t10.5 24.5t-10.5 24.5t-24.5 10.5
t-24.5 -10.5t-10.5 -24.5t10.5 -24.5t24.5 -10.5zM921 358v-172h-323v-301h-208v757h550v-172h-342v-112h323z" />
    <glyph glyph-name="perthousand" unicode="&#x2030;" horiz-adv-x="940" 
d="M158 554q-3 0 -5 -3t-3.5 -12.5t-2.5 -27.5t-1 -47q0 -26 1 -42t2.5 -25t4 -12t5.5 -3q2 0 4 3t3.5 12t2.5 25t1 42q0 29 -1 47t-2.5 27.5t-3.5 12.5t-5 3zM411 682h107l-271 -731h-107zM158 276q-67 0 -98 47t-31 141q0 93 30.5 144.5t98.5 51.5t98.5 -51.5t30.5 -144.5
q0 -94 -31 -141t-98 -47zM501 252q-3 0 -5 -3t-3.5 -12.5t-2.5 -27.5t-1 -47q0 -26 1 -42t2.5 -25t4 -12t5.5 -3q2 0 4 3t3.5 12t2.5 25t1 42q0 29 -1 47t-2.5 27.5t-3.5 12.5t-5 3zM501 -26q-67 0 -98 47t-31 141q0 93 30.5 144.5t98.5 51.5t98.5 -51.5t30.5 -144.5
q0 -94 -31 -141t-98 -47zM781 252q-3 0 -5 -3t-3.5 -12.5t-2.5 -27.5t-1 -47q0 -26 1 -42t2.5 -25t4 -12t5.5 -3q2 0 4 3t3.5 12t2.5 25t1 42q0 29 -1 47t-2.5 27.5t-3.5 12.5t-5 3zM781 -26q-67 0 -98 47t-31 141q0 93 30.5 144.5t98.5 51.5t98.5 -51.5t30.5 -144.5
q0 -94 -31 -141t-98 -47z" />
    <glyph glyph-name="uni25C1" unicode="&#x25c1;" horiz-adv-x="940" 
d="M141 302l650 405v-807zM334 301l345 -210v422z" />
    <glyph glyph-name="uni25C0" unicode="&#x25c0;" horiz-adv-x="940" 
d="M141 302l650 405v-807z" />
    <glyph glyph-name="uni25B7" unicode="&#x25b7;" horiz-adv-x="940" 
d="M149 -100v807l650 -405zM261 513v-422l345 210z" />
    <glyph glyph-name="uni25B6" unicode="&#x25b6;" horiz-adv-x="940" 
d="M149 -100v807l650 -405z" />
    <glyph glyph-name="uni2664" unicode="&#x2664;" horiz-adv-x="940" 
d="M611 -135h-282v58q6 10 11.5 25.5t11 32.5t10 35t7.5 34q-25 -11 -52 -18.5t-43 -7.5q-75 0 -114 46.5t-39 121.5q0 84 88 223.5t261 325.5q173 -186 260.5 -325.5t87.5 -223.5q0 -75 -38.5 -122t-113.5 -47q-17 0 -43.5 6.5t-53.5 19.5q7 -33 18 -67.5t24 -58.5v-58z
M716 193q0 39 -25.5 93.5t-63 112.5t-80 112.5t-77.5 92.5q-35 -38 -77.5 -92.5t-80 -112.5t-63 -112.5t-25.5 -93.5q0 -33 10.5 -56.5t39.5 -23.5q17 0 36 8t55 30q11 7 23.5 11.5t26.5 4.5q24 0 35.5 -13.5t11.5 -46.5q0 -34 -8.5 -77t-20.5 -78v-3h73v3q-11 35 -19 78
t-8 77q0 33 11 46.5t35 13.5q14 0 26.5 -4.5t23.5 -11.5q36 -22 56.5 -30t34.5 -8q29 0 39.5 23.5t10.5 56.5z" />
    <glyph glyph-name="spade" unicode="&#x2660;" horiz-adv-x="940" 
d="M611 -135h-282v58q6 10 11.5 25.5t11 32.5t10 35t7.5 34q-25 -11 -52 -18.5t-43 -7.5q-75 0 -114 46.5t-39 121.5q0 84 88 223.5t261 325.5q173 -186 260.5 -325.5t87.5 -223.5q0 -75 -38.5 -122t-113.5 -47q-17 0 -43.5 6.5t-53.5 19.5q7 -33 18 -67.5t24 -58.5v-58z
" />
    <glyph glyph-name="uni2661" unicode="&#x2661;" horiz-adv-x="993" 
d="M499 -106q-91 55 -172 124.5t-141.5 143t-96 147t-35.5 136.5q0 48 17 93t47 79t72 54.5t92 20.5q32 0 65 -8t62 -24t52.5 -38.5t37.5 -51.5q14 29 37.5 51.5t52.5 38.5t62 24t65 8q50 0 92 -20.5t72 -54.5t47 -79t17 -93q0 -63 -35.5 -136.5t-96 -147t-141.5 -143
t-172 -124.5zM499 10q66 47 126.5 100.5t107 109t74 110t27.5 104.5q0 42 -11.5 72t-30.5 49.5t-44 29t-52 9.5t-49 -8t-39 -21t-30.5 -30t-23.5 -34q-11 -19 -25.5 -37.5t-29.5 -18.5t-29.5 18t-25.5 37q-11 17 -24 34t-30.5 30.5t-39 21.5t-48.5 8t-52 -9.5t-44 -29
t-30.5 -49.5t-11.5 -72q0 -50 27.5 -104.5t74 -110t107 -109t126.5 -100.5z" />
    <glyph glyph-name="heart" unicode="&#x2665;" horiz-adv-x="993" 
d="M499 -106q-91 55 -172 124.5t-141.5 143t-96 147t-35.5 136.5q0 48 17 93t47 79t72 54.5t92 20.5q32 0 65 -8t62 -24t52.5 -38.5t37.5 -51.5q14 29 37.5 51.5t52.5 38.5t62 24t65 8q50 0 92 -20.5t72 -54.5t47 -79t17 -93q0 -63 -35.5 -136.5t-96 -147t-141.5 -143
t-172 -124.5z" />
    <glyph glyph-name="uni2667" unicode="&#x2667;" horiz-adv-x="940" 
d="M329 -76q15 29 30.5 56t23.5 60q3 13 3.5 17.5t-2.5 5.5q-6 2 -14 -6t-16 -14q-29 -23 -55 -33.5t-65 -10.5q-42 0 -77 17t-59.5 45t-38.5 64.5t-14 75.5q0 40 14 76t38.5 63.5t58 43.5t73.5 16q27 0 54.5 -10t59.5 -28q5 -3 12.5 -6t11.5 4t-0.5 11t-9.5 9
q-23 21 -39.5 38.5t-27 37t-16 42t-5.5 53.5q0 40 17.5 73.5t45.5 57.5t64 37t74 13q37 0 73.5 -13t64.5 -37t45.5 -57.5t17.5 -73.5q0 -31 -6 -54t-18 -42.5t-29.5 -37.5t-39.5 -39l-8.5 -8.5t0.5 -10.5t11 -4.5t12 5.5q32 18 61.5 29t56.5 11q37 0 70.5 -15.5t59 -42
t40 -63t14.5 -78.5t-14 -78.5t-39.5 -64t-60 -43.5t-75.5 -16q-39 0 -65 11t-54 34q-8 6 -16 12.5t-14 5.5q-5 -1 -3.5 -4.5t4.5 -16.5q8 -33 23 -60.5t30 -56.5v-49h-282v49zM508 -44v2q-15 37 -22.5 80t-7.5 77q0 27 13 41t33 14q27 0 47 -18q29 -27 58.5 -46.5
t68.5 -19.5q50 0 78.5 34t28.5 85q0 23 -7.5 44t-21 37t-32.5 25.5t-41 9.5q-39 0 -80 -22q-14 -8 -32 -13.5t-35.5 -6t-34 5.5t-27.5 21q-19 26 -13.5 53t27.5 49q19 19 33 34.5t23 31t13 32.5t4 41q0 46 -31.5 75t-79.5 29t-79 -29t-31 -75q0 -24 4 -41t12.5 -32.5t22 -31
t33.5 -34.5q20 -20 26 -50t-12 -54q-11 -14 -26.5 -20t-33.5 -5t-36 6.5t-33 13.5q-40 22 -80 22q-23 0 -41.5 -9.5t-32 -25.5t-21 -37t-7.5 -44q0 -51 28.5 -85t78.5 -34q39 0 68.5 19.5t58.5 46.5q19 18 47 18q20 0 33 -14t13 -41q0 -17 -2 -37t-6 -41t-9.5 -41t-12.5 -38
v-2h76z" />
    <glyph glyph-name="club" unicode="&#x2663;" horiz-adv-x="940" 
d="M329 -76q15 29 30.5 56t23.5 60q3 13 3.5 17.5t-2.5 5.5q-6 2 -14 -6t-16 -14q-29 -23 -55 -33.5t-65 -10.5q-42 0 -77 17t-59.5 45t-38.5 64.5t-14 75.5q0 40 14 76t38.5 63.5t58 43.5t73.5 16q27 0 54.5 -10t59.5 -28q5 -3 12.5 -6t11.5 4t-0.5 11t-9.5 9
q-23 21 -39.5 38.5t-27 37t-16 42t-5.5 53.5q0 40 17.5 73.5t45.5 57.5t64 37t74 13q37 0 73.5 -13t64.5 -37t45.5 -57.5t17.5 -73.5q0 -31 -6 -54t-18 -42.5t-29.5 -37.5t-39.5 -39l-8.5 -8.5t0.5 -10.5t11 -4.5t12 5.5q32 18 61.5 29t56.5 11q37 0 70.5 -15.5t59 -42
t40 -63t14.5 -78.5t-14 -78.5t-39.5 -64t-60 -43.5t-75.5 -16q-39 0 -65 11t-54 34q-8 6 -16 12.5t-14 5.5q-5 -1 -3.5 -4.5t4.5 -16.5q8 -33 23 -60.5t30 -56.5v-49h-282v49z" />
    <glyph glyph-name="uni2299" unicode="&#x2299;" horiz-adv-x="940" 
d="M881 300q0 -86 -31 -161t-85.5 -130.5t-130 -87.5t-164.5 -32q-84 0 -159 30.5t-131 85t-88.5 130t-32.5 165.5q0 86 31 160.5t85.5 130t130 87t164.5 31.5q85 0 159.5 -30t130.5 -84t88.5 -129.5t32.5 -165.5zM758 300q0 63 -22.5 117.5t-61.5 95t-91.5 64t-112.5 23.5
q-57 0 -109.5 -22t-92 -61.5t-63 -95t-23.5 -121.5q0 -63 22.5 -118t61.5 -96.5t91.5 -65t112.5 -23.5q57 0 109.5 22.5t92 62.5t63 95.5t23.5 122.5zM624 300q0 -31 -12.5 -59t-33.5 -49t-49.5 -33t-59.5 -12q-32 0 -60 12t-49 33t-33.5 49t-12.5 59q0 33 12.5 61
t33.5 48.5t49 32t60 11.5q31 0 59 -11.5t49.5 -32t34 -48.5t12.5 -61z" />
    <glyph glyph-name="uni25C8" unicode="&#x25c8;" horiz-adv-x="940" 
d="M469 -152l-460 456l460 458l460 -458zM772 304l-303 305l-304 -305l304 -302zM469 40l-264 264l264 264l264 -264z" />
    <glyph glyph-name="uni25A3" unicode="&#x25a3;" horiz-adv-x="940" 
d="M82 -85v774h777v-774h-777zM736 586h-532v-568h532v568zM682 93h-423v417h423v-417z" />
    <glyph glyph-name="uni25D0" unicode="&#x25d0;" horiz-adv-x="940" 
d="M880 302q0 -89 -31 -164.5t-86 -130t-131 -85.5t-167 -31q-88 0 -162.5 30.5t-128.5 85.5t-84.5 130.5t-30.5 164.5t30.5 164t84.5 129t128.5 84.5t162.5 30.5q91 0 167 -30.5t131 -85t86 -129.5t31 -163zM776 301q0 61 -20 114.5t-55.5 95t-84.5 68.5t-107 35v-627
q57 7 106 34.5t85 69.5t56 95.5t20 114.5z" />
    <glyph glyph-name="uni25D1" unicode="&#x25d1;" horiz-adv-x="940" 
d="M59 302q0 88 31 163t86 129.5t131 85t167 30.5q88 0 162.5 -30.5t128.5 -84.5t84.5 -129t30.5 -164t-30.5 -164.5t-84.5 -130.5t-128.5 -85.5t-162.5 -30.5q-91 0 -167 31t-131 85.5t-86 130t-31 164.5zM163 301q0 -61 20 -114.5t56 -95.5t85 -69.5t106 -34.5v627
q-58 -8 -107 -35t-84.5 -68.5t-55.5 -95t-20 -114.5z" />
    <glyph glyph-name="shade" unicode="&#x2592;" horiz-adv-x="940" 
d="M886 680q0 -15 -10 -24t-23 -9q-15 0 -25.5 9t-10.5 24t10.5 24.5t25.5 9.5q13 0 23 -9.5t10 -24.5zM759 680q0 -15 -10 -24t-25 -9t-25 9t-10 24t10 25t25 10t25 -10t10 -25zM886 553q0 -15 -10 -25t-23 -10q-15 0 -25.5 9.5t-10.5 25.5q0 15 10.5 24.5t25.5 9.5
q13 0 23 -9.5t10 -24.5zM632 680q0 -15 -9.5 -24t-24.5 -9t-25 9t-10 24t10 25t25 10t24.5 -10t9.5 -25zM759 554q0 -16 -10 -26t-25 -10t-25 10t-10 26q0 15 10 24.5t25 9.5t25 -9.5t10 -24.5zM886 425q0 -15 -10 -24.5t-23 -9.5q-15 0 -25.5 9.5t-10.5 24.5t10.5 25
t25.5 10q13 0 23 -10t10 -25zM632 554q0 -16 -9.5 -26t-24.5 -10t-25 10t-10 26q0 15 10 24.5t25 9.5t24.5 -9.5t9.5 -24.5zM504 680q0 -15 -9.5 -24t-25.5 -9q-14 0 -23.5 9t-9.5 24t9.5 24.5t23.5 9.5q16 0 25.5 -9.5t9.5 -24.5zM759 426q0 -16 -10 -25.5t-25 -9.5t-25 10
t-10 25t10 24.5t25 9.5t25 -9.5t10 -24.5zM886 297q0 -13 -10 -23t-23 -10q-15 0 -25.5 10t-10.5 23q0 15 10.5 25t25.5 10q13 0 23 -10t10 -25zM632 426q0 -15 -9.5 -25t-24.5 -10t-25 10t-10 25t10 24.5t25 9.5t24.5 -9.5t9.5 -24.5zM504 553q0 -16 -9.5 -25.5t-25.5 -9.5
q-14 0 -23.5 10t-9.5 25t9.5 24.5t23.5 9.5q16 0 25.5 -9.5t9.5 -24.5zM886 171q0 -14 -10 -24.5t-23 -10.5q-15 0 -25.5 10.5t-10.5 24.5t10.5 24t25.5 10q13 0 23 -10t10 -24zM376 680q0 -15 -9.5 -24t-25.5 -9q-15 0 -24.5 9t-9.5 24t9.5 24.5t24.5 9.5q16 0 25.5 -9.5
t9.5 -24.5zM758 297q0 -13 -9.5 -23t-24.5 -10t-25 10t-10 23q0 15 10 25t25 10t24.5 -10t9.5 -25zM504 425q0 -15 -9.5 -24.5t-25.5 -9.5q-14 0 -23.5 9.5t-9.5 24.5t9.5 25t23.5 10q16 0 25.5 -10t9.5 -25zM631 297q0 -13 -9 -23t-24 -10t-25 10t-10 23q0 15 10 25t25 10
t24 -10t9 -25zM887 43q0 -14 -10 -24.5t-23 -10.5q-17 0 -27 10.5t-10 24.5q0 16 10 26t27 10q13 0 23 -10.5t10 -25.5zM250 680q0 -15 -10.5 -24t-25.5 -9t-25 9t-10 24t10 25t25 10t25.5 -10t10.5 -25zM376 553q0 -16 -9.5 -25.5t-25.5 -9.5q-15 0 -24.5 10t-9.5 25
t9.5 24.5t24.5 9.5q16 0 25.5 -9.5t9.5 -24.5zM758 171q0 -14 -9.5 -24.5t-24.5 -10.5t-25 10.5t-10 24.5t10 24t25 10t24.5 -10t9.5 -24zM504 297q0 -13 -9.5 -23t-25.5 -10q-14 0 -23.5 10t-9.5 23q0 15 9.5 25t23.5 10q16 0 25.5 -10t9.5 -25zM631 171q0 -14 -9 -24.5
t-24 -10.5t-25 10.5t-10 24.5t10 24t25 10t24 -10t9 -24zM887 -84q0 -15 -10 -25t-23 -10q-17 0 -27 10t-10 25q0 14 10 24t27 10q13 0 23 -10t10 -24zM250 554q0 -16 -10.5 -26t-25.5 -10t-25 10t-10 26q0 15 10 24.5t25 9.5t25.5 -9.5t10.5 -24.5zM376 425
q0 -15 -9.5 -24.5t-25.5 -9.5q-15 0 -24.5 9.5t-9.5 24.5t9.5 25t24.5 10q16 0 25.5 -10t9.5 -25zM759 43q0 -14 -10 -24.5t-25 -10.5q-14 0 -24.5 10.5t-10.5 24.5q0 15 10 25.5t25 10.5t25 -10.5t10 -25.5zM121 680q0 -15 -10.5 -24t-25.5 -9q-13 0 -23 9t-10 24t10 24.5
t23 9.5q15 0 25.5 -9.5t10.5 -24.5zM504 171q0 -14 -9.5 -24.5t-25.5 -10.5q-14 0 -23.5 10.5t-9.5 24.5t9.5 24t23.5 10q16 0 25.5 -10t9.5 -24zM632 43q0 -14 -9.5 -24.5t-24.5 -10.5t-25 10.5t-10 24.5q0 15 10 25.5t25 10.5t24.5 -10.5t9.5 -25.5zM250 426
q0 -15 -10.5 -25t-25.5 -10t-25 9.5t-10 25.5q0 15 10 24.5t25 9.5t25.5 -9.5t10.5 -24.5zM376 297q0 -13 -9.5 -23t-25.5 -10q-15 0 -24.5 10t-9.5 23q0 15 9.5 25t24.5 10q16 0 25.5 -10t9.5 -25zM759 -84q0 -15 -10 -25t-25 -10q-14 0 -24.5 10.5t-10.5 24.5t10 24t25 10
t25 -10t10 -24zM121 553q0 -15 -10.5 -25t-25.5 -10q-13 0 -23 10t-10 25t10 24.5t23 9.5q15 0 25.5 -9.5t10.5 -24.5zM505 43q0 -14 -9.5 -24.5t-26.5 -10.5q-14 0 -23.5 10.5t-9.5 24.5q0 15 9.5 25.5t23.5 10.5q17 0 26.5 -10t9.5 -26zM632 -84q0 -14 -9.5 -24.5
t-24.5 -10.5t-25 10.5t-10 24.5t10 24t25 10t24.5 -10t9.5 -24zM376 171q0 -14 -9.5 -24.5t-25.5 -10.5q-15 0 -24.5 10.5t-9.5 24.5t9.5 24t24.5 10q16 0 25.5 -10t9.5 -24zM121 424q0 -14 -10.5 -23.5t-25.5 -9.5q-13 0 -23 9.5t-10 23.5q0 17 10 26.5t23 9.5
q15 0 25.5 -9.5t10.5 -26.5zM249 297q0 -13 -10.5 -23t-24.5 -10q-15 0 -25 10t-10 23q0 15 10 25t25 10t25 -10t10 -25zM505 -84q0 -15 -9.5 -25t-26.5 -10q-14 0 -23.5 10t-9.5 25q0 14 9.5 24t23.5 10q17 0 26.5 -10t9.5 -24zM377 43q0 -14 -9.5 -24.5t-25.5 -10.5
q-15 0 -25 10.5t-10 24.5q0 15 10 25.5t25 10.5q16 0 25.5 -10.5t9.5 -25.5zM249 171q0 -14 -10.5 -24.5t-24.5 -10.5q-15 0 -25 10.5t-10 24.5t10 24t25 10t25 -10t10 -24zM121 296q0 -14 -10.5 -23.5t-25.5 -9.5q-13 0 -23 9.5t-10 23.5q0 15 10 24.5t23 9.5
q15 0 25.5 -9.5t10.5 -24.5zM377 -84q0 -15 -9.5 -25t-25.5 -10q-15 0 -25 10t-10 25q0 14 10 24t25 10q16 0 25.5 -10t9.5 -24zM250 43q0 -14 -10.5 -24.5t-25.5 -10.5t-25 10.5t-10 24.5q0 15 10 25.5t25 10.5t25.5 -10.5t10.5 -25.5zM121 171q0 -14 -10.5 -24.5
t-25.5 -10.5q-13 0 -23 10.5t-10 24.5t10 23.5t23 9.5q36 0 36 -33zM250 -84q0 -14 -10.5 -24.5t-25.5 -10.5t-25 10t-10 25q0 14 10 24t25 10t25.5 -10t10.5 -24zM121 43q0 -14 -10.5 -24.5t-25.5 -10.5q-13 0 -23 10.5t-10 24.5t10 24t23 10q15 0 25.5 -10t10.5 -24z
M121 -84q0 -15 -10.5 -25t-25.5 -10q-13 0 -23 10t-10 25q0 14 10 24t23 10q15 0 25.5 -10t10.5 -24z" />
    <glyph glyph-name="uni25A4" unicode="&#x25a4;" horiz-adv-x="940" 
d="M52 -118v829h835v-829h-835zM851 676h-764v-78h764v78zM851 562h-764v-83h764v83zM851 445h-764v-74h764v74zM851 334h-764v-79h764v79zM851 219h-764v-81h764v81zM851 103h-764v-75h764v75zM851 -8h-764v-74h764v74z" />
    <glyph glyph-name="uni25A5" unicode="&#x25a5;" horiz-adv-x="940" 
d="M52 -118v828h835v-828h-835zM852 674h-77v-756h77v756zM740 674h-74v-756h74v756zM629 674h-80v-756h80v756zM513 674h-80v-756h80v756zM396 674h-76v-756h76v756zM285 674h-83v-756h83v756zM166 674h-79v-756h79v756z" />
    <glyph glyph-name="uni25A8" unicode="&#x25a8;" horiz-adv-x="940" 
d="M52 710h835v-828h-835v828zM478 -82h142l228 227v141zM289 -82h139l420 415v142zM664 -82h184v181zM112 -82h126l610 604v127zM86 64v-123l736 733h-124zM86 254v-144l564 564h-143zM86 448v-146l370 372h-141zM86 491l178 183h-178v-183z" />
    <glyph glyph-name="uni25A7" unicode="&#x25a7;" horiz-adv-x="940" 
d="M52 -119v830h835v-830h-835zM664 675q48 -48 92.5 -92t91.5 -91v183h-184zM478 675q94 -94 185 -185.5t185 -185.5v142q-57 57 -114 114.5t-114 114.5h-142zM289 675q141 -140 279 -278.5t280 -279.5v142q-106 104 -209.5 207.5t-210.5 208.5h-139zM112 675
q186 -186 368 -366.5t368 -365.5v125q-154 153 -304.5 303.5t-305.5 303.5h-126zM822 -82q-186 185 -368 366.5t-368 367.5v-125q155 -154 306 -305t306 -304h124zM650 -82q-141 142 -281.5 282t-282.5 281v-143q107 -107 211 -210.5t210 -209.5h143zM456 -82
q-94 94 -185 185.5t-185 185.5v-146q59 -57 115.5 -113t113.5 -112h141zM264 -82q-45 46 -89 90.5t-89 91.5v-182h178z" />
    <glyph glyph-name="uni25A6" unicode="&#x25a6;" horiz-adv-x="940" 
d="M52 -118v829h835v-829h-835zM851 676h-81v-79h81v79zM737 676h-78v-79h78v79zM851 564h-81v-86h81v86zM626 676h-83v-79h83v79zM737 564h-78v-86h78v86zM851 446h-81v-78h81v78zM626 564h-83v-86h83v86zM511 676h-86v-79h86v79zM737 446h-78v-78h78v78zM851 335h-81v-81
h81v81zM737 335h-78v-81h78v81zM393 676h-76v-79h76v79zM626 446h-83v-78h83v78zM511 564h-86v-86h86v86zM851 221h-81v-84h81v84zM285 676h-85v-79h85v79zM626 335h-83v-81h83v81zM737 221h-78v-84h78v84zM851 105h-81v-78h81v78zM393 564h-76v-86h76v86zM511 446h-86v-78
h86v78zM851 -5h-81v-77h81v77zM737 105h-78v-78h78v78zM167 676h-80v-79h80v79zM626 221h-83v-84h83v84zM285 564h-85v-86h85v86zM511 335h-86v-81h86v81zM393 446h-76v-78h76v78zM737 -5h-78v-77h78v77zM626 105h-83v-78h83v78zM393 335h-76v-81h76v81zM285 446h-85v-78h85
v78zM167 564h-80v-86h80v86zM511 221h-86v-84h86v84zM626 -5h-83v-77h83v77zM285 335h-85v-81h85v81zM511 105h-86v-78h86v78zM393 221h-76v-84h76v84zM167 446h-80v-78h80v78zM511 -5h-86v-77h86v77zM167 335h-80v-81h80v81zM285 221h-85v-84h85v84zM393 105h-76v-78h76v78
zM393 -5h-76v-77h76v77zM285 105h-85v-78h85v78zM167 221h-80v-84h80v84zM285 -5h-85v-77h85v77zM167 105h-80v-78h80v78zM167 -5h-80v-77h80v77z" />
    <glyph glyph-name="uni25A9" unicode="&#x25a9;" horiz-adv-x="940" 
d="M53 -119v829h834v-829h-834zM360 208q-18 19 -36.5 37.5l-36.5 36.5q-18 -18 -36 -36.5t-37 -36.5q19 -18 37.5 -36.5l36.5 -36.5zM554 408q18 18 36 35t36 35l-72 72l-72 -72q18 -18 36 -35t36 -35zM650 503q18 18 35 36t35 36l-70 71q-18 -18 -36 -35.5t-36 -35.5z
M189 42q18 18 35.5 36t35.5 37l-69 69l-71 -72zM382 42l35.5 35.5t36.5 35.5l-70 70l-71 -71q18 -18 34.5 -35t34.5 -35zM816 478l-69 70q-18 -18 -36 -35.5t-36 -35.5l71 -69zM286 -52q18 18 36 35l36 34l-70 70l-72 -72q18 -18 35 -33.5t35 -33.5zM456 505q18 18 35.5 36
t35.5 36q-17 18 -32.5 34t-32.5 33l-36 -36t-37 -36l34 -34zM652 314q18 18 34 34.5t34 33.5q-18 18 -34 35t-34 35q-18 -18 -34 -34.5t-34 -33.5zM473 -50q19 18 37 35.5t36 35.5l-66 65l-70 -71q15 -16 31 -32t32 -33zM258 308q-17 16 -32.5 32t-32.5 33
q-18 -18 -35.5 -35t-35.5 -35q16 -16 32 -32.5t33 -33.5zM744 219q17 18 35 35t36 35l-33 33t-34 32l-69 -69l33 -33t32 -33zM269 646q-17 -16 -32.5 -31.5l-31.5 -31.5q18 -18 36 -35.5t36 -35.5l62 63zM189 425q16 16 32 31.5t32 31.5q-18 17 -36.5 34.5t-36.5 35.5
l-62 -62zM564 224q30 32 62 62q-18 18 -35 36t-35 36q-15 -17 -31 -32.5t-32 -32.5zM468 322q16 16 30.5 31.5t30.5 31.5l-69 69q-16 -16 -31.5 -31t-30.5 -31zM380 234q15 16 30.5 31t30.5 31q-18 18 -35 35.5t-35 35.5l-60 -63q18 -17 34.5 -34.5t34.5 -35.5zM537 199
q-17 18 -33.5 35t-33.5 35q-17 -16 -32.5 -31t-30.5 -31q17 -18 34.5 -34.5t35.5 -34.5zM750 38q17 16 32 32t31 32q-17 17 -32.5 33t-33.5 33q-16 -16 -31.5 -31t-31.5 -32l33 -33t33 -34zM433 481l-33 33t-33 32q-33 -32 -63 -63q16 -16 32 -31.5t34 -32.5zM281 330
q16 17 31 32.5t31 31.5q-16 17 -32 33l-32 32q-16 -15 -31.5 -31t-31.5 -32q17 -17 32.5 -33t32.5 -33zM657 132q16 17 31 32l31 31l-65 66q-16 -16 -31.5 -32t-30.5 -32zM725 13l-66 66l-62 -62q18 -17 34 -32.5t32 -33.5zM570 47q16 14 30.5 29.5t29.5 30.5
q-16 17 -31.5 33t-31.5 33q-16 -15 -31.5 -30.5t-30.5 -32.5q17 -16 32.5 -32t32.5 -31zM849 647q-22 -20 -40.5 -39t-38.5 -39l79 -78v156zM87 -60l39 39t40 39q-21 20 -40 40t-39 40v-158zM87 322l39 39t40 39l-79 78v-156zM652 -82q-21 19 -39.5 38t-39.5 38
q-20 -19 -39 -38t-39 -38h157zM849 269q-20 -19 -39 -38l-38 -38l77 -77v153zM87 136q19 20 38 39l39 39q-20 19 -39 37t-38 37v-152zM740 599q20 19 39 38t38 37h-154q20 -18 39 -37zM774 380q18 -20 37 -38.5t38 -37.5v150q-19 -19 -38 -37t-37 -37zM364 600l37.5 37.5
t37.5 36.5h-150zM192 -10q-19 -18 -37 -36t-37 -36h149zM458 -82q-19 18 -37.5 35.5t-36.5 35.5l-72 -71h146zM551 602q18 18 35.5 36t35.5 36h-143zM849 80l-70 -69l70 -69v138zM753 -15q-18 -18 -34.5 -33.5t-34.5 -33.5h136zM153 585l-66 66v-132zM176 609
q18 17 33.5 32.5l32.5 32.5h-131z" />
    <glyph glyph-name="uni2668" unicode="&#x2668;" horiz-adv-x="940" 
d="M665 248q0 -45 -36 -114q-20 -39 -32 -67t-14 -45h-13q-8 32 -8 55q0 17 3 40t10 51q7 31 10.5 53.5t3.5 38.5q0 43 -22 109t-22 106q0 22 33 91q17 38 27.5 63t13.5 37h11q7 -14 7 -47q0 -12 -2 -30t-6 -42q-4 -23 -6 -41t-2 -31q0 -48 22 -115t22 -112zM538 260
q0 -51 -38 -125q-25 -48 -39.5 -77.5t-18.5 -43.5h-15q-2 10 -3.5 21.5t-1.5 25.5q0 38 19 95q19 58 19 97t-24 113q-24 73 -24 111q0 48 33 119q36 73 39 116h13q18 -38 18 -75q0 -27 -15 -79q-15 -51 -15 -76q0 -29 26 -109q27 -74 27 -113zM397 248q0 -44 -36 -113
q-20 -38 -32 -66.5t-14 -45.5h-12q-9 19 -9 56q0 39 13 90q7 28 10 51t3 41q0 38 -21 109q-20 78 -20 107q0 21 32 90q17 35 27.5 60t12.5 40h11q6 -20 6 -47q0 -13 -2 -31.5t-6 -43.5t-6 -43t-2 -31q0 -46 22 -113q23 -80 23 -110zM872 90q0 -42 -20.5 -73t-54.5 -54
t-77 -37.5t-89 -23.5t-90.5 -12.5t-80.5 -3.5q-33 0 -74.5 3.5t-85 12t-85.5 22.5t-74.5 35.5t-52.5 50.5t-20 68q0 34 22 62.5t54 50.5t69.5 36.5t69.5 20.5l4 -13q-19 -6 -44.5 -20t-49 -32.5t-39.5 -39.5t-16 -41q0 -27 17.5 -46.5t45 -33t63 -21.5t71 -12t68.5 -5.5
t57 -1.5q25 0 60.5 1.5t74 6t76.5 13t68.5 23t49.5 35.5t19 51q0 28 -29 58.5t-92 56.5l7 12q26 -5 57 -18.5t58 -33t45 -44.5t18 -53z" />
    <glyph glyph-name="uni260F" unicode="&#x260f;" horiz-adv-x="940" 
d="M879 386q0 55 -37 95.5t-118 67.5q-107 37 -253 37q-142 0 -258 -38q-81 -27 -118 -68t-37 -97q0 -22 7.5 -29t21.5 -7q15 0 33 4t46 13q33 11 46.5 19t13.5 20q0 5 -9 25q-9 21 -9 36q0 13 10 26.5t24 23.5q29 20 58 20q12 0 21 -14.5t9 -38.5q0 -57 -12.5 -104
t-41.5 -83q-23 -29 -48 -54.5t-48 -53.5q-8 -10 -13.5 -24t-10.5 -32q-3 -14 -6 -29t-6 -29q-2 -9 -12 -28q-7 -13 -7 -26q0 -11 5 -13t16 -2h612q26 0 36 5t10 21q0 14 -8 30q-6 13 -9.5 20.5t-4.5 9.5q-2 14 -5.5 35t-13.5 48q-8 22 -24.5 43t-38.5 44q-48 52 -62 79
q-28 52 -28 134q0 25 9 40.5t23 15.5t28.5 -3t28.5 -9q17 -8 28 -20.5t11 -24.5q0 -16 -10 -36t-10 -31t12.5 -19t43.5 -17q26 -8 44.5 -11t32.5 -3q16 0 22 6.5t6 25.5zM587 440q0 -41 -67 -41h-110q-58 0 -58 39v87q34 -5 63.5 -7.5t55.5 -2.5q25 0 53.5 2t62.5 6v-83z
M634 203q0 -35 -12.5 -65t-35 -52t-53 -34.5t-66.5 -12.5t-66.5 12.5t-53 34.5t-35 52t-12.5 65t12.5 65.5t34.5 53t53 35t67 12.5q37 0 67.5 -12.5t52.5 -35t34.5 -53t12.5 -65.5zM553 493q-17 -4 -35.5 -5.5t-47.5 -1.5q-27 0 -46 2t-39 7v-44q0 -11 7.5 -16.5t26.5 -5.5
h99q35 0 35 23v41zM595 204q0 27 -9 51t-26 42t-40.5 28.5t-51.5 10.5q-29 0 -53 -10t-41 -27.5t-26 -42t-9 -52.5q0 -57 33 -94t93 -37q28 0 52 10t41.5 27.5t27 41.5t9.5 52zM924 390q0 -35 -17 -55t-46 -20q-20 0 -48.5 6t-56.5 14q-38 11 -59 28.5t-21 36.5q0 14 11 40
q4 8 6 13.5t2 10.5q0 8 -9 12.5t-21 7.5q-4 1 -7 0t-3 -7v-22q0 -66 29 -115q7 -12 23 -31.5t39 -45.5q22 -23 37 -46t23 -44q5 -10 8 -22t5 -24q4 -19 6 -32t4 -17q0 -1 11 -20q9 -15 9 -28q0 -25 -22.5 -45t-64.5 -20h-626q-29 0 -41 16t-12 41q0 18 9 35q5 8 8 14t4 11
q2 14 5 27l6 26q11 38 24 62q12 19 60 70q21 21 36 40t23 35q14 23 21.5 51t7.5 60v31q0 6 -3.5 8.5t-7.5 0.5q-10 -3 -18 -9.5t-8 -22.5q0 -5 2 -8.5t4 -10.5q3 -9 6 -19.5t3 -20.5q0 -17 -21.5 -37.5t-58.5 -32.5q-26 -8 -55.5 -15.5t-51.5 -7.5q-27 0 -44.5 19t-17.5 52
q0 67 48 120t130 82q55 20 125 29.5t151 9.5q152 0 271 -38q88 -29 135.5 -79t47.5 -114z" />
    <glyph glyph-name="uni260E" unicode="&#x260e;" horiz-adv-x="940" 
d="M913 391q0 -64 -50 -64q-45 0 -103 19q-74 23 -74 55q0 13 9 36q10 21 10 33q0 11 -16.5 20t-33.5 9q-13 0 -13 -14v-29q0 -68 30 -119q7 -12 23 -31.5t41 -46.5q22 -23 36.5 -45.5t22.5 -43.5q8 -17 12 -46q3 -17 5.5 -29t4.5 -17q1 -7 12 -25q8 -14 8 -25
q0 -23 -20.5 -38t-51.5 -15h-632q-39 0 -39 45q0 17 9 32q5 8 8.5 15t4.5 12q2 14 5 27t6 27q5 19 10.5 34t12.5 26q12 19 60 70q22 22 37 41t23 35q28 49 28 115v42q0 9 -8 9q-16 0 -33 -13t-17 -29q0 -8 7.5 -26.5t7.5 -33.5q0 -37 -75 -62q-60 -21 -106 -21q-47 0 -47 61
q0 134 167 191q112 39 276 39q152 0 271 -38q172 -57 172 -182zM587 523q-34 -4 -62.5 -6t-53.5 -2q-26 0 -55.5 2.5t-63.5 7.5v-87q0 -39 58 -39h110q67 0 67 41v83zM633 203q0 35 -12.5 65.5t-35 52.5t-52.5 34.5t-66 12.5q-35 0 -65.5 -12.5t-53 -34.5t-35 -52.5
t-12.5 -65.5t13 -65t35.5 -51.5t52.5 -34t65 -12.5t65 12t52.5 34t35.5 52t13 65z" />
    <glyph glyph-name="uni261C" unicode="&#x261c;" horiz-adv-x="940" 
d="M780 187v21h-26q-13 -6 -25.5 -12t-25.5 -11q-26 -11 -54.5 -19t-60.5 -13q-31 -4 -112 -3q-74 2 -77 3q-20 0 -36 9q-19 10 -19 29q0 20 16 26q-22 0 -32 16q-6 9 -6 18q0 14 11 28q-12 0 -23.5 10t-12.5 22q0 36 81 39l-3 8q-23 1 -65 3t-103 5q-74 3 -75 4
q-49 7 -46 40q2 27 50 32q17 2 33 2t32 1q46 2 115.5 3.5t166.5 1.5q89 0 116 -3q75 -11 124 -55q2 -3 59 -5v31h73v-231h-75zM782 370q-1 0 -6.5 0.5l-16.5 1.5q-6 1 -11 1h-10q4 -9 4 -16q0 -3 -2 -3t-20 19q-22 21 -44 35q-43 28 -159 28q-18 0 -21 -1q-42 -9 -65 -24
q-11 -6 -21 -25q-11 -20 -20 -26q-1 -1 2.5 -4t10.5 -3t18 3q9 4 25 18q16 15 19 15q2 0 3 -1q3 -6 -4 -15q0 -2 17 -4q16 -2 24 0q5 2 11.5 4t13.5 6q13 7 14 7q2 0 2 -1q2 -10 -14 -23q5 -5 10.5 -10t11.5 -10q24 -21 55 -31q25 -7 65 -12q26 -5 26 -9q0 -6 -31 -5
q-30 2 -55 9q-41 12 -72 39l-26 26q-17 -3 -22 -3q-24 0 -42 7l-14 -13q8 -2 15.5 -3.5t14.5 -3.5q31 -9 33 -17q3 -8 3 -13q0 -14 -14 -28q9 0 20.5 -11.5t11.5 -20.5q0 -14 -16 -26q11 -3 16 -7q15 -9 16 -22q1 -18 -13 -32h4t8 -1h12t10 1q36 2 72 11.5t73 25.5
q55 22 58 27v-11q1 -1 20 0v151zM445 435q-61 0 -121.5 -1t-121.5 -3q-28 -1 -46.5 -2t-26.5 -3q-26 -5 -27 -19q0 -15 23 -21q17 -3 77 -6q39 -2 84.5 -3.5t99.5 -3.5q3 4 8 11.5t12 18.5q10 18 39 32zM839 401h-43v-198h43v198zM480 293q9 7 9 17q0 19 -28 23q-36 7 -87 3
q-34 1 -53 -12q-6 -5 -6 -12q0 -20 23 -20q2 -2 56 -2q78 0 86 3zM506 253q0 23 -44 23h-96q-10 0 -18.5 -7.5t-8.5 -15.5q0 -12 14 -20q2 -1 15.5 -2t36.5 -2q43 -2 48 0q17 0 30 4q22 6 23 16v4zM522 197q-3 17 -31 17h-48h-26.5t-35.5 -1q-19 -1 -19 -20q0 -16 13 -20
q16 -5 63 -6q45 0 47 2q11 0 23 6q17 9 14 22z" />
    <glyph glyph-name="uni261E" unicode="&#x261e;" horiz-adv-x="940" 
d="M158 418v-31q55 1 59 5q49 44 124 55q27 3 116 3q97 0 166.5 -1.5t115.5 -3.5q16 -1 32 -1t33 -2q48 -5 50 -32q3 -33 -46 -40q-1 -1 -75 -4q-61 -3 -103 -5t-65 -3l-3 -8q81 -3 81 -39q-1 -12 -12.5 -22t-23.5 -10q11 -14 11 -28q0 -9 -6 -18q-10 -16 -32 -16
q16 -6 16 -26q0 -19 -19 -29q-17 -9 -36 -9q-3 -1 -77 -3q-81 -1 -112 3q-59 9 -115 32q-13 5 -25.5 11t-25.5 12h-26v-21h-75v231h73zM158 219q19 -1 20 0v11q2 -5 58 -27q37 -16 73 -25.5t72 -11.5q5 -1 10 -1h12q5 1 8 1h4q-14 14 -13 32q1 13 16 22q5 4 16 7
q-16 12 -16 26q0 9 11.5 20.5t20.5 11.5q-14 14 -14 28q0 5 3 13q2 8 33 17q7 2 14.5 3.5t15.5 3.5l-14 13q-18 -7 -42 -7q-6 0 -22 3l-26 -26q-32 -27 -72 -39q-25 -7 -55 -9q-31 -1 -31 5q0 4 26 9q40 5 65 12q31 10 55 31q6 5 11.5 10t10.5 10q-16 13 -14 23q0 1 2 1
q1 0 14 -7q7 -4 13.5 -6t11.5 -4q7 -2 24 0t17 4q-7 9 -4 15q1 1 3 1t19 -15q16 -14 25 -18q10 -3 18 -3q7 0 10.5 3t2.5 4q-9 6 -20 26q-10 19 -21 25q-23 15 -65 24q-3 1 -21 1q-116 0 -159 -28q-23 -14 -44 -35q-18 -19 -20 -19t-2 3q0 7 4 16h-10t-11 -1l-16.5 -1.5
t-6.5 -0.5v-151zM495 435q29 -14 39 -32q7 -11 12 -18.5t8 -11.5q54 2 99.5 3.5t84.5 3.5q60 3 77 6q23 6 23 21q-1 14 -27 19q-8 2 -26.5 3t-46.5 2q-61 2 -121.5 3t-121.5 1zM144 401h-43v-198h43v198zM460 293q7 -3 86 -3q54 0 56 2q23 0 23 20q0 7 -6 12q-19 13 -53 12
q-51 4 -87 -3q-28 -4 -28 -23q0 -10 9 -17zM434 249q1 -10 23 -16q13 -4 30 -4q4 -2 48 0q23 1 36.5 2t15.5 2q14 8 14 20q0 8 -8.5 15.5t-18.5 7.5h-96q-44 0 -44 -23v-4zM418 197q-3 -13 14 -22q12 -6 23 -6q2 -2 47 -2q46 1 63 6q13 4 13 20q0 19 -19 20q-20 1 -35.5 1
h-26.5h-48q-28 0 -31 -17z" />
    <glyph glyph-name="paragraph" unicode="&#xb6;" horiz-adv-x="560" 
d="M239 242q-33 4 -66.5 18.5t-60.5 40.5t-44 66t-17 95q0 45 10.5 89t42 79.5t89 57t150.5 21.5q24 0 42 -1t33 -2.5t29 -4.5t30 -7v-775h-103v677h-25v-677h-110v323z" />
    <glyph glyph-name="dagger" unicode="&#x2020;" horiz-adv-x="640" 
d="M395 331v-414h-151v414h-174v127h174v218h151v-218h174v-127h-174z" />
    <glyph glyph-name="daggerdbl" unicode="&#x2021;" horiz-adv-x="640" 
d="M244 356v69h-173v127h173v125h151v-125h174v-127h-174v-69h174v-127h-174v-314h-151v314h-173v127h173z" />
    <glyph glyph-name="arrowupdn" unicode="&#x2195;" horiz-adv-x="700" 
d="M543 72l-194 -261l-193 261h119v456h-119l193 261l194 -261h-121v-456h121z" />
    <glyph glyph-name="uni2197" unicode="&#x2197;" horiz-adv-x="940" 
d="M796 564l-691 -763l-97 82l700 769l-106 107l309 14l-16 -307z" />
    <glyph glyph-name="uni2199" unicode="&#x2199;" horiz-adv-x="940" 
d="M142 27l692 764l97 -82l-701 -769l107 -107l-309 -14l16 307z" />
    <glyph glyph-name="uni2196" unicode="&#x2196;" horiz-adv-x="940" 
d="M42 467l-16 307l309 -14l-107 -107l701 -769l-97 -82l-692 763z" />
    <glyph glyph-name="uni2198" unicode="&#x2198;" horiz-adv-x="940" 
d="M895 126l16 -307l-309 14l106 107l-700 769l97 82l691 -764z" />
    <glyph glyph-name="uni266D" unicode="&#x266d;" horiz-adv-x="580" 
d="M490 302q0 -80 -30.5 -143.5t-84 -108t-127 -68.5t-159.5 -26v742h149v-300q23 35 51.5 48t51.5 13q76 0 112.5 -41.5t36.5 -115.5zM337 271q0 51 -30 51q-10 0 -20 -7t-19 -18.5t-16.5 -25.5t-13.5 -29v-132q99 53 99 161z" />
    <glyph glyph-name="uni2669" unicode="&#x2669;" horiz-adv-x="400" 
d="M309 70q0 -31 -13.5 -61.5t-37 -54.5t-54 -38.5t-64.5 -14.5q-39 0 -62 16t-23 59q0 23 11.5 44t30.5 37t44 25.5t51 9.5h9q3 0 4 1.5t1 8.5v621h103v-653z" />
    <glyph glyph-name="musicalnote" unicode="&#x266a;" horiz-adv-x="600" 
d="M298 70q0 -31 -13.5 -61.5t-37 -54.5t-54 -38.5t-64.5 -14.5q-39 0 -62 16t-23 59q0 23 11.5 44t30.5 37t44 25.5t51 9.5h9q3 0 4 1.5t1 8.5v617h73q30 -52 71.5 -90t91.5 -74q33 -24 56 -47.5t38 -50t22 -57.5t7 -69q0 -40 -10.5 -74.5t-31 -65.5t-50 -59.5t-67.5 -56.5
l-39 44q30 31 48.5 57.5t28.5 49.5t13.5 43t3.5 38t-6 33.5t-21 30.5q-28 28 -60.5 49.5t-64.5 47.5v-398v0z" />
    <glyph glyph-name="uni266C" unicode="&#x266c;" horiz-adv-x="840" 
d="M751 180q0 -31 -13.5 -61.5t-37 -54.5t-54 -38.5t-64.5 -14.5q-39 0 -62 16t-23 59q0 23 11.5 44t30.5 37t44 25.5t51 9.5h9q3 0 4 1.5t1 8.5v206l-344 -73v-275q0 -31 -13.5 -61.5t-37 -54.5t-54 -38.5t-64.5 -14.5q-39 0 -62 16t-23 59q0 23 11.5 44t30.5 37t44 25.5
t51 9.5h9q3 0 4 1.5t1 8.5v536l550 116v-574zM652 593l-345 -77v-31l345 77v31z" />
    <glyph glyph-name="uni327F" unicode="&#x327f;" horiz-adv-x="940" 
d="M785 444q-19 49 -51.5 87.5t-74.5 65.5t-90.5 42t-100.5 16q-63 1 -121.5 -20t-105 -60t-76.5 -95t-36 -125h115v-70h-194v20q0 93 33 170.5t90 133t133 86t162 30.5q66 0 128 -20.5t114.5 -57t92.5 -88.5t61 -115h-79zM572 90l-164 189l-4 -5v-184h-82v449h82v-169
l143 165h103l-186 -208l217 -237h-109zM890 305q0 -87 -33.5 -163.5t-91 -133.5t-134 -90t-163.5 -33q-71 0 -138.5 24.5t-123 68t-94.5 103.5t-53 131l77 1q14 -56 46 -103.5t76 -82t98 -54t112 -19.5q68 0 130.5 25.5t111 70.5t78 105.5t31.5 129.5h-193v70h261
q3 -26 3 -50z" />
    <glyph glyph-name="uni321C" unicode="&#x321c;" horiz-adv-x="940" 
d="M245 620h449v-121h-127q23 -29 62 -48.5t90 -35.5l-45 -119q-64 17 -117 46t-88 77q-37 -48 -88.5 -77t-120.5 -46l-46 119q54 15 94 35t63 49h-126v121zM773 728q83 -94 118 -203t35 -225q0 -57 -8.5 -116t-26.5 -115.5t-47 -109t-70 -96.5h-127q42 48 71 101.5
t47.5 110t27 113.5t8.5 112t-8.5 111.5t-26.5 111t-47.5 106.5t-71.5 99h126zM294 728q-42 -47 -71.5 -99t-47.5 -106.5t-26.5 -111t-8.5 -111.5t8.5 -112t27 -113.5t47.5 -110t71 -101.5h-127q-41 44 -70 96.5t-47 109t-26.5 115.5t-8.5 116q0 116 35 225t118 203h126z
M393 -37v186h-214v124h579v-124h-215v-186h-150z" />
    <glyph glyph-name="uni2116" unicode="&#x2116;" horiz-adv-x="940" 
d="M407 -54h-143l-109 381v-381h-127v736h147l105 -371v371h127v-736zM610 372q-12 0 -18.5 -13.5t-10.5 -36t-5 -51.5t-1 -60q0 -76 8.5 -115.5t26.5 -39.5q19 0 26.5 39.5t7.5 115.5q0 31 -1 60t-4 51.5t-10 36t-19 13.5zM917 -56h-133v133h133v-133zM610 -62
q-52 0 -86.5 23t-55 61.5t-29 87.5t-8.5 101q0 54 8.5 104.5t28.5 89.5t54.5 62t87.5 23t87 -23t54 -62t28 -89.5t8 -104.5q0 -52 -8 -101t-28.5 -87.5t-54.5 -61.5t-86 -23z" />
    <glyph glyph-name="uni33C7" unicode="&#x33c7;" horiz-adv-x="940" 
d="M31 310q0 88 14.5 157.5t44.5 118t77.5 74t113.5 25.5q24 0 43.5 -3t37 -10.5t34.5 -20.5t37 -33l-65 -127q-17 16 -28.5 28t-21 19.5t-18.5 11t-20 3.5q-32 0 -51 -23t-29 -58.5t-13.5 -78.5t-3.5 -83q0 -38 3.5 -80.5t13.5 -78t29 -59t51 -23.5q12 0 22.5 2t22 9t24 19
t28.5 33l70 -112q-40 -47 -78 -65t-88 -18q-66 0 -113.5 26t-77.5 75t-44.5 117.5t-14.5 154.5zM610 372q-12 0 -18.5 -13.5t-10.5 -36t-5 -51.5t-1 -60q0 -76 8.5 -115.5t26.5 -39.5q19 0 26.5 39.5t7.5 115.5q0 31 -1 60t-4 51.5t-10 36t-19 13.5zM917 -56h-133v133h133
v-133zM610 -62q-52 0 -86.5 23t-55 61.5t-29 87.5t-8.5 101q0 54 8.5 104.5t28.5 89.5t54.5 62t87.5 23t87 -23t54 -62t28 -89.5t8 -104.5q0 -52 -8 -101t-28.5 -87.5t-54.5 -61.5t-86 -23z" />
    <glyph glyph-name="trademark" unicode="&#x2122;" horiz-adv-x="800" 
d="M268 607v-253h-147v253h-89v122h327v-122h-91zM645 354v96l-33 -96h-80l-38 103v-103h-114v375h106l85 -212l79 212h109v-375h-114z" />
    <glyph glyph-name="uni33C2" unicode="&#x33c2;" horiz-adv-x="940" 
d="M688 315q0 34 -0.5 44.5t-5.5 10.5q-7 0 -10.5 -9.5t-8.5 -23.5v-389h-120v361q0 35 -1 48t-6 13q-7 0 -10 -11.5t-8 -31.5v-379h-122v531h113v-23q8 17 21.5 25.5t27.5 8.5q21 0 37 -15.5t26 -36.5q15 27 36.5 39.5t43.5 12.5q63 0 86 -42.5t23 -123.5v-376h-122v367z
M31 94q0 88 41.5 139t108.5 55v8q0 80 -35 80q-10 0 -23.5 -10.5t-36.5 -40.5l-51 92q26 32 57 54.5t73 22.5q37 0 61.5 -16t39.5 -43t21 -63.5t6 -77.5v-346h-104v20q-10 -16 -25 -23.5t-28 -7.5q-28 0 -48 13t-32.5 34.5t-18.5 50t-6 59.5zM384 -49h-77v118h77v-118z
M900 -49h-77v118h77v-118zM163 52q6 0 9.5 3t5.5 12.5t2.5 27t0.5 47.5v40q-15 -8 -25 -28.5t-10 -49.5q0 -32 4 -42t13 -10z" />
    <glyph glyph-name="uni33D8" unicode="&#x33d8;" horiz-adv-x="940" 
d="M688 315q0 34 -0.5 44.5t-5.5 10.5q-7 0 -10.5 -9.5t-8.5 -23.5v-389h-120v361q0 35 -1 48t-6 13q-7 0 -10 -11.5t-8 -31.5v-379h-122v531h113v-23q8 17 21.5 25.5t27.5 8.5q21 0 37 -15.5t26 -36.5q15 27 36.5 39.5t43.5 12.5q63 0 86 -42.5t23 -123.5v-376h-122v367z
M138 480v-25q14 19 31 27t31 8q57 0 86.5 -72t29.5 -211q0 -59 -6.5 -108.5t-21.5 -85.5t-39 -56.5t-58 -20.5q-10 0 -21 4t-22 14v-181h-118v707h108zM149 153q0 -93 25 -93q14 0 18 41.5t4 108.5q0 77 -3.5 117t-19.5 40q-10 0 -17 -23.5t-7 -70.5v-120zM384 -49h-77v118
h77v-118zM900 -49h-77v118h77v-118z" />
    <glyph glyph-name="uni2121" unicode="&#x2121;" horiz-adv-x="940" 
d="M-2 547v133h439v-133h-143v-598h-161v598h-135zM526 368q-26 0 -39.5 -23.5t-17.5 -52.5h103q-4 28 -14 52t-32 24zM713 8q-45 -38 -85.5 -54.5t-90.5 -16.5q-47 0 -86 17.5t-67 52t-43 87t-15 121.5q0 61 12 112t36.5 88t62 57t89.5 20q68 0 107.5 -31t59 -78.5
t23.5 -105t1 -111.5h-252q3 -31 10 -51t17.5 -31.5t23 -16t26.5 -4.5q12 0 24 1t27 6.5t34 15.5t45 28zM904 711v-763h-160v763h160z" />
    <glyph glyph-name="uniFF01" unicode="&#xff01;" horiz-adv-x="900" 
d="M346 115v607h207v-607h-207zM346 -136v197h207v-197h-207z" />
    <glyph glyph-name="uniFF02" unicode="&#xff02;" horiz-adv-x="900" 
d="M422 359h-195v341h195v-341zM673 409h-195v341h195v-341z" />
    <glyph glyph-name="uniFF03" unicode="&#xff03;" horiz-adv-x="900" 
d="M92 527h160l30 155h179l-30 -155h121l30 155h179l-30 -155h116v-172h-148l-27 -138h135v-172h-168l-30 -160h-178l30 160h-122l-30 -160h-179l30 160h-108v172h141l27 138h-128v172zM372 217h122l26 138h-121z" />
    <glyph glyph-name="uniFF04" unicode="&#xff04;" horiz-adv-x="900" 
d="M527 732v-64q57 -10 109 -33t108 -60l-77 -130q-29 23 -65 40t-75 27v-163q51 -15 94.5 -32.5t75.5 -42t50 -60t18 -86.5q0 -48 -18 -84.5t-50 -62.5t-75.5 -42t-94.5 -22v-72h-138v73q-72 10 -136 37.5t-119 66.5l82 137q34 -29 78.5 -52t94.5 -35v171
q-45 12 -87.5 28.5t-75.5 41.5t-53 61.5t-20 89.5q0 51 18.5 88.5t51 62t75.5 38t91 18.5v61h138zM596 131q0 23 -16.5 40t-52.5 32v-137q37 6 53 22.5t16 42.5zM320 462q0 -23 15 -38.5t54 -30.5v128q-38 -6 -53.5 -21t-15.5 -38z" />
    <glyph glyph-name="uniFF05" unicode="&#xff05;" horiz-adv-x="900" 
d="M57 -115l570 797h209l-569 -797h-210zM17 520q0 42 16.5 76t44 57.5t63.5 36t74 12.5q39 0 74.5 -12.5t63 -36t43.5 -57t16 -76.5q0 -42 -16 -75.5t-43.5 -57t-63 -36t-74.5 -12.5q-38 0 -74 12.5t-63.5 36t-44 57t-16.5 75.5zM215 473q22 0 34.5 13.5t12.5 33.5
q0 21 -12.5 34t-34.5 13q-23 0 -35.5 -13.5t-12.5 -33.5t12.5 -33.5t35.5 -13.5zM487 47q0 42 16.5 76t44 57.5t63.5 36t74 12.5q39 0 74.5 -12.5t63 -36t43.5 -57t16 -76.5q0 -42 -16 -75.5t-43.5 -57t-63 -36t-74.5 -12.5q-38 0 -74 12.5t-63.5 36t-44 57t-16.5 75.5z
M685 0q22 0 34.5 13.5t12.5 33.5q0 21 -12.5 34t-34.5 13q-23 0 -35.5 -13.5t-12.5 -33.5t12.5 -33.5t35.5 -13.5z" />
    <glyph glyph-name="uniFF06" unicode="&#xff06;" horiz-adv-x="900" 
d="M581 -81q-47 -26 -101.5 -40t-118.5 -14q-71 0 -127 16t-95.5 46t-60.5 72t-21 95q0 33 7.5 62t25.5 55.5t49 51t79 48.5q-32 44 -49.5 88t-17.5 89q0 47 19.5 86t54 67.5t81.5 44.5t102 16t101 -15t79 -42t51 -64t18 -81q0 -37 -9.5 -67.5t-31 -58t-56 -52.5t-84.5 -51
l103 -109q23 56 32 119h188q-8 -72 -31 -136t-63 -117l137 -144h-228zM373 17q54 0 96 21l-148 157q-26 -15 -41 -28t-23 -24.5t-10 -22.5t-2 -22q0 -38 32.5 -59.5t95.5 -21.5zM339 483q0 -42 40 -100q53 28 71.5 52.5t18.5 52.5q0 26 -16 44t-45 18q-28 0 -48.5 -17.5
t-20.5 -49.5z" />
    <glyph glyph-name="uniFF07" unicode="&#xff07;" horiz-adv-x="900" 
d="M547 409h-195v341h195v-341z" />
    <glyph glyph-name="uniFF08" unicode="&#xff08;" horiz-adv-x="900" 
d="M444 289q0 66 9.5 125.5t30.5 114t55 105t83 98.5h233q-98 -94 -150.5 -203.5t-52.5 -239.5t52.5 -240t150.5 -204h-233q-49 48 -83 98.5t-55 105.5t-30.5 114.5t-9.5 125.5z" />
    <glyph glyph-name="uniFF09" unicode="&#xff09;" horiz-adv-x="900" 
d="M455 289q0 -66 -9.5 -125.5t-30.5 -114.5t-55 -105.5t-83 -98.5h-233q98 94 150.5 204t52.5 240t-52.5 239.5t-150.5 203.5h233q49 -48 83 -98.5t55 -105t30.5 -114t9.5 -125.5z" />
    <glyph glyph-name="uniFF0A" unicode="&#xff0a;" horiz-adv-x="900" 
d="M665 494l-102 -30l69 -92l-109 -82l-71 98l-71 -98l-110 82l67 92l-103 30l51 138l96 -38v113h138v-113l94 37z" />
    <glyph glyph-name="uniFF0B" unicode="&#xff0b;" horiz-adv-x="900" 
d="M176 388h170v154h208v-154h170v-172h-170v-171h-208v171h-170v172z" />
    <glyph glyph-name="uniFF0C" unicode="&#xff0c;" horiz-adv-x="900" 
d="M352 -116q0 -36 -15 -63.5t-41.5 -47t-64 -30.5t-82.5 -14v82q57 4 80 21t23 46h-105v192h205v-186z" />
    <glyph glyph-name="uniFF0D" unicode="&#xff0d;" horiz-adv-x="900" 
d="M176 388h548v-172h-548v172z" />
    <glyph glyph-name="uniFF0E" unicode="&#xff0e;" horiz-adv-x="900" 
d="M147 -122v192h205v-192h-205z" />
    <glyph glyph-name="uniFF0F" unicode="&#xff0f;" horiz-adv-x="900" 
d="M175 -115l330 797h219l-322 -797h-227z" />
    <glyph glyph-name="uniFF10" unicode="&#xff10;" horiz-adv-x="900" 
d="M102 284q0 97 23.5 174.5t68 131.5t109 82.5t147.5 28.5q81 0 145.5 -28.5t109.5 -82.5t69 -131.5t24 -174.5q0 -98 -22.5 -175.5t-67 -131.5t-109.5 -83t-149 -29q-83 0 -147.5 29t-109 83t-68 131.5t-23.5 175.5zM310 284q0 -67 11.5 -114t31 -76.5t44.5 -43t53 -13.5
q29 0 54.5 13.5t45 43t30.5 76.5t11 114q0 66 -11 113t-30.5 76t-45 42.5t-54.5 13.5q-28 0 -53 -13.5t-44.5 -42.5t-31 -76t-11.5 -113z" />
    <glyph glyph-name="uniFF11" unicode="&#xff11;" horiz-adv-x="900" 
d="M286 682h328v-797h-208v625h-120v172z" />
    <glyph glyph-name="uniFF12" unicode="&#xff12;" horiz-adv-x="900" 
d="M392 218q68 54 105.5 108.5t37.5 102.5q0 16 -4.5 33.5t-15 32t-28.5 23.5t-45 9q-111 0 -160 -133l-159 83q16 54 48 96t75.5 70.5t97 42.5t112.5 13q62 -1 115.5 -21t92.5 -56t61 -86.5t20 -111.5q-2 -44 -17.5 -83.5t-40.5 -76t-58 -70t-70 -63.5l-92 -75h309v-171
h-631v134z" />
    <glyph glyph-name="uniFF13" unicode="&#xff13;" horiz-adv-x="900" 
d="M139 511q16 46 47 81.5t72.5 59.5t89 36.5t96.5 12.5q63 0 120 -17.5t99.5 -49.5t67.5 -76.5t25 -98.5q0 -27 -7 -53t-21.5 -48.5t-36.5 -39t-52 -24.5q30 -7 55 -22.5t44 -38t29.5 -51t10.5 -60.5q0 -62 -27 -110t-72.5 -80.5t-106.5 -49.5t-129 -17q-47 0 -95.5 10
t-92 32t-79 57t-54.5 85l174 80q15 -45 54.5 -68.5t88.5 -23.5q24 0 47 4.5t42 14.5t30.5 26t11.5 39q0 27 -13 44.5t-33 28t-45.5 14.5t-49.5 4h-81v152h81q20 0 41 3.5t38.5 13t28.5 25.5t11 41q0 21 -9.5 36.5t-25.5 25.5t-36.5 15t-41.5 5q-42 0 -77 -25t-53 -68z" />
    <glyph glyph-name="uniFF14" unicode="&#xff14;" horiz-adv-x="900" 
d="M112 19v172l345 491h223v-491h107v-172h-107v-134h-208v134h-360zM472 435l-166 -244h166v244z" />
    <glyph glyph-name="uniFF15" unicode="&#xff15;" horiz-adv-x="900" 
d="M299 146q22 -54 55.5 -81.5t93.5 -27.5q54 0 87 29t33 77t-34 76t-88 30q-71 2 -107 -40h-186v473h581v-172h-373v-120q29 16 64.5 23.5t73.5 7.5q49 0 98 -18t89 -53t65 -86.5t25 -118.5q0 -57 -23.5 -108t-66 -89.5t-103.5 -60.5t-136 -22q-64 0 -118 15t-96 43t-70 67
t-39 86l175 70v0z" />
    <glyph glyph-name="uniFF16" unicode="&#xff16;" horiz-adv-x="900" 
d="M581 682l-126 -263q22 3 43 3q49 0 98.5 -20t89 -55.5t64 -85t24.5 -109.5q0 -71 -28.5 -125t-75.5 -90t-107 -54t-123 -18q-73 0 -136.5 23t-107 66.5t-62 106t-0.5 142.5q6 27 21 58t32 67l170 354h224zM452 251q-57 0 -86 -31.5t-29 -76.5t30 -76t85 -31t85 31t30 76
t-29 76.5t-86 31.5z" />
    <glyph glyph-name="uniFF17" unicode="&#xff17;" horiz-adv-x="900" 
d="M452 -115h-224l283 625h-366v172h610v-128z" />
    <glyph glyph-name="uniFF18" unicode="&#xff18;" horiz-adv-x="900" 
d="M450 -135q-65 0 -123.5 16.5t-102 48t-69 76.5t-25.5 101q0 40 12.5 72t33.5 56t48 39.5t56 22.5q-57 14 -92 60.5t-35 111.5q0 55 23.5 98.5t63.5 73.5t94 45.5t116 15.5q61 0 115.5 -15.5t94.5 -45.5t63.5 -73.5t23.5 -98.5q0 -65 -35 -111.5t-92 -60.5q30 -6 57 -21.5
t47.5 -39.5t33 -56.5t12.5 -72.5q0 -56 -25.5 -101t-69 -76.5t-102 -48t-123.5 -16.5zM450 17q51 0 81 27t30 69t-30 69.5t-81 27.5t-81 -27.5t-30 -69.5t30 -69t81 -27zM450 377q48 0 73 25.5t25 60.5t-25 61t-73 26t-73 -26t-25 -61t25 -60.5t73 -25.5z" />
    <glyph glyph-name="uniFF19" unicode="&#xff19;" horiz-adv-x="900" 
d="M318 -115l126 263q-23 -3 -43 -3q-49 0 -98.5 20t-89 55.5t-64 85t-24.5 109.5q0 71 28.5 125t75.5 90t107 54t123 18q73 0 136.5 -23t107 -66.5t62 -106.5t0.5 -142q-6 -27 -21 -58t-32 -67l-170 -354h-224zM447 316q57 0 86 31.5t29 76.5t-30 76t-85 31t-85 -31
t-30 -76t29 -76.5t86 -31.5z" />
    <glyph glyph-name="uniFF1A" unicode="&#xff1a;" horiz-adv-x="900" 
d="M347 -15v192h205v-192h-205zM347 415v192h205v-192h-205z" />
    <glyph glyph-name="uniFF1B" unicode="&#xff1b;" horiz-adv-x="900" 
d="M347 415v192h205v-192h-205zM552 -9q0 -36 -15 -63.5t-41.5 -47t-64 -30.5t-82.5 -14v82q57 4 80 21t23 46h-105v192h205v-186z" />
    <glyph glyph-name="uniFF1C" unicode="&#xff1c;" horiz-adv-x="900" 
d="M860 -33l-141 -141l-379 379v161l379 379l141 -141l-320 -318z" />
    <glyph glyph-name="uniFF1D" unicode="&#xff1d;" horiz-adv-x="900" 
d="M176 508h548v-172h-548v172zM176 268h548v-172h-548v172z" />
    <glyph glyph-name="uniFF1E" unicode="&#xff1e;" horiz-adv-x="900" 
d="M360 286l-320 318l141 141l379 -379v-161l-379 -379l-141 141z" />
    <glyph glyph-name="uniFF1F" unicode="&#xff1f;" horiz-adv-x="900" 
d="M342 345q37 4 74.5 15t66.5 28t47.5 40.5t18.5 52.5q0 21 -9.5 38t-24.5 28.5t-34 17t-38 5.5q-20 0 -41 -7t-40 -21t-34 -35t-22 -49l-163 72q15 58 46 98.5t73 66t91.5 37t101.5 11.5q73 0 129.5 -20.5t94.5 -55t58 -80t20 -94.5q0 -44 -16.5 -84t-44.5 -73t-66 -57
t-81 -36v-128h-207v230zM342 60h207v-196h-207v196z" />
    <glyph glyph-name="uniFF20" unicode="&#xff20;" horiz-adv-x="900" 
d="M717 -97q-63 -26 -130 -37t-139 -11q-100 0 -181 32.5t-138.5 90.5t-89 136.5t-31.5 170.5q0 89 31.5 167t89.5 136t139.5 91.5t182.5 33.5q103 0 185 -30.5t139 -83.5t87.5 -125t30.5 -156q0 -55 -14.5 -101.5t-43 -80.5t-71 -53t-99.5 -19q-42 0 -76.5 11.5t-51.5 39.5
h-1q-22 -21 -54.5 -33.5t-70.5 -12.5q-45 0 -82.5 16t-64.5 44t-42 67t-15 84q0 46 16.5 85.5t44.5 68t65 45t78 16.5q33 0 64 -8t51 -26l14 28h115v-251q0 -22 8 -31.5t28 -9.5q23 0 30.5 29t7.5 87q0 122 -71.5 189t-207.5 67q-66 0 -117.5 -20.5t-87.5 -57.5t-54.5 -89.5
t-18.5 -116.5q0 -65 18.5 -117.5t54 -89.5t87 -57t116.5 -20q71 0 127.5 7.5t103.5 24.5zM502 280q0 32 -20 51.5t-52 19.5q-30 0 -49.5 -19.5t-19.5 -51.5q0 -30 20 -49t49 -19q32 0 52 19t20 49z" />
    <glyph glyph-name="uniFF21" unicode="&#xff21;" horiz-adv-x="900" 
d="M49 -115l270 797h262l270 -797h-208l-76 223l-258 -71l-52 -152h-208zM373 226l140 39l-63 187z" />
    <glyph glyph-name="uniFF22" unicode="&#xff22;" horiz-adv-x="900" 
d="M778 471q0 -54 -19.5 -98.5t-62.5 -76.5q25 -10 46.5 -26t38 -39t26 -54t9.5 -70q0 -60 -18 -102t-49.5 -69t-73.5 -39t-90 -12h-502v797h464q48 0 90 -10.5t73.5 -35.5t49.5 -65t18 -100zM604 138q0 20 -9 35.5t-23.5 26t-32.5 16.5t-37 9l-216 -59v-115h216q44 0 73 20
t29 67zM507 391q34 8 51 28t17 44q0 26 -21 39t-47 13h-221v-178z" />
    <glyph glyph-name="uniFF23" unicode="&#xff23;" horiz-adv-x="900" 
d="M43 284q0 92 33.5 169t92 132.5t138.5 86.5t172 31q124 0 214 -50.5t162 -149.5l-137 -115q-37 66 -93.5 105t-140.5 39q-52 0 -95 -19t-73.5 -52.5t-47.5 -79t-17 -97.5t16.5 -97t47.5 -78.5t74.5 -52.5t96.5 -19q43 0 77.5 10t63 29t52 46t43.5 61l134 -119
q-68 -95 -158.5 -147t-218.5 -52q-92 0 -172 31t-138.5 86.5t-92 132.5t-33.5 169z" />
    <glyph glyph-name="uniFF24" unicode="&#xff24;" horiz-adv-x="900" 
d="M83 682h386q81 0 145.5 -30.5t109.5 -83.5t68.5 -125.5t23.5 -157.5q0 -88 -25.5 -161.5t-75 -126.5t-122 -82.5t-167.5 -29.5h-343v797zM291 57h123q49 0 85.5 18.5t60.5 50t36 73.5t12 89q0 46 -14 86.5t-40.5 70.5t-65.5 47.5t-90 17.5h-107v-453z" />
    <glyph glyph-name="uniFF25" unicode="&#xff25;" horiz-adv-x="900" 
d="M736 378v-172h-393v-150h422v-171h-630v797h620v-172h-412v-132h393z" />
    <glyph glyph-name="uniFF26" unicode="&#xff26;" horiz-adv-x="900" 
d="M741 378v-172h-393v-321h-208v797h620v-172h-412v-132h393z" />
    <glyph glyph-name="uniFF27" unicode="&#xff27;" horiz-adv-x="900" 
d="M464 37q80 0 131 37t61 105h-211v172h420v-111q0 -92 -31.5 -162t-86 -117t-127.5 -71.5t-155 -24.5q-91 0 -169.5 31t-136.5 86.5t-91.5 132.5t-33.5 169t33.5 169t92 132.5t138.5 86.5t172 31q124 0 214 -50.5t162 -149.5l-137 -115q-37 66 -97.5 105t-144.5 39
q-45 0 -86 -18t-71.5 -50.5t-49 -78t-18.5 -101.5t17 -101.5t47 -78t70.5 -50t87.5 -17.5z" />
    <glyph glyph-name="uniFF28" unicode="&#xff28;" horiz-adv-x="900" 
d="M599 -115v373l-299 -82v-291h-208v797h208v-335l299 83v252h208v-797h-208z" />
    <glyph glyph-name="uniFF29" unicode="&#xff29;" horiz-adv-x="900" 
d="M554 682v-797h-208v797h208z" />
    <glyph glyph-name="uniFF2A" unicode="&#xff2a;" horiz-adv-x="900" 
d="M277 107q26 -29 58.5 -48t73.5 -19q27 0 48.5 10t35.5 27t21.5 39.5t7.5 48.5v517h208v-506q0 -71 -22 -129t-63.5 -99.5t-101 -63t-134.5 -19.5q-66 3 -126 26.5t-113 71.5z" />
    <glyph glyph-name="uniFF2B" unicode="&#xff2b;" horiz-adv-x="900" 
d="M560 -115l-242 338v-338h-208v797h208v-300l242 300h229l-308 -382l308 -415h-229z" />
    <glyph glyph-name="uniFF2C" unicode="&#xff2c;" horiz-adv-x="900" 
d="M155 682h208v-625h381v-172h-589v797z" />
    <glyph glyph-name="uniFF2D" unicode="&#xff2d;" horiz-adv-x="900" 
d="M682 682h213v-797h-208v398l-163 -398h-149l-163 398v-398h-208v797h213l232 -567z" />
    <glyph glyph-name="uniFF2E" unicode="&#xff2e;" horiz-adv-x="900" 
d="M92 682h208l299 -483v483h208v-797h-208l-299 492v-492h-208v797z" />
    <glyph glyph-name="uniFF2F" unicode="&#xff2f;" horiz-adv-x="900" 
d="M12 285q0 91 33.5 168t92 132.5t138.5 86.5t174 31q95 0 175 -31t138.5 -86.5t91 -132.5t32.5 -168q0 -92 -32.5 -169t-91 -133t-138.5 -87t-175 -31q-94 0 -174 31t-138.5 87t-92 133t-33.5 169zM220 285q0 -55 16.5 -100.5t46.5 -78.5t72.5 -51.5t94.5 -18.5t94.5 18.5
t72.5 51.5t46.5 78.5t16.5 100.5q0 53 -16.5 98t-46.5 78t-72.5 51.5t-94.5 18.5t-94.5 -18.5t-72.5 -51.5t-46.5 -78t-16.5 -98z" />
    <glyph glyph-name="uniFF30" unicode="&#xff30;" horiz-adv-x="900" 
d="M103 682h447q52 0 97.5 -14t78.5 -42.5t52 -73.5t19 -106q0 -60 -15 -102.5t-45 -72t-74.5 -49t-102.5 -32.5l-249 -55v-250h-208v797zM590 441q0 28 -18.5 48.5t-49.5 20.5h-211v-193l190 35q51 9 70 33t19 56z" />
    <glyph glyph-name="uniFF31" unicode="&#xff31;" horiz-adv-x="900" 
d="M12 285q0 91 33.5 168t92 132.5t138.5 86.5t174 31q95 0 175 -31t138.5 -86.5t91 -132.5t32.5 -168q0 -76 -22 -141.5t-63 -117.5l75 -75l-120 -121l-87 87q-48 -25 -103 -38.5t-117 -13.5q-94 0 -174 31t-138.5 87t-92 133t-33.5 169zM583 245l77 -78q20 52 20 118
q0 53 -16.5 98t-46.5 78t-72.5 51.5t-94.5 18.5t-94.5 -18.5t-72.5 -51.5t-46.5 -78t-16.5 -98q0 -55 16.5 -100.5t46.5 -78.5t72.5 -51.5t94.5 -18.5q50 0 88 13l-75 75z" />
    <glyph glyph-name="uniFF32" unicode="&#xff32;" horiz-adv-x="900" 
d="M80 682h447q52 0 97.5 -14t78.5 -42.5t52 -73.5t19 -106q0 -80 -27 -129.5t-80 -79.5l152 -352h-217l-124 292l-190 -42v-250h-208v797zM567 441q0 28 -18.5 48.5t-49.5 20.5h-211v-193l190 35q51 9 70 33t19 56z" />
    <glyph glyph-name="uniFF33" unicode="&#xff33;" horiz-adv-x="900" 
d="M203 145q53 -45 124 -73t146 -27q50 1 73 15t23 42q0 33 -26.5 53t-88.5 37q-53 15 -109 32.5t-102 46.5t-75.5 74t-29.5 116q0 63 24.5 108.5t67 75t99 43.5t119.5 14q44 0 83.5 -6t78 -18.5t76 -31.5t77.5 -46l-82 -160q-48 37 -106 58t-122 23q-21 1 -39.5 -1.5
t-32.5 -9t-22.5 -16.5t-8.5 -25t4.5 -26.5t17.5 -21.5t37.5 -20t65.5 -21q64 -18 120.5 -37.5t98.5 -49t66 -73.5t24 -111q0 -62 -24 -108t-67 -76t-102 -45t-129 -15q-100 0 -186.5 30t-160.5 83z" />
    <glyph glyph-name="uniFF34" unicode="&#xff34;" horiz-adv-x="900" 
d="M554 510v-625h-208v625h-253v172h714v-172h-253z" />
    <glyph glyph-name="uniFF35" unicode="&#xff35;" horiz-adv-x="900" 
d="M449 -135q-74 0 -138.5 23t-113.5 65t-77 101.5t-28 133.5v494h208v-484q0 -32 10 -60t29 -49t47 -33.5t63 -12.5t63 12.5t47.5 33.5t29.5 49t10 60v484h208v-494q0 -74 -28.5 -133.5t-77 -101.5t-114 -65t-138.5 -23z" />
    <glyph glyph-name="uniFF36" unicode="&#xff36;" horiz-adv-x="900" 
d="M257 682l193 -567l193 567h208l-270 -797h-262l-270 797h208z" />
    <glyph glyph-name="uniFF37" unicode="&#xff37;" horiz-adv-x="900" 
d="M552 682l75 -515l73 515h197l-162 -797h-207l-79 498l-77 -498h-206l-162 797h197l70 -504l78 504h203z" />
    <glyph glyph-name="uniFF38" unicode="&#xff38;" horiz-adv-x="900" 
d="M304 682l145 -223l146 223h229l-258 -402l258 -395h-237l-138 214l-137 -214h-237l258 395l-258 402h229z" />
    <glyph glyph-name="uniFF39" unicode="&#xff39;" horiz-adv-x="900" 
d="M294 682l156 -263l156 263h229l-282 -464v-333h-208v336l-280 461h229z" />
    <glyph glyph-name="uniFF3A" unicode="&#xff3a;" horiz-adv-x="900" 
d="M138 -115v172l348 442h-329v183h589v-160l-351 -454h367v-183h-624z" />
    <glyph glyph-name="uniFF3B" unicode="&#xff3b;" horiz-adv-x="900" 
d="M819 732v-172h-131v-543h131v-172h-339v887h339z" />
    <glyph glyph-name="uniFFE6" unicode="&#xffe6;" horiz-adv-x="900" 
d="M497 -115l-322 797h219l330 -797h-227z" />
    <glyph glyph-name="uniFF3D" unicode="&#xff3d;" horiz-adv-x="900" 
d="M419 732v-887h-339v172h131v543h-131v172h339z" />
    <glyph glyph-name="uniFF3E" unicode="&#xff3e;" horiz-adv-x="900" 
d="M545 716l151 -275h-192l-53 110l-53 -110h-195l151 275h191z" />
    <glyph glyph-name="uniFF3F" unicode="&#xff3f;" horiz-adv-x="900" 
d="M226 37h448v-172h-448v172z" />
    <glyph glyph-name="uniFF40" unicode="&#xff40;" horiz-adv-x="900" 
d="M440 451l-166 265h208l144 -265h-186z" />
    <glyph glyph-name="uniFF41" unicode="&#xff41;" horiz-adv-x="900" 
d="M629 478h177v-593h-178l-16 48q-42 -35 -94.5 -52t-108.5 -16q-70 1 -128 25t-100 66t-65 99t-23 125q0 70 24.5 128.5t67 100.5t100 65.5t123.5 23.5q58 0 109 -15t94 -47zM440 37q63 0 101 40t38 103q0 66 -38 105.5t-101 39.5t-101 -39.5t-38 -105.5q0 -63 38 -103
t101 -40z" />
    <glyph glyph-name="uniFF42" unicode="&#xff42;" horiz-adv-x="900" 
d="M300 444q42 28 89.5 41t101.5 13q66 0 123.5 -23.5t100 -65.5t67 -100.5t24.5 -128.5q0 -68 -23 -125t-65 -99t-100 -66t-128 -25q-57 -1 -109 16t-94 52l-16 -48h-178v797h207v-238zM459 37q63 0 101 40t38 103q0 66 -38 105.5t-101 39.5t-101 -39.5t-38 -105.5
q0 -63 38 -103t101 -40z" />
    <glyph glyph-name="uniFF43" unicode="&#xff43;" horiz-adv-x="900" 
d="M484 336q-69 0 -108 -43t-39 -112q0 -33 10 -61t29 -48.5t46 -32.5t62 -12q48 0 86 21.5t64 64.5l135 -113q-26 -33 -56 -59.5t-65 -45.5t-77 -29.5t-92 -10.5q-74 0 -138 23t-111 65.5t-73.5 102.5t-26.5 135t27 135t74 103t110.5 66t137.5 23q94 0 165.5 -38.5
t125.5 -107.5l-136 -112q-24 41 -62 63.5t-88 22.5z" />
    <glyph glyph-name="uniFF44" unicode="&#xff44;" horiz-adv-x="900" 
d="M599 682h207v-797h-178l-16 48q-42 -35 -94.5 -52t-108.5 -16q-70 1 -128 25t-100 66t-65 99t-23 125q0 70 24.5 128.5t67 100.5t100 65.5t123.5 23.5q54 0 101.5 -13t89.5 -41v238zM440 37q63 0 101 40t38 103q0 66 -38 105.5t-101 39.5t-101 -39.5t-38 -105.5
q0 -63 38 -103t101 -40z" />
    <glyph glyph-name="uniFF45" unicode="&#xff45;" horiz-adv-x="900" 
d="M323 74q45 -57 131 -57q60 0 103 18.5t81 59.5l135 -100q-57 -66 -130.5 -103t-172.5 -37q-81 0 -148 22.5t-116 64.5t-76 102.5t-27 136.5q0 74 27.5 134.5t75.5 103t112 66t137 23.5q75 0 138 -22.5t108 -64.5t70.5 -103t25.5 -138zM462 348q-68 0 -112 -33t-56 -92
l292 65q-20 26 -51 43t-73 17z" />
    <glyph glyph-name="uniFF46" unicode="&#xff46;" horiz-adv-x="900" 
d="M535 -115h-208v401h-108v172h108v47q0 40 14.5 73t40 56t58.5 35.5t71 12.5h170v-172h-93q-25 0 -39 -14.5t-14 -37.5h136v-172h-136v-401z" />
    <glyph glyph-name="uniFF47" unicode="&#xff47;" horiz-adv-x="900" 
d="M806 -92q0 -67 -24.5 -122t-68.5 -94.5t-104.5 -62t-132.5 -24.5q-64 -2 -125.5 11t-111 42.5t-81.5 77.5t-37 117h208q2 -19 13 -33.5t28.5 -24t38.5 -14.5t43 -5q28 0 54.5 8t47 23.5t32.5 37.5t12 51v61q-38 -38 -88 -55.5t-101 -16.5q-66 1 -123.5 23.5t-100.5 62.5
t-67.5 95.5t-24.5 123.5q0 70 25.5 127t69 97t100.5 62t120 22q58 0 109 -15t94 -47l18 42h177v-570zM440 57q28 0 53 8.5t44 25t30.5 41.5t11.5 58q0 35 -11.5 60.5t-30.5 42t-44 24.5t-53 8t-53 -8t-44 -24.5t-30.5 -42t-11.5 -60.5q0 -33 11.5 -58t30.5 -41.5t44 -25
t53 -8.5z" />
    <glyph glyph-name="uniFF48" unicode="&#xff48;" horiz-adv-x="900" 
d="M336 446q35 25 77 38.5t79 13.5q60 0 111 -17.5t88.5 -49.5t58.5 -76t21 -97v-373h-208v309q0 37 -9 62.5t-24 41t-34.5 22t-39.5 6.5q-45 0 -77.5 -27.5t-42.5 -72.5v-341h-208v797h208v-236z" />
    <glyph glyph-name="uniFF49" unicode="&#xff49;" horiz-adv-x="900" 
d="M554 478v-593h-208v593h208zM554 710v-172h-208v172h208z" />
    <glyph glyph-name="uniFF4A" unicode="&#xff4a;" horiz-adv-x="900" 
d="M607 710v-172h-208v172h208zM399 478h208v-449q0 -56 -14.5 -95.5t-39.5 -64.5t-58.5 -36t-71.5 -11h-130v172h54q23 0 37.5 14.5t14.5 49.5v420z" />
    <glyph glyph-name="uniFF4B" unicode="&#xff4b;" horiz-adv-x="900" 
d="M515 -115l-178 201v-201h-208v797h208v-376l178 172h249l-283 -272l290 -321h-256z" />
    <glyph glyph-name="uniFF4C" unicode="&#xff4c;" horiz-adv-x="900" 
d="M554 682v-797h-208v797h208z" />
    <glyph glyph-name="uniFF4D" unicode="&#xff4d;" horiz-adv-x="900" 
d="M554 -115h-208v359q0 35 -17.5 58t-50.5 23q-16 0 -27 -7.5t-18.5 -19t-12 -26t-6.5 -28.5v-359h-208v593h178l15 -42q29 34 66.5 47.5t75.5 14.5q45 1 87.5 -20t73.5 -61q37 46 86.5 64t96.5 17q41 -1 79 -18.5t67 -50t46 -78.5t17 -103v-363h-208v359q0 35 -15 58
t-48 23q-31 0 -47.5 -20t-21.5 -51v-369z" />
    <glyph glyph-name="uniFF4E" unicode="&#xff4e;" horiz-adv-x="900" 
d="M322 436q18 14 39 25.5t43.5 19.5t45 12.5t42.5 4.5q60 0 111 -17.5t88.5 -49.5t58.5 -76t21 -97v-373h-208v309q0 37 -9 62.5t-24 41t-34.5 22t-39.5 6.5q-45 0 -77.5 -27.5t-42.5 -72.5v-341h-208v593h178z" />
    <glyph glyph-name="uniFF4F" unicode="&#xff4f;" horiz-adv-x="900" 
d="M94 180q0 76 28.5 137t77 103.5t113 65t137.5 22.5q74 0 139 -22.5t113 -64.5t76 -103t28 -137q0 -75 -28 -135.5t-76 -103t-113 -65t-139 -22.5q-73 0 -137.5 22.5t-113 64.5t-77 102.5t-28.5 135.5zM450 26q34 0 62 12t47 32.5t29.5 48.5t10.5 61q0 34 -10.5 62.5
t-29.5 49.5t-47 32.5t-62 11.5q-35 0 -62.5 -12t-47 -33t-29.5 -49.5t-10 -61.5t10 -61t29.5 -48.5t47 -32.5t62.5 -12z" />
    <glyph glyph-name="uniFF50" unicode="&#xff50;" horiz-adv-x="900" 
d="M270 478l17 -42q44 32 94.5 47t109.5 15q66 0 123.5 -23.5t100 -65.5t67 -100.5t24.5 -128.5q0 -68 -23 -125t-65 -99t-100 -66t-128 -25q-52 -1 -100 13.5t-89 43.5v-268h-208v824h177zM459 37q63 0 101 40t38 103q0 66 -38 105.5t-101 39.5t-101 -39.5t-38 -105.5
q0 -63 38 -103t101 -40z" />
    <glyph glyph-name="uniFF51" unicode="&#xff51;" horiz-adv-x="900" 
d="M629 478h177v-824h-208v268q-41 -29 -89.5 -43.5t-99.5 -13.5q-70 1 -128 25t-100 66t-65 99t-23 125q0 70 24.5 128.5t67 100.5t100 65.5t123.5 23.5q58 0 109 -15t94 -47zM440 37q63 0 101 40t38 103q0 66 -38 105.5t-101 39.5t-101 -39.5t-38 -105.5q0 -63 38 -103
t101 -40z" />
    <glyph glyph-name="uniFF52" unicode="&#xff52;" horiz-adv-x="900" 
d="M415 426q23 26 58 39t73 13h130l-36 -172h-120q-18 0 -34 -8t-28 -22t-19 -33t-7 -41v-317h-208v593h178z" />
    <glyph glyph-name="uniFF53" unicode="&#xff53;" horiz-adv-x="900" 
d="M639 293q-19 12 -41.5 21.5t-45 16.5t-44 11t-37.5 4q-70 0 -70 -35q0 -17 16 -26t42 -16q52 -14 100.5 -30t86 -39.5t59.5 -57t22 -82.5q0 -53 -21.5 -92t-58 -64t-86 -37t-104.5 -12q-75 0 -146.5 21.5t-137.5 66.5l73 143q18 -14 42 -26.5t50 -21.5t53 -14.5t51 -5.5
q42 -1 59.5 7.5t17.5 29.5t-24 32t-57 20q-56 15 -101 31.5t-76.5 40.5t-49 57t-18.5 81q-1 51 21.5 87t59.5 59t83.5 34t94.5 11q79 0 142 -24t112 -54l-67 -137v0z" />
    <glyph glyph-name="uniFF54" unicode="&#xff54;" horiz-adv-x="900" 
d="M535 478h136v-172h-136v-196q0 -24 14 -38.5t39 -14.5h93v-172h-170q-38 0 -71 12.5t-58.5 35.5t-40 55.5t-14.5 73.5v244h-108v172h108v204h208v-204z" />
    <glyph glyph-name="uniFF55" unicode="&#xff55;" horiz-adv-x="900" 
d="M577 -73q-36 -29 -82.5 -45.5t-87.5 -16.5q-60 0 -111 17.5t-88.5 49.5t-58.5 76t-21 97v373h208v-309q0 -37 9 -62.5t24 -41t34.5 -22t39.5 -6.5q45 0 77.5 27.5t42.5 72.5v341h208v-593h-178z" />
    <glyph glyph-name="uniFF56" unicode="&#xff56;" horiz-adv-x="900" 
d="M568 -115h-236l-230 593h214l134 -363l134 363h214z" />
    <glyph glyph-name="uniFF57" unicode="&#xff57;" horiz-adv-x="900" 
d="M549 478l81 -310l87 310h186l-177 -593h-178l-98 370l-98 -370h-178l-177 593h186l86 -310l82 310h198z" />
    <glyph glyph-name="uniFF58" unicode="&#xff58;" horiz-adv-x="900" 
d="M340 478l110 -141l110 141h233l-227 -290l237 -303h-233l-120 153l-120 -153h-233l236 303l-226 290h233z" />
    <glyph glyph-name="uniFF59" unicode="&#xff59;" horiz-adv-x="900" 
d="M771 -92q0 -67 -23 -122t-63.5 -94t-96.5 -61.5t-122 -25.5q-58 -2 -115 10.5t-103 42.5t-76.5 78t-35.5 117h208q4 -38 33 -57.5t65 -19.5q25 0 47 8t38.5 23.5t26 37.5t9.5 51v47q-31 -28 -72.5 -43t-83.5 -15q-60 0 -111 17.5t-88.5 49.5t-58.5 76t-21 97v353h208
v-289q0 -37 9 -62.5t24 -41t34.5 -22t39.5 -6.5q45 0 77.5 27.5t42.5 72.5v321h208v-570z" />
    <glyph glyph-name="uniFF5A" unicode="&#xff5a;" horiz-adv-x="900" 
d="M153 -115v153l302 268h-280v173h551v-152l-306 -270h327v-172h-594z" />
    <glyph glyph-name="uniFF5B" unicode="&#xff5b;" horiz-adv-x="900" 
d="M622 284q64 -14 92.5 -53.5t28.5 -102.5v-39q0 -47 29.5 -64.5t81.5 -17.5v-172q-71 0 -129.5 14.5t-100.5 43t-65.5 71t-23.5 98.5v42q0 52 -23.5 73t-66.5 21v172q43 0 66.5 21t23.5 73v42q0 56 23.5 98.5t65.5 71t100.5 43t129.5 14.5v-172q-52 0 -81.5 -17.5
t-29.5 -64.5v-39q0 -63 -28.5 -102.5t-92.5 -53.5z" />
    <glyph glyph-name="uniFF5C" unicode="&#xff5c;" horiz-adv-x="900" 
d="M554 712v-857h-208v857h208z" />
    <glyph glyph-name="uniFF5D" unicode="&#xff5d;" horiz-adv-x="900" 
d="M277 284q-64 14 -92.5 53.5t-28.5 102.5v39q0 47 -29.5 64.5t-81.5 17.5v172q70 0 129 -14.5t101 -43t65.5 -71t23.5 -98.5v-42q0 -52 23.5 -73t66.5 -21v-172q-43 0 -66.5 -21t-23.5 -73v-42q0 -56 -23.5 -98.5t-65.5 -71t-101 -43t-129 -14.5v172q52 0 81.5 17.5
t29.5 64.5v39q0 63 28.5 102.5t92.5 53.5z" />
    <glyph glyph-name="uniFFE3" unicode="&#xffe3;" horiz-adv-x="940" 
d="M11 685v109h918v-109h-918z" />
    <glyph glyph-name="uni3131" unicode="&#x3131;" horiz-adv-x="900" 
d="M135 418v172h629v-561h-207v389h-422z" />
    <glyph glyph-name="uni3132" unicode="&#x3132;" horiz-adv-x="900" 
d="M413 540v50h381v-561h-208v379h-133v-379h-207v329h-140v182h307z" />
    <glyph glyph-name="uni3133" unicode="&#x3133;" horiz-adv-x="900" 
d="M391 570v-392q72 23 105 64t33 104v231h188v-231q0 -44 -9 -81l167 -102l-91 -142l-155 99q-34 -32 -80.5 -56.5t-108.5 -41.5l-49 118v-111h-207v359h-160v182h367z" />
    <glyph glyph-name="uni3134" unicode="&#x3134;" horiz-adv-x="900" 
d="M764 201v-172h-629v561h207v-389h422z" />
    <glyph glyph-name="uni3135" unicode="&#x3135;" horiz-adv-x="900" 
d="M834 595v-151h-121v-98q0 -44 -9 -81l167 -102l-91 -142l-155 99q-34 -32 -80.5 -56.5t-108.5 -41.5l-58 140v-133h-349v561h207v-389h142v-26q76 23 111.5 64t35.5 107v98h-135v151h444z" />
    <glyph glyph-name="uni3136" unicode="&#x3136;" horiz-adv-x="900" 
d="M363 201v-172h-319v561h207v-389h112zM856 554v-162h-476v162h141v63h196v-63h139zM833 186q0 -39 -15.5 -70t-43.5 -52.5t-67.5 -33t-87.5 -11.5t-87.5 11.5t-67.5 33t-43.5 52.5t-15.5 70t15.5 70t43.5 52.5t67.5 33t87.5 11.5t87.5 -11.5t67.5 -33t43.5 -52.5
t15.5 -70zM680 186q0 17 -16 26t-45 9t-45 -9t-16 -26t16 -26t45 -9t45 9t16 26z" />
    <glyph glyph-name="uni3137" unicode="&#x3137;" horiz-adv-x="900" 
d="M337 418v-217h432v-172h-639v561h629v-172h-422z" />
    <glyph glyph-name="uni3138" unicode="&#x3138;" horiz-adv-x="900" 
d="M429 560v-182h-131v-167h131v-182h-339v531h339zM799 590v-182h-131v-197h141v-182h-349v561h339z" />
    <glyph glyph-name="uni3139" unicode="&#x3139;" horiz-adv-x="900" 
d="M125 434v156h629v-359h-422v-46h442v-156h-649v358h422v47h-422z" />
    <glyph glyph-name="uni313A" unicode="&#x313a;" horiz-adv-x="900" 
d="M70 438v152h370v-357h-173v-52h193v-152h-390v356h173v53h-173zM830 590v-561h-208v379h-143v182h351z" />
    <glyph glyph-name="uni313B" unicode="&#x313b;" horiz-adv-x="900" 
d="M65 438v152h350v-357h-153v-52h158v-152h-355v356h153v53h-153zM835 590v-561h-380v561h380zM622 438v-258h46v258h-46z" />
    <glyph glyph-name="uni313C" unicode="&#x313c;" horiz-adv-x="900" 
d="M617 465h56v126h162v-562h-380v562h162v-126zM65 438v152h350v-357h-153v-52h158v-152h-355v356h153v53h-153zM673 180v134h-56v-134h56z" />
    <glyph glyph-name="uni313D" unicode="&#x313d;" horiz-adv-x="900" 
d="M31 438v152h350v-357h-153v-52h158v-152h-355v356h153v53h-153zM720 366q0 -48 -9 -91l157 -122l-101 -132l-131 105q-30 -32 -71.5 -58t-96.5 -46l-73 142q39 15 65.5 36t42.5 47t22.5 56t6.5 63v211h188v-211z" />
    <glyph glyph-name="uni313E" unicode="&#x313e;" horiz-adv-x="900" 
d="M657 438v-53h172v-152h-172v-52h182v-152h-389v561h379v-152h-172zM60 438v152h350v-357h-153v-52h158v-152h-355v356h153v53h-153z" />
    <glyph glyph-name="uni313F" unicode="&#x313f;" horiz-adv-x="900" 
d="M477 181v257h-42v152h416v-152h-42v-257h42v-152h-416v152h42zM49 438v152h350v-357h-153v-52h158v-152h-355v356h153v53h-153zM618 181h50v257h-50v-257z" />
    <glyph glyph-name="uni3140" unicode="&#x3140;" horiz-adv-x="900" 
d="M49 438v152h350v-357h-153v-52h158v-152h-355v356h153v53h-153zM851 554v-162h-426v162h116v63h196v-63h114zM838 186q0 -78 -51 -122.5t-148 -44.5t-148 44.5t-51 122.5t51 122.5t148 44.5t148 -44.5t51 -122.5zM685 186q0 17 -12.5 26t-33.5 9t-33.5 -9t-12.5 -26
t12.5 -26t33.5 -9t33.5 9t12.5 26z" />
    <glyph glyph-name="uni3141" unicode="&#x3141;" horiz-adv-x="900" 
d="M764 590v-561h-629v561h629zM557 201v217h-215v-217h215z" />
    <glyph glyph-name="uni3142" unicode="&#x3142;" horiz-adv-x="900" 
d="M764 590v-561h-629v561h207v-113h215v113h207zM557 201v104h-215v-104h215z" />
    <glyph glyph-name="uni3143" unicode="&#x3143;" horiz-adv-x="900" 
d="M612 476h54v114h145v-561h-343v561h144v-114zM234 457h54v103h144v-531h-343v531h145v-103zM666 191v124h-54v-124h54zM288 191v105h-54v-105h54z" />
    <glyph glyph-name="uni3144" unicode="&#x3144;" horiz-adv-x="900" 
d="M183 465h56v126h152v-411q68 23 99.5 63.5t31.5 102.5v251h188v-251q0 -44 -9 -81l167 -102l-91 -142l-155 99q-34 -32 -80.5 -56.5t-108.5 -41.5l-42 101v-94h-360v562h152v-126zM239 180v134h-56v-134h56z" />
    <glyph glyph-name="uni3145" unicode="&#x3145;" horiz-adv-x="900" 
d="M551 415q0 -42 -9 -81l271 -170l-112 -148l-245 162q-46 -48 -113.5 -89t-161.5 -73l-94 161q65 24 113.5 47.5t80.5 51.5t47.5 62t15.5 78v186h207v-187z" />
    <glyph glyph-name="uni3146" unicode="&#x3146;" horiz-adv-x="900" 
d="M391 411v-16l134 -80q9 42 9 97v190h187v-191q0 -80 -17 -146l159 -100l-113 -135l-125 85q-34 -36 -79.5 -65t-103.5 -52l-104 126q31 13 58 26.5t50 30.5l-90 56q-31 -71 -87.5 -120t-132.5 -79l-100 131q79 26 123.5 85.5t44.5 157.5v190h187v-191z" />
    <glyph glyph-name="uni3147" unicode="&#x3147;" horiz-adv-x="900" 
d="M450 182q31 0 57.5 9t46.5 26t31.5 40.5t11.5 52.5q0 30 -11.5 53.5t-31.5 40t-46.5 25.5t-57.5 9t-57.5 -9t-46.5 -25.5t-31.5 -40t-11.5 -53.5q0 -29 11.5 -52.5t31.5 -40.5t46.5 -26t57.5 -9zM105 309q0 67 25 121t70 91.5t108.5 58t141.5 20.5t141.5 -20.5t108.5 -58
t70 -91.5t25 -121q0 -66 -25 -119.5t-70 -91.5t-108.5 -58.5t-141.5 -20.5t-141.5 20.5t-108.5 58.5t-70 91.5t-25 119.5z" />
    <glyph glyph-name="uni3148" unicode="&#x3148;" horiz-adv-x="900" 
d="M770 590v-161h-219v-54q0 -37 -12 -74l274 -137l-112 -148l-258 137q-45 -43 -110 -78.5t-152 -58.5l-94 161q131 33 194 86.5t63 112.5v53h-219v161h645z" />
    <glyph glyph-name="uni3149" unicode="&#x3149;" horiz-adv-x="900" 
d="M338 124q27 11 51.5 21.5t45.5 22.5l-81 50q-32 -65 -87.5 -108t-130.5 -72l-100 131q39 13 70.5 31t53 44.5t33 62.5t11.5 85v26h-129v172h765v-172h-119v-27q0 -37 -3.5 -68.5t-9.5 -59.5l155 -98l-113 -135l-121 82q-34 -35 -80.5 -62.5t-106.5 -51.5zM525 296
q9 39 9 96v26h-143v-27v-16z" />
    <glyph glyph-name="uni314A" unicode="&#x314a;" horiz-adv-x="900" 
d="M551 560h219v-172h-219v-23q0 -32 -8 -66l270 -135l-112 -148l-250 133q-46 -42 -112.5 -75.5t-157.5 -57.5l-94 161q65 17 113.5 35t80.5 40t47.5 49.5t15.5 64.5v22h-219v172h219v78h207v-78z" />
    <glyph glyph-name="uni314B" unicode="&#x314b;" horiz-adv-x="900" 
d="M135 418v172h629v-561h-207v114h-422v172h422v103h-422z" />
    <glyph glyph-name="uni314C" unicode="&#x314c;" horiz-adv-x="900" 
d="M337 434v-47h422v-156h-422v-46h432v-156h-639v561h629v-156h-422z" />
    <glyph glyph-name="uni314D" unicode="&#x314d;" horiz-adv-x="900" 
d="M794 29h-689v162h80v237h-80v162h689v-162h-80v-237h80v-162zM392 191h115v237h-115v-237z" />
    <glyph glyph-name="uni314E" unicode="&#x314e;" horiz-adv-x="900" 
d="M450 354q78 0 135 -13t94.5 -35.5t55.5 -53.5t18 -66q0 -36 -18 -67t-55.5 -53.5t-94.5 -35t-135 -12.5t-135 12.5t-94.5 35t-55.5 53.5t-18 67q0 35 18 66t55.5 53.5t94.5 35.5t135 13zM553 560h224v-172h-655v172h224v78h207v-78zM450 221q-45 0 -70.5 -9t-25.5 -26
t25.5 -26.5t70.5 -9.5t70.5 9.5t25.5 26.5t-25.5 26t-70.5 9z" />
    <glyph glyph-name="uni314F" unicode="&#x314f;" horiz-adv-x="900" 
d="M510 437h87v-172h-87v-381h-207v846h207v-293z" />
    <glyph glyph-name="uni3150" unicode="&#x3150;" horiz-adv-x="900" 
d="M229 -116v846h194v-320l53 18v302h195v-846h-195v355l-53 -18v-337h-194z" />
    <glyph glyph-name="uni3151" unicode="&#x3151;" horiz-adv-x="900" 
d="M510 567h87v-172h-87v-158h87v-172h-87v-181h-207v846h207v-163z" />
    <glyph glyph-name="uni3152" unicode="&#x3152;" horiz-adv-x="900" 
d="M476 -116v176l-53 -18v-158h-194v846h194v-159l53 18v141h195v-846h-195zM423 231l53 18v151l-53 -18v-151z" />
    <glyph glyph-name="uni3153" unicode="&#x3153;" horiz-adv-x="900" 
d="M631 -116h-207v345l-155 -52v189l155 52v312h207v-846z" />
    <glyph glyph-name="uni3154" unicode="&#x3154;" horiz-adv-x="900" 
d="M314 240l-161 -54v189l161 54v301h194v-846h-194v356zM551 -116v846h195v-846h-195z" />
    <glyph glyph-name="uni3155" unicode="&#x3155;" horiz-adv-x="900" 
d="M631 -116h-207v175l-155 -52v189l155 52v151l-155 -52v189l155 52v142h207v-846z" />
    <glyph glyph-name="uni3156" unicode="&#x3156;" horiz-adv-x="900" 
d="M314 -116v157l-160 -54v189l160 54v161l-160 -54v189l160 54v150h194v-846h-194zM746 -116h-195v846h195v-846z" />
    <glyph glyph-name="uni3157" unicode="&#x3157;" horiz-adv-x="900" 
d="M47 266h299v304h207v-304h299v-172h-805v172z" />
    <glyph glyph-name="uni3158" unicode="&#x3158;" horiz-adv-x="900" 
d="M791 437h87v-172h-87v-381h-207v846h207v-293zM175 76v144h207v-144h163v-171h-524v171h154z" />
    <glyph glyph-name="uni3159" unicode="&#x3159;" horiz-adv-x="900" 
d="M482 -116v846h169v-318l53 18v300h170v-846h-170v357l-53 -18v-339h-169zM149 76v143h187v-143h118v-171h-429v171h124z" />
    <glyph glyph-name="uni315A" unicode="&#x315a;" horiz-adv-x="900" 
d="M845 -116h-207v846h207v-846zM219 76v144h207v-144h173v-171h-544v171h164z" />
    <glyph glyph-name="uni315B" unicode="&#x315b;" horiz-adv-x="900" 
d="M47 266h129v304h207v-304h133v304h207v-304h129v-172h-805v172z" />
    <glyph glyph-name="uni315C" unicode="&#x315c;" horiz-adv-x="900" 
d="M47 529h805v-172h-299v-294h-207v294h-299v172z" />
    <glyph glyph-name="uni315D" unicode="&#x315d;" horiz-adv-x="900" 
d="M638 79v651h207v-846h-207v34h-167v161h167zM209 -116v226h-154v171h544v-171h-183v-226h-207z" />
    <glyph glyph-name="uni315E" unicode="&#x315e;" horiz-adv-x="900" 
d="M495 79v651h169v-846h-169v34h-126v161h126zM877 -116h-170v846h170v-846zM142 -116v226h-119v171h439v-171h-133v-226h-187z" />
    <glyph glyph-name="uni315F" unicode="&#x315f;" horiz-adv-x="900" 
d="M845 -116h-207v846h207v-846zM209 -116v211h-154v171h544v-171h-183v-211h-207z" />
    <glyph glyph-name="uni3160" unicode="&#x3160;" horiz-adv-x="900" 
d="M47 529h805v-172h-119v-294h-207v294h-153v-294h-207v294h-119v172z" />
    <glyph glyph-name="uni3161" unicode="&#x3161;" horiz-adv-x="900" 
d="M47 56h805v-172h-805v172z" />
    <glyph glyph-name="uni3162" unicode="&#x3162;" horiz-adv-x="900" 
d="M599 76v-171h-544v171h544zM845 -116h-207v846h207v-846z" />
    <glyph glyph-name="uni3163" unicode="&#x3163;" horiz-adv-x="900" 
d="M553 -116h-207v846h207v-846z" />
    <glyph glyph-name="uni3164" unicode="&#x3164;" horiz-adv-x="940" 
 />
    <glyph glyph-name="uni3165" unicode="&#x3165;" horiz-adv-x="940" 
d="M143 67v511h168v-378h138v-133h-306zM488 67v511h168v-378h141v-133h-309z" />
    <glyph glyph-name="uni3166" unicode="&#x3166;" horiz-adv-x="940" 
d="M807 578v-132h-152v-248h157v-132h-324v512h319zM143 67v511h168v-378h138v-133h-306z" />
    <glyph glyph-name="uni3167" unicode="&#x3167;" horiz-adv-x="940" 
d="M749 368q0 -72 40 -122t103 -75l-75 -105q-88 33 -150 110q-32 -37 -66.5 -64t-81.5 -45l-76 105q29 12 55 30.5t45.5 42.5t30.5 54.5t11 68.5v215h164v-215zM430 67v133h-119v378h-168v-511h287z" />
    <glyph glyph-name="uni3168" unicode="&#x3168;" horiz-adv-x="940" 
d="M389 67l233 527l236 -527h-469zM624 292l-42 -116h84zM85 67v511h168v-378h119v-133h-287z" />
    <glyph glyph-name="uni3169" unicode="&#x3169;" horiz-adv-x="940" 
d="M420 67v379h-92v132h259v-379q48 39 66.5 91.5t18.5 112.5v180h163v-180q0 -36 6 -69t20.5 -62.5t39 -55t60.5 -44.5l-78 -107q-46 22 -77.5 53.5t-52.5 60.5q-20 -30 -49.5 -60.5t-79.5 -53.5l-37 51v-49h-167zM33 67v322h112v57h-112v132h271v-323h-111v-56h140v-132
h-300z" />
    <glyph glyph-name="uni316A" unicode="&#x316a;" horiz-adv-x="940" 
d="M113 67v322h168v57h-168v132h334v-323h-167v-56h177v-132h-344zM822 578v-132h-165v-248h176v-132h-343v512h332z" />
    <glyph glyph-name="uni316B" unicode="&#x316b;" horiz-adv-x="940" 
d="M880 67q-46 22 -76 52.5t-51 59.5q-20 -30 -48 -60t-78 -53l-32 44v-44h-271v512h125v-148h21v148h125v-374q44 38 60.5 89t16.5 110v180h163v-180q0 -36 5.5 -68.5t19.5 -62t38 -54.5t60 -44zM33 67v321h114v60h-114v130h270v-322h-113v-59h118v-130h-275zM470 190v115
h-21v-115h21z" />
    <glyph glyph-name="uni316C" unicode="&#x316c;" horiz-adv-x="940" 
d="M95 67v322h154v57h-154v132h321v-323h-153v-56h153v-132h-321zM422 67l231 527l234 -527h-465zM655 292l-42 -116h84z" />
    <glyph glyph-name="uni316D" unicode="&#x316d;" horiz-adv-x="940" 
d="M647 57q-85 0 -131.5 48.5t-46.5 134.5q0 85 46.5 135t131.5 50t131.5 -50t46.5 -135t-46.5 -134t-131.5 -49zM647 302q-18 0 -25 -17.5t-7 -44.5q0 -28 7 -44.5t25 -16.5t25 16.5t7 44.5q0 27 -7 44.5t-25 17.5zM450 446v132h392v-132h-392zM95 67v322h165v57h-165v132
h332v-323h-164v-56h170v-132h-338z" />
    <glyph glyph-name="uni316E" unicode="&#x316e;" horiz-adv-x="940" 
d="M110 67v511h339v-511h-339zM640 446h39v132h150v-511h-339v511h150v-132zM297 453h-35v-261h35v261zM679 319h-39v-127h39v127z" />
    <glyph glyph-name="uni316F" unicode="&#x316f;" horiz-adv-x="940" 
d="M433 67v511h-333v-511h333zM749 368q0 -72 40 -122t103 -75l-75 -105q-88 33 -150 110q-32 -37 -66.5 -64t-81.5 -45l-76 105q29 12 55 30.5t45.5 42.5t30.5 54.5t11 68.5v215h164v-215zM285 190h-37v265h37v-265z" />
    <glyph glyph-name="uni3170" unicode="&#x3170;" horiz-adv-x="940" 
d="M90 67v511h332v-511h-332zM275 455h-38v-265h38v265zM432 67l231 527l234 -527h-465zM665 292l-42 -116h84z" />
    <glyph glyph-name="uni3171" unicode="&#x3171;" horiz-adv-x="940" 
d="M216 317v361h507v-361h-507zM558 546h-177v-98h177v98zM470 -35q-83 0 -130.5 41.5t-47.5 110.5q0 67 47.5 109.5t130.5 42.5t130.5 -42.5t47.5 -109.5q0 -68 -47.5 -110t-130.5 -42zM470 150q-18 0 -28 -9t-10 -24t10 -24.5t28 -9.5t28 9.5t10 24.5t-10 24t-28 9z" />
    <glyph glyph-name="uni3172" unicode="&#x3172;" horiz-adv-x="940" 
d="M261 446h35v132h152v-511h-339v511h152v-132zM660 67v379h-171v132h338v-511h-167zM296 319h-35v-127h35v127z" />
    <glyph glyph-name="uni3173" unicode="&#x3173;" horiz-adv-x="940" 
d="M261 446h35v132h152v-511h-339v511h152v-132zM822 578v-132h-167v-248h172v-132h-339v512h334zM296 319h-35v-127h35v127z" />
    <glyph glyph-name="uni3174" unicode="&#x3174;" horiz-adv-x="940" 
d="M313 578v-408q63 42 86.5 101t23.5 132v180h155v-181q0 -38 6 -72t20.5 -64t39 -56t61.5 -47l-73 -103q-44 22 -74.5 50.5t-59.5 64.5q-23 -33 -53 -62t-75 -53l-57 80v-74h-279v512h128v-146h23v146h128zM739 67v379h-116v132h283v-511h-167zM185 190v115h-23v-115h23z
" />
    <glyph glyph-name="uni3175" unicode="&#x3175;" horiz-adv-x="940" 
d="M306 578v-387q53 40 70.5 92t17.5 120v180h155v-181q0 -33 3.5 -62t12.5 -55t25.5 -49t42.5 -43v385h283v-132h-124v-248h133v-132h-292v50l-35 -49q-40 20 -70 47t-58 63q-21 -30 -49.5 -58.5t-74.5 -51.5l-40 55v-56h-272v512h126v-146h20v146h126zM180 190v115h-20
v-115h20z" />
    <glyph glyph-name="uni3176" unicode="&#x3176;" horiz-adv-x="940" 
d="M244 446h41v132h148v-511h-337v511h148v-132zM853 446h-111v-78q0 -75 34.5 -120.5t96.5 -72.5l-75 -103q-43 17 -76.5 41t-62.5 62q-29 -36 -60 -60t-76 -44l-76 103q61 27 96 73t35 121v78h-111v132h386v-132zM285 319h-41v-127h41v127z" />
    <glyph glyph-name="uni3177" unicode="&#x3177;" horiz-adv-x="940" 
d="M258 446h42v132h148v-511h-338v511h148v-132zM812 258h-159v-60h174v-131h-338v511h333v-131h-169v-57h159v-132zM300 319h-42v-127h42v127z" />
    <glyph glyph-name="uni3178" unicode="&#x3178;" horiz-adv-x="940" 
d="M723 688v-371h-507v371h163v-63h181v63h163zM470 -35q-83 0 -130.5 41.5t-47.5 110.5q0 67 47.5 109.5t130.5 42.5t130.5 -42.5t47.5 -109.5q0 -68 -47.5 -110t-130.5 -42zM560 448v46h-181v-46h181zM470 150q-18 0 -28 -9t-10 -24t10 -24.5t28 -9.5t28 9.5t10 24.5
t-10 24t-28 9z" />
    <glyph glyph-name="uni3179" unicode="&#x3179;" horiz-adv-x="940" 
d="M626 618h33v70h138v-371h-309v371h138v-70zM282 618h33v70h138v-371h-309v371h138v-70zM470 -35q-83 0 -130.5 41.5t-47.5 110.5q0 67 47.5 109.5t130.5 42.5t130.5 -42.5t47.5 -109.5q0 -68 -47.5 -110t-130.5 -42zM470 150q-18 0 -28 -9t-10 -24t10 -24.5t28 -9.5
t28 9.5t10 24.5t-10 24t-28 9zM315 494h-33v-53h33v53zM659 494h-33v-53h33v53z" />
    <glyph glyph-name="uni317A" unicode="&#x317a;" horiz-adv-x="940" 
d="M395 365q0 -72 40 -119.5t121 -82.5l-76 -106q-48 18 -90.5 45t-78.5 71q-33 -38 -73 -67.5t-92 -48.5l-76 105q81 35 121 83t40 120v218h164v-218zM811 67v511h-354v-132h187v-379h167z" />
    <glyph glyph-name="uni317B" unicode="&#x317b;" horiz-adv-x="940" 
d="M863 67v137h-170v374h-166v-511h336zM374 365q0 -21 6.5 -48t22.5 -54t42 -50.5t65 -37.5l-76 -106q-46 18 -77 42t-65 63q-32 -38 -66 -63t-81 -44l-76 105q27 11 52.5 28.5t46 42.5t32.5 56t12 69v215h162v-218z" />
    <glyph glyph-name="uni317C" unicode="&#x317c;" horiz-adv-x="940" 
d="M527 578v-512h331v130h-170v252h165v130h-326zM374 365q0 -21 6.5 -48t22.5 -54t42 -50.5t65 -37.5l-76 -106q-46 18 -77 42t-65 63q-32 -38 -66 -63t-81 -44l-76 105q27 11 52.5 28.5t46 42.5t32.5 56t12 69v215h162v-218z" />
    <glyph glyph-name="uni317D" unicode="&#x317d;" horiz-adv-x="940" 
d="M673 578h-146v-511h332v511h-146v-132h-40v132zM374 365q0 -21 6.5 -48t22.5 -54t42 -50.5t65 -37.5l-76 -106q-46 18 -77 42t-65 63q-32 -38 -66 -63t-81 -44l-76 105q27 11 52.5 28.5t46 42.5t32.5 56t12 69v215h162v-218zM713 192h-40v127h40v-127z" />
    <glyph glyph-name="uni317E" unicode="&#x317e;" horiz-adv-x="940" 
d="M741 365q0 -21 6 -48.5t23.5 -56t49 -54t81.5 -42.5l-76 -106q-30 10 -53 22t-42.5 26.5t-36.5 31t-34 36.5q-33 -39 -72.5 -69t-91.5 -47l-34 46l-33 -46q-30 10 -53 22t-42.5 26.5t-36.5 31t-34 36.5q-33 -39 -72.5 -69t-91.5 -47l-76 105q72 26 116 77.5t44 127.5v215
h162v-218q0 -19 4.5 -43t17.5 -48.5t36 -48.5t59 -43q54 29 86 75.5t32 110.5v78h-112v132h386v-132h-112v-81z" />
    <glyph glyph-name="uni317F" unicode="&#x317f;" horiz-adv-x="940" 
d="M130 66l340 550l335 -550h-675zM470 356l-102 -173h196z" />
    <glyph glyph-name="uni3180" unicode="&#x3180;" horiz-adv-x="940" 
d="M95 320q0 51 14.5 88t39 62t57 37t69.5 12t69.5 -12t57 -37t38.5 -62t14 -88t-14 -88t-38.5 -61.5t-57 -36.5t-69.5 -12t-69.5 12t-57 36.5t-39 61.5t-14.5 88zM313 320q0 34 -9 55.5t-29 21.5t-29 -21.5t-9 -54.5q0 -35 9 -57t29 -22t29 22t9 56zM484 320q0 51 14.5 88
t39 62t57 37t69.5 12t69.5 -12t57 -37t38.5 -62t14 -88t-14 -88t-38.5 -61.5t-57 -36.5t-69.5 -12t-69.5 12t-57 36.5t-39 61.5t-14.5 88zM702 320q0 34 -9 55.5t-29 21.5t-29 -21.5t-9 -54.5q0 -35 9 -57t29 -22t29 22t9 56z" />
    <glyph glyph-name="uni3181" unicode="&#x3181;" horiz-adv-x="940" 
d="M190 302q0 50 15 90.5t41.5 71t63 50.5t79.5 30v79h163v-79q43 -10 79.5 -30t63.5 -50.5t42 -71t15 -90.5q0 -62 -22 -108.5t-60 -78.5t-89.5 -48t-110.5 -16t-110 16.5t-88.5 48t-59.5 78.5t-22 108zM603 302q0 59 -35.5 91t-97.5 32q-59 0 -95 -32t-36 -90
q0 -60 36 -92t95 -32q62 0 97.5 32t35.5 91z" />
    <glyph glyph-name="uni3182" unicode="&#x3182;" horiz-adv-x="940" 
d="M61 302q0 93 31.5 154t97.5 84v83h163v-83q65 -23 97 -83.5t32 -154.5q0 -119 -52.5 -185t-158.5 -66t-158 66.5t-52 184.5zM768 368q0 -74 36.5 -121t95.5 -73l-73 -106q-39 17 -76 42.5t-66 63.5q-29 -37 -60 -60.5t-75 -43.5l-76 104q58 29 94 74.5t36 119.5v215h164
v-215zM334 302q0 57 -13 91t-50 34q-35 0 -48.5 -33.5t-13.5 -90.5q0 -58 13.5 -92t48.5 -34q37 0 50 34t13 91z" />
    <glyph glyph-name="uni3183" unicode="&#x3183;" horiz-adv-x="940" 
d="M41 302q0 93 31.5 154t97.5 84v83h163v-83q65 -23 97 -83.5t32 -154.5q0 -119 -52.5 -185t-158.5 -66t-158 66.5t-52 184.5zM439 67l234 527l235 -527h-469zM314 302q0 57 -13 91t-50 34q-35 0 -48.5 -33.5t-13.5 -90.5q0 -58 13.5 -92t48.5 -34q37 0 50 34t13 91z
M675 291l-46 -116h90z" />
    <glyph glyph-name="uni3184" unicode="&#x3184;" horiz-adv-x="940" 
d="M182 317v132h84l-12 72l165 20l14 -92h81l15 92l165 -20l-12 -72h75v-132h-575zM470 -35q-83 0 -130.5 41.5t-47.5 110.5q0 67 47.5 109.5t130.5 42.5t130.5 -42.5t47.5 -109.5q0 -68 -47.5 -110t-130.5 -42zM202 556v132h535v-132h-535zM470 150q-18 0 -28 -9t-10 -24
t10 -24.5t28 -9.5t28 9.5t10 24.5t-10 24t-28 9z" />
    <glyph glyph-name="uni3185" unicode="&#x3185;" horiz-adv-x="940" 
d="M134 486v126h247v-126h-247zM51 344v126h408v-126h-408zM258 49q-81 0 -129.5 36.5t-48.5 105.5q0 67 48.5 104.5t129.5 37.5t129.5 -37.5t48.5 -104.5q0 -68 -48.5 -105t-129.5 -37zM258 223q-16 0 -26 -7.5t-10 -24.5q0 -15 10 -24.5t26 -9.5t26 9.5t10 24.5
q0 17 -10 24.5t-26 7.5zM559 486v126h247v-126h-247zM480 344v126h408v-126h-408zM683 49q-81 0 -129.5 36.5t-48.5 105.5q0 67 48.5 104.5t129.5 37.5t129.5 -37.5t48.5 -104.5q0 -68 -48.5 -105t-129.5 -37zM683 223q-16 0 -26 -7.5t-10 -24.5q0 -15 10 -24.5t26 -9.5
t26 9.5t10 24.5q0 17 -10 24.5t-26 7.5z" />
    <glyph glyph-name="uni3186" unicode="&#x3186;" horiz-adv-x="940" 
d="M174 446v132h592v-132h-592zM220 235q0 91 65 137.5t185 46.5q121 0 186 -46.5t65 -137.5t-65 -137.5t-186 -46.5q-120 0 -185 46.5t-65 137.5zM567 235q0 31 -23 47.5t-74 16.5q-49 0 -72.5 -16.5t-23.5 -46.5q0 -65 96 -65q51 0 74 16.5t23 47.5z" />
    <glyph glyph-name="uni3187" unicode="&#x3187;" horiz-adv-x="940" 
d="M807 576h127v-138h-127v-152h127v-138h-127v-310h-167v937h167v-199zM615 49q-76 -10 -149 -17t-145.5 -12t-145.5 -8t-149 -4l-21 136q60 0 119 3v276h168v-268l45 3v265h168v-249q21 2 42.5 4.5t44.5 5.5z" />
    <glyph glyph-name="uni3188" unicode="&#x3188;" horiz-adv-x="940" 
d="M682 583h31v192h165v-940h-165v315h-31v-269h-164v874h164v-172zM494 32q-119 -11 -233.5 -16.5t-234.5 -7.5l-22 135q15 0 30.5 0.5t31.5 0.5v279h168v-272q10 1 19.5 1t19.5 1v270h168v-258l33 3zM682 287h31v159h-31v-159z" />
    <glyph glyph-name="uni3189" unicode="&#x3189;" horiz-adv-x="940" 
d="M666 49q-155 -20 -312.5 -29.5t-307.5 -11.5l-21 136q57 0 119 3v275h168v-268q17 2 33 2.5t33 1.5v264h168v-250q25 2 49 5t49 6zM857 -162h-167v937h167v-937z" />
    <glyph glyph-name="uni318A" unicode="&#x318a;" horiz-adv-x="940" 
d="M158 -151v400q-30 -1 -59.5 -1h-58.5l-21 133q155 1 317.5 10.5t314.5 29.5l23 -131q-33 -5 -67 -9l-68 -8v-424h-168v410l-45 -3v-407h-168zM689 87v32h-103v134h103v526h169v-945h-169v119h-103v134h103z" />
    <glyph glyph-name="uni318B" unicode="&#x318b;" horiz-adv-x="940" 
d="M73 -112v364q-14 -1 -27 -1h-26l-21 133q121 1 246 7t252 17l21 -130l-42 -4l-42 -4v-382h-163v372q-9 -1 -18 -1.5t-17 -0.5v-370h-163zM524 88v32h-50v134h50v505h163v-882h-163v77h-50v134h50zM715 -169v948h164v-948h-164z" />
    <glyph glyph-name="uni318C" unicode="&#x318c;" horiz-adv-x="940" 
d="M158 -151v300q-30 -1 -59.5 -1h-58.5l-21 133q155 1 317.5 10.5t314.5 29.5l23 -131q-33 -5 -67 -9l-68 -8v-324h-168v310l-45 -3v-307h-168zM858 -166h-169v945h169v-945z" />
    <glyph glyph-name="uni318D" unicode="&#x318d;" horiz-adv-x="940" 
d="M590 321q0 -25 -9 -46.5t-25.5 -37t-38.5 -24t-47 -8.5q-26 0 -48 8.5t-38.5 24t-25.5 37t-9 46.5t9 46.5t25.5 37.5t38.5 24.5t48 8.5q25 0 47 -8.5t38.5 -24.5t25.5 -37.5t9 -46.5z" />
    <glyph glyph-name="uni318E" unicode="&#x318e;" horiz-adv-x="940" 
d="M445 328q0 -45 -30 -73.5t-75 -28.5t-75 28.5t-30 73.5t30 73t75 28t75 -28t30 -73zM713 -162h-169v937h169v-937z" />
    <glyph glyph-name="uni2170" unicode="&#x2170;" horiz-adv-x="940" 
d="M389 478h162v-528h-162v528zM551 529h-162v153h162v-153z" />
    <glyph glyph-name="uni2171" unicode="&#x2171;" horiz-adv-x="940" 
d="M269 478h162v-528h-162v528zM431 529h-162v153h162v-153zM509 478h162v-528h-162v528zM671 529h-162v153h162v-153z" />
    <glyph glyph-name="uni2172" unicode="&#x2172;" horiz-adv-x="940" 
d="M149 478h162v-528h-162v528zM311 529h-162v153h162v-153zM389 478h162v-528h-162v528zM551 529h-162v153h162v-153zM629 478h162v-528h-162v528zM791 529h-162v153h162v-153z" />
    <glyph glyph-name="uni2173" unicode="&#x2173;" horiz-adv-x="940" 
d="M488 478l99 -290l102 290h160l-195 -528h-138l-193 528h165zM136 478h162v-528h-162v528zM298 529h-162v153h162v-153z" />
    <glyph glyph-name="uni2174" unicode="&#x2174;" horiz-adv-x="940" 
d="M372 478l99 -290l102 290h160l-195 -528h-138l-193 528h165z" />
    <glyph glyph-name="uni2175" unicode="&#x2175;" horiz-adv-x="940" 
d="M257 478l99 -290l102 290h160l-195 -528h-138l-193 528h165zM638 478h162v-528h-162v528zM800 529h-162v153h162v-153z" />
    <glyph glyph-name="uni2176" unicode="&#x2176;" horiz-adv-x="940" 
d="M206 479l85 -291l84 290h155l-170 -528h-138l-174 529h158zM715 478h151v-528h-151v528zM544 478h151v-528h-151v528zM866 529h-151v153h151v-153zM695 529h-151v153h151v-153z" />
    <glyph glyph-name="uni2177" unicode="&#x2177;" horiz-adv-x="940" 
d="M177 478l43 -255l45 255h136l-108 -528h-138l-117 528h139zM573 478h141v-532h-141v532zM730 478h141v-532h-141v532zM415 478h141v-532h-141v532zM556 529h-141v153h141v-153zM871 529h-141v153h141v-153zM714 529h-141v153h141v-153z" />
    <glyph glyph-name="uni2178" unicode="&#x2178;" horiz-adv-x="940" 
d="M490 213l-179 265h173l93 -137l93 137h173l-179 -265l179 -263h-175l-91 134l-90 -134h-175zM136 478h162v-528h-162v528zM298 529h-162v153h162v-153z" />
    <glyph glyph-name="uni2179" unicode="&#x2179;" horiz-adv-x="940" 
d="M386 213l-179 265h173l93 -137l93 137h173l-179 -265l179 -263h-175l-91 134l-90 -134h-175z" />
    <glyph glyph-name="uni2160" unicode="&#x2160;" horiz-adv-x="940" 
d="M551 -49h-165v727h165v-727z" />
    <glyph glyph-name="uni2161" unicode="&#x2161;" horiz-adv-x="940" 
d="M431 -49h-165v727h165v-727zM671 -49h-165v727h165v-727z" />
    <glyph glyph-name="uni2162" unicode="&#x2162;" horiz-adv-x="940" 
d="M311 -49h-165v727h165v-727zM552 -49h-165v727h165v-727zM792 -49h-165v727h165v-727z" />
    <glyph glyph-name="uni2163" unicode="&#x2163;" horiz-adv-x="940" 
d="M576 230l136 447h164l-233 -727h-131l-234 727h164zM268 -49h-165v727h165v-727z" />
    <glyph glyph-name="uni2164" unicode="&#x2164;" horiz-adv-x="940" 
d="M468 229l138 448h164l-237 -727h-131l-234 727h164z" />
    <glyph glyph-name="uni2165" unicode="&#x2165;" horiz-adv-x="940" 
d="M358 230l136 447h164l-233 -727h-131l-234 727h164zM836 -49h-165v727h165v-727z" />
    <glyph glyph-name="uni2166" unicode="&#x2166;" horiz-adv-x="940" 
d="M288 283l85 394h156l-173 -727h-135l-172 727h156zM866 -50h-155v727h155v-727zM696 -50h-155v727h155v-727z" />
    <glyph glyph-name="uni2167" unicode="&#x2167;" horiz-adv-x="940" 
d="M207 325l46 352h139l-110 -731h-145l-111 731h138zM867 -50h-143v727h143v-727zM709 -50h-143v727h143v-727zM551 -50h-143v727h143v-727z" />
    <glyph glyph-name="uni2168" unicode="&#x2168;" horiz-adv-x="940" 
d="M493 314l-209 363h178l120 -208l119 208h178l-207 -363l211 -364h-180l-120 208l-119 -208h-180zM276 -50h-165v727h165v-727z" />
    <glyph glyph-name="uni2169" unicode="&#x2169;" horiz-adv-x="940" 
d="M469 171l-140 -227h-180l231 373l-226 368h179l137 -222l137 222h179l-227 -368l230 -373h-180z" />
    <glyph glyph-name="Alpha" unicode="&#x391;" horiz-adv-x="600" 
d="M399 117h-201l-52 -167h-158l242 727h139l240 -727h-157zM237 242h123l-62 197z" />
    <glyph glyph-name="Beta" unicode="&#x392;" horiz-adv-x="570" 
d="M275 677q58 0 102.5 -10t75.5 -33t47 -59.5t16 -88.5q0 -23 -3 -44t-11 -39.5t-22.5 -34.5t-37.5 -31q55 -26 81 -71t26 -101q0 -59 -16 -100t-47 -66.5t-75 -37t-101 -11.5h-257v727h222zM297 82q47 0 70.5 17.5t23.5 66.5q0 46 -27.5 69.5t-76.5 23.5h-86v-177h96z
M264 391q46 0 70 20.5t24 69.5q0 40 -23.5 52t-61.5 12h-72v-154h63z" />
    <glyph glyph-name="Gamma" unicode="&#x393;" horiz-adv-x="530" 
d="M63 -51v728h445v-134h-278v-594h-167z" />
    <glyph glyph-name="uni0394" unicode="&#x394;" horiz-adv-x="640" 
d="M-4 -50l279 727h106l262 -727h-647zM324 409l-117 -327h225z" />
    <glyph glyph-name="Epsilon" unicode="&#x395;" horiz-adv-x="560" 
d="M215 259v-176h319v-133h-481v727h465v-133h-303v-153h287v-132h-287z" />
    <glyph glyph-name="Zeta" unicode="&#x396;" horiz-adv-x="570" 
d="M343 544h-318v133h525v-89l-337 -505h342v-133h-549v88z" />
    <glyph glyph-name="Eta" unicode="&#x397;" horiz-adv-x="660" 
d="M218 391h223v286h165v-727h-165v309h-223v-309h-165v727h165v-286z" />
    <glyph glyph-name="Theta" unicode="&#x398;" horiz-adv-x="700" 
d="M350 -65q-73 0 -133 24t-103 71.5t-66.5 116.5t-23.5 159q0 93 23 164.5t66 119.5t103 72.5t134 24.5t134 -24.5t103 -72.5t66 -119.5t23 -164.5q0 -90 -23.5 -159t-66.5 -116.5t-103 -71.5t-133 -24zM350 558q-45 0 -77.5 -19t-53.5 -52.5t-30.5 -79.5t-9.5 -101
t10.5 -99.5t32 -76t53.5 -48.5t75 -17t75 17t53.5 48.5t32 76t10.5 99.5t-9.5 101t-30.5 79.5t-53.5 52.5t-77.5 19zM203 239v132h294v-132h-294z" />
    <glyph glyph-name="Iota" unicode="&#x399;" horiz-adv-x="241" 
d="M202 -50h-165v727h165v-727z" />
    <glyph glyph-name="Kappa" unicode="&#x39a;" horiz-adv-x="593" 
d="M339 365l318 -415h-188l-235 307l-18 -20v-287h-163v727h163v-242l236 243h190z" />
    <glyph glyph-name="Lambda" unicode="&#x39b;" horiz-adv-x="600" 
d="M-5 -50l238 727h133l238 -727h-170l-136 447l-133 -447h-170z" />
    <glyph glyph-name="Mu" unicode="&#x39c;" horiz-adv-x="780" 
d="M553 677h173v-727h-143v378l-122 -378h-143l-122 378v-378h-143v727h173l163 -517z" />
    <glyph glyph-name="Nu" unicode="&#x39d;" horiz-adv-x="665" 
d="M615 -50h-172l-235 462v-463h-155v728h172l235 -459v459h155v-727z" />
    <glyph glyph-name="Xi" unicode="&#x39e;" horiz-adv-x="660" 
d="M62 547v132h534v-132h-534zM136 259v131h387v-131h-387zM62 -51v132h534v-132h-534z" />
    <glyph glyph-name="Omicron" unicode="&#x39f;" horiz-adv-x="700" 
d="M350 -69q-72 0 -131.5 25t-103 72.5t-67.5 117.5t-24 160q0 93 23.5 165t66.5 121t103 74t133 25t133 -25t103 -74t66.5 -121t23.5 -165q0 -90 -24 -160t-67.5 -117.5t-103 -72.5t-131.5 -25zM350 562q-44 0 -76 -19.5t-52.5 -54t-30.5 -81t-10 -101.5t10.5 -100
t32 -77.5t53 -50t73.5 -17.5t73.5 17.5t53 50t32 77.5t10.5 100t-10 101.5t-30.5 81t-52.5 54t-76 19.5z" />
    <glyph glyph-name="Pi" unicode="&#x3a0;" horiz-adv-x="660" 
d="M596 -52h-165v599h-203v-599h-165v731h533v-731z" />
    <glyph glyph-name="Rho" unicode="&#x3a1;" horiz-adv-x="557" 
d="M300 677q123 0 181 -54t58 -169q0 -113 -58.5 -173.5t-180.5 -60.5h-88v-270h-159v727h247zM296 353q42 0 63 22t21 77t-21 73.5t-63 18.5h-84v-191h84z" />
    <glyph glyph-name="Sigma" unicode="&#x3a3;" horiz-adv-x="570" 
d="M36 -50v71l287 292l-287 269v95h504v-132h-265l246 -222l-240 -240h260v-133h-505z" />
    <glyph glyph-name="Tau" unicode="&#x3a4;" horiz-adv-x="530" 
d="M-4 544v133h538v-133h-190v-594h-165v594h-183z" />
    <glyph glyph-name="Upsilon" unicode="&#x3a5;" horiz-adv-x="600" 
d="M216 271l-235 406h173l145 -262l147 262h171l-236 -405v-322h-165v321z" />
    <glyph glyph-name="Phi" unicode="&#x3a6;" horiz-adv-x="640" 
d="M395 569q45 -10 83 -32.5t65 -55.5t42 -77t15 -98t-15 -98t-42 -77.5t-65 -55.5t-83 -32v-93h-152v93q-45 10 -82.5 32.5t-64.5 55.5t-42 77t-15 98t15 98t42 77t64.5 55.5t82.5 32.5v109h152v-109zM449 306q0 88 -54 125v-251q54 37 54 126zM190 307q0 -88 53 -125v248
q-53 -37 -53 -123z" />
    <glyph glyph-name="Chi" unicode="&#x3a7;" horiz-adv-x="590" 
d="M206 315l-223 361h177l134 -218l135 219h181l-225 -364l225 -363h-177l-137 220l-135 -220h-180z" />
    <glyph glyph-name="Psi" unicode="&#x3a8;" horiz-adv-x="680" 
d="M422 298q25 17 39 48t14 82v250h159v-237q0 -69 -15.5 -119.5t-43.5 -85t-67 -54.5t-86 -29v-203h-163v203q-47 8 -86.5 28.5t-67.5 55t-43.5 85t-15.5 119.5v237h159v-250q0 -51 14 -82.5t40 -48.5v381h163v-380z" />
    <glyph glyph-name="uni03A9" unicode="&#x3a9;" horiz-adv-x="760" 
d="M380 555q-87 0 -128 -57.5t-41 -154.5q0 -101 37 -176.5t104 -116.5v-101h-315v132h93q-42 54 -61.5 121.5t-19.5 139.5q0 164 83.5 252.5t247.5 88.5t247.5 -88.5t83.5 -252.5q0 -72 -19.5 -139.5t-61.5 -121.5h93v-132h-315v101q67 41 104 116.5t37 176.5
q0 97 -41 154.5t-128 57.5z" />
    <glyph glyph-name="alpha" unicode="&#x3b1;" horiz-adv-x="623" 
d="M628 61q-11 -38 -24 -62t-29 -38.5t-36.5 -20t-45.5 -5.5q-14 0 -29.5 4t-31 13t-28.5 24t-22 37q-20 -25 -39.5 -40t-39 -23.5t-37.5 -11t-33 -2.5q-60 0 -100.5 21t-65 57t-34.5 84.5t-8 103.5q2 59 15.5 111.5t40.5 91.5t70 62t103 23q15 0 33 -2.5t37.5 -11t39.5 -25
t38 -45.5l24 76l141 -44l-102 -288q3 -57 12.5 -75t20.5 -18q2 0 6.5 7.5t10.5 39.5zM323 227q5 62 -13 100.5t-56 38.5q-24 0 -40 -17t-25 -42.5t-13 -55t-5 -53.5q-4 -72 11 -105.5t50 -33.5q23 0 39.5 16t27.5 40.5t16.5 54t7.5 57.5z" />
    <glyph glyph-name="beta" unicode="&#x3b2;" horiz-adv-x="540" 
d="M509 168q0 -48 -12 -90t-38.5 -73t-67.5 -49t-98 -18q-20 0 -41.5 3t-39.5 11v-133h-149v664q0 57 14 95.5t41 61.5t65.5 32.5t86.5 9.5q99 0 155.5 -51.5t56.5 -142.5q0 -40 -12.5 -76t-47.5 -68q48 -35 67.5 -84t19.5 -92zM362 168q0 20 -3.5 40t-11.5 35.5t-21 25.5
t-32 10h-51v118h51q23 0 31.5 20t8.5 70q0 39 -17 56.5t-47 17.5q-12 0 -22.5 -3.5t-18.5 -12.5t-12.5 -25t-4.5 -42v-396q17 -15 33.5 -19.5t37.5 -4.5q43 0 61 29.5t18 80.5z" />
    <glyph glyph-name="gamma" unicode="&#x3b3;" horiz-adv-x="520" 
d="M328 70q15 -22 29.5 -44.5t26.5 -45.5q19 -38 18.5 -74t-18 -64t-50.5 -45t-79 -17q-42 0 -76.5 15.5t-54 42.5t-21.5 63.5t20 77.5q13 24 28.5 49t34.5 51l-185 363l133 59l123 -275l129 271l133 -58zM275 -82q0 5 -6 19.5t-13 26.5q-11 -14 -15.5 -27t-4.5 -20
q0 -24 19 -24q20 0 20 25z" />
    <glyph glyph-name="delta" unicode="&#x3b4;" horiz-adv-x="560" 
d="M29 188q0 39 12.5 74.5t35 66t53.5 56.5t68 46q-38 32 -53 66.5t-15 64.5q0 51 40 85.5t124 34.5q60 0 102.5 -15.5t75.5 -41.5l-70 -112q-24 20 -47 35.5t-57 15.5q-7 0 -12.5 -2t-5.5 -10q0 -25 20.5 -44.5t41.5 -33.5q104 -68 147 -135.5t43 -146.5q0 -58 -17.5 -105
t-50.5 -80.5t-79.5 -51.5t-104.5 -18q-56 0 -102 15t-79 46t-51.5 78.5t-18.5 111.5zM375 185q0 28 -4.5 49t-16 39t-31 35.5t-49.5 38.5q-37 -23 -63 -63.5t-26 -94.5q0 -37 8.5 -61.5t23 -39t32.5 -20.5t36 -6q36 0 63 28.5t27 94.5z" />
    <glyph glyph-name="epsilon" unicode="&#x3b5;" horiz-adv-x="470" 
d="M451 83q-31 -80 -83 -112.5t-131 -32.5q-44 0 -82.5 8t-67.5 26.5t-46 48.5t-17 74q0 18 5 38.5t18 40t35 35.5t56 25q-26 7 -44 20.5t-29.5 30t-16.5 33.5t-5 31q0 42 18 70.5t46.5 45t63.5 23.5t70 7q66 0 115 -25t85 -90l-120 -64q-23 32 -43 45.5t-37 13.5
q-20 0 -33.5 -5t-13.5 -19q0 -16 9.5 -26.5t26 -17t39.5 -9t49 -1.5v-128q-75 -2 -107.5 -19t-32.5 -53q0 -20 16 -28.5t44 -8.5q30 0 49 17t35 59z" />
    <glyph glyph-name="zeta" unicode="&#x3b6;" horiz-adv-x="460" 
d="M440 -89q0 -26 -8 -49.5t-25.5 -41t-45.5 -28t-68 -10.5q-15 0 -27 0.5t-25.5 3t-29.5 8.5t-39 17l42 117q9 -5 26 -11t34 -8q20 -1 22 13q1 12 -7 19.5t-20 12t-26 7.5t-24 6q-42 12 -78 33.5t-62.5 51.5t-41.5 67.5t-16 81.5q-2 83 33 168.5t116 178.5h-107v130h311
v-105q-94 -82 -146 -173.5t-47 -195.5q3 -53 23.5 -80.5t69.5 -38.5q42 -10 73 -23.5t51.5 -33.5t31 -48.5t10.5 -68.5z" />
    <glyph glyph-name="eta" unicode="&#x3b7;" horiz-adv-x="600" 
d="M496 -36q0 -9 4 -15t13 -6q8 0 18 8.5t19 23.5l75 -86q-33 -42 -64 -57.5t-63 -15.5q-71 0 -113.5 33t-42.5 106v347q0 37 -18 50.5t-45 13.5q-21 0 -36.5 -11t-32.5 -37v-375h-158v535h158v-21q10 10 22.5 16.5t25 10.5t23.5 5.5t18 1.5q44 0 80 -12t62 -35.5
t40.5 -58.5t14.5 -82v-339z" />
    <glyph glyph-name="theta" unicode="&#x3b8;" horiz-adv-x="580" 
d="M290 -62q-128 0 -191.5 96t-63.5 272q0 183 62 280.5t193 97.5t193 -97.5t62 -280.5q0 -176 -63.5 -272t-191.5 -96zM290 559q-26 0 -44.5 -14t-31 -39t-19 -59.5t-9.5 -75.5h207q-2 41 -8.5 75.5t-19 59.5t-31 39t-44.5 14zM290 64q49 0 72.5 47.5t29.5 127.5h-205
q6 -80 30 -127.5t73 -47.5z" />
    <glyph glyph-name="iota" unicode="&#x3b9;" horiz-adv-x="280" 
d="M194 480v-400q0 -10 1 -14t7 -4q8 0 14 9t12 20l69 -82q-16 -21 -29.5 -35t-28 -22.5t-29.5 -12t-34 -3.5q-31 0 -56.5 7t-43.5 22.5t-28 40.5t-10 61v413h156z" />
    <glyph glyph-name="kappa" unicode="&#x3ba;" horiz-adv-x="482" 
d="M299 262l213 -312h-175l-129 195v-195h-156v528h156v-119l113 118h183z" />
    <glyph glyph-name="lambda" unicode="&#x3bb;" horiz-adv-x="629" 
d="M275 212l-119 -288l-139 52l189 450l-26 81q-6 20 -15 28t-19 10h-4t-6.5 -0.5t-12.5 -2.5t-22 -5l-32 135q35 10 55.5 11.5t38.5 0.5q56 -4 98.5 -32t64.5 -95l143 -438q6 -18 11.5 -30.5t11.5 -13.5q5 -1 8.5 6t10.5 33l130 -51q-14 -37 -27 -61t-30 -38.5t-39.5 -20
t-55.5 -5.5q-65 0 -106.5 37t-63.5 104z" />
    <glyph glyph-name="uni03BC" unicode="&#x3bc;" horiz-adv-x="540" 
d="M336 478h160v-347q0 -88 -48.5 -140t-147.5 -52q-26 0 -48 5.5t-40 19.5v-213h-160v727h160v-361q17 -28 32 -40.5t40 -12.5q26 0 39 15t13 51v348z" />
    <glyph glyph-name="nu" unicode="&#x3bd;" horiz-adv-x="500" 
d="M330 -50h-107l-138 380q-3 10 -9 18.5t-15.5 15t-24.5 9.5t-37 2v130q10 1 17.5 1h15.5q75 0 119.5 -29.5t65.5 -93.5l57 -173l80 268h158z" />
    <glyph glyph-name="xi" unicode="&#x3be;" horiz-adv-x="460" 
d="M137 470q0 25 6.5 42.5t23.5 34.5h-104v131h308l-2 -110q-37 -20 -58.5 -40t-21.5 -55q0 -25 15 -42t40 -29v-109q-31 -7 -55.5 -22t-41 -35t-24.5 -42t-8 -43q1 -22 17 -40t44 -26q35 -11 65 -24t52.5 -33t35 -48.5t12.5 -68.5q0 -28 -8 -51.5t-25.5 -41t-46 -27
t-68.5 -9.5q-15 0 -27.5 0.5t-26 3.5t-29.5 9t-39 17l43 116q11 -6 27 -12t36 -9q7 -1 12.5 1.5t7.5 8.5q3 10 -4 18t-19 14t-27 10.5t-28 7.5q-32 8 -59.5 23.5t-47.5 38t-31.5 51.5t-11.5 64q0 66 32.5 117t107.5 95q-33 20 -52.5 51t-19.5 63z" />
    <glyph glyph-name="omicron" unicode="&#x3bf;" horiz-adv-x="550" 
d="M275 -69q-55 0 -103 17.5t-83 52.5t-55.5 87.5t-20.5 121.5q0 72 19.5 126t54.5 89.5t83 53t105 17.5t105 -17.5t83 -53t54.5 -89.5t19.5 -126q0 -69 -20.5 -121.5t-55.5 -87.5t-83 -52.5t-103 -17.5zM275 374q-29 0 -49.5 -12.5t-33 -34.5t-18.5 -52t-6 -65
q0 -79 29 -118t78 -39t78 39t29 118q0 35 -6 65t-18.5 52t-33 34.5t-49.5 12.5z" />
    <glyph glyph-name="pi" unicode="&#x3c0;" horiz-adv-x="620" 
d="M489 81q0 -14 0.5 -16.5t2.5 -2.5q4 -1 10 4.5t19 25.5l69 -85q-30 -36 -57.5 -52.5t-63.5 -16.5q-69 0 -104 30t-35 103v276h-49v-172q0 -66 -11 -110.5t-39 -71.5t-74.5 -39t-118.5 -12v124q32 0 49.5 4t25 16t8.5 35t1 62v164h-87v130h542v-130h-88v-266v0z" />
    <glyph glyph-name="rho" unicode="&#x3c1;" horiz-adv-x="570" 
d="M51 194q0 94 22.5 151.5t58 89.5t78 43t82.5 11q57 0 104.5 -17t81 -51.5t52 -87.5t18.5 -126q0 -64 -17 -114t-46.5 -84.5t-70.5 -52.5t-89 -18q-32 0 -63 6.5t-54 22.5v-216h-157v443zM208 173q0 -47 22 -79.5t65 -32.5q27 0 44.5 11t28 31t14.5 47.5t4 59.5
q1 75 -18.5 115.5t-74.5 40.5q-43 0 -64 -35t-21 -112v-46z" />
    <glyph glyph-name="sigma" unicode="&#x3c3;" horiz-adv-x="570" 
d="M569 396q-29 -5 -50 -6t-42 -1q24 -35 37 -79t13 -100q0 -69 -18.5 -120.5t-52 -85t-80 -50t-101.5 -16.5q-56 0 -102 16.5t-79 50t-51.5 85t-18.5 120.5q0 72 18.5 125t51.5 87t79 50.5t102 16.5q32 0 62 1.5t62 4.5t68 8.5t81 13.5zM275 367q-26 0 -44 -11.5t-28.5 -32
t-15 -49.5t-4.5 -64q0 -79 25 -114.5t67 -35.5q43 0 68 35.5t25 114.5q0 35 -5 64t-16 49.5t-28.5 32t-43.5 11.5z" />
    <glyph glyph-name="tau" unicode="&#x3c4;" horiz-adv-x="530" 
d="M338 75q0 -8 1 -10.5t3 -2.5q11 1 29 31l71 -83q-32 -41 -59 -56.5t-62 -15.5q-32 0 -57.5 6.5t-43.5 21.5t-27.5 39.5t-9.5 60.5v282h-175v130h514v-130h-184v-273z" />
    <glyph glyph-name="upsilon" unicode="&#x3c5;" horiz-adv-x="555" 
d="M440 492q35 -76 55.5 -151.5t20.5 -153.5q0 -54 -13 -100t-41.5 -79t-73.5 -52t-109 -19q-50 0 -91.5 13.5t-71.5 41t-46.5 69.5t-16.5 99v318h156v-312q0 -53 18 -73.5t48 -20.5q52 0 68.5 29.5t16.5 82.5q0 36 -6.5 73.5t-16.5 74t-22.5 70t-23.5 60.5z" />
    <glyph glyph-name="phi" unicode="&#x3c6;" horiz-adv-x="550" 
d="M346 481q82 -20 131 -86.5t49 -184.5q0 -56 -13 -101t-37 -78t-57 -54t-73 -31v-114h-141v115q-40 10 -73.5 31t-57.5 54t-37 77.5t-13 100.5q0 118 48.5 185t132.5 86v114h141v-114zM167 210q0 -43 10 -73.5t28 -50.5v255q-20 -22 -29 -56t-9 -75zM383 210q0 40 -9 73.5
t-28 56.5v-256q17 20 27 51t10 75z" />
    <glyph glyph-name="chi" unicode="&#x3c7;" horiz-adv-x="550" 
d="M184 114l-214 370h181l123 -214l125 215h181l-216 -371l216 -372h-180l-126 217l-126 -217h-180z" />
    <glyph glyph-name="psi" unicode="&#x3c8;" horiz-adv-x="680" 
d="M422 98q25 17 39 48t14 82v250h159v-237q0 -69 -15.5 -119.5t-43.5 -85t-67 -54.5t-86 -28v-204h-163v204q-47 8 -86.5 28t-67.5 54.5t-43.5 85t-15.5 119.5v237h159v-250q0 -51 14 -82.5t40 -48.5v381h163v-380z" />
    <glyph glyph-name="omega" unicode="&#x3c9;" horiz-adv-x="720" 
d="M485 -61q-30 0 -62 11.5t-62 37.5q-27 -26 -60 -38t-67 -12q-59 0 -98 18.5t-63 50.5t-34 75.5t-10 94.5q0 49 5 90.5t17.5 78.5t35.5 72t59 71l116 -73q-50 -53 -66 -109t-16 -129q0 -21 1 -39.5t6.5 -32.5t16.5 -22t31 -8q18 0 33.5 10t15.5 29v188h152v-188
q0 -19 13.5 -29t34.5 -10q17 0 27.5 8t17 22t9 33t2.5 40q1 77 -24 137t-65 97l118 77q36 -37 59 -72t36.5 -72t19 -78.5t5.5 -90.5q0 -51 -11 -94.5t-35 -75.5t-63 -50t-95 -18z" />
    <glyph glyph-name="SF100000" unicode="&#x2500;" horiz-adv-x="940" 
d="M0 286v29h940v-29h-940z" />
    <glyph glyph-name="SF110000" unicode="&#x2502;" horiz-adv-x="940" 
d="M455 -200v1000h29v-1000h-29z" />
    <glyph glyph-name="SF010000" unicode="&#x250c;" horiz-adv-x="940" 
d="M484 286v-486h-29v515h485v-29h-456z" />
    <glyph glyph-name="SF030000" unicode="&#x2510;" horiz-adv-x="940" 
d="M455 -200v486h-455v29h484v-515h-29z" />
    <glyph glyph-name="SF040000" unicode="&#x2518;" horiz-adv-x="940" 
d="M0 286v29h455v485h29v-514h-484z" />
    <glyph glyph-name="SF020000" unicode="&#x2514;" horiz-adv-x="940" 
d="M455 286v514h29v-485h426v-29h-455z" />
    <glyph glyph-name="SF080000" unicode="&#x251c;" horiz-adv-x="940" 
d="M484 286v-486h-29v1000h29v-485h436v-29h-436z" />
    <glyph glyph-name="SF060000" unicode="&#x252c;" horiz-adv-x="940" 
d="M484 286v-486h-29v486h-455v29h940v-29h-456z" />
    <glyph glyph-name="SF090000" unicode="&#x2524;" horiz-adv-x="940" 
d="M455 -200v486h-455v29h455v485h29v-1000h-29z" />
    <glyph glyph-name="SF070000" unicode="&#x2534;" horiz-adv-x="940" 
d="M0 286v29h455v485h29v-485h436v-29h-920z" />
    <glyph glyph-name="SF050000" unicode="&#x253c;" horiz-adv-x="940" 
d="M484 285v-485h-29v485h-455v29h455v486h29v-486h436v-29h-436z" />
    <glyph glyph-name="uni2501" unicode="&#x2501;" horiz-adv-x="940" 
d="M0 271v54h920v-54h-920z" />
    <glyph glyph-name="uni2503" unicode="&#x2503;" horiz-adv-x="940" 
d="M442 -200v1000h54v-1000h-54z" />
    <glyph glyph-name="uni250F" unicode="&#x250f;" horiz-adv-x="940" 
d="M496 271v-471h-54v525h498v-54h-444z" />
    <glyph glyph-name="uni2513" unicode="&#x2513;" horiz-adv-x="940" 
d="M442 -200v471h-442v54h496v-525h-54z" />
    <glyph glyph-name="uni251B" unicode="&#x251b;" horiz-adv-x="940" 
d="M0 271v54h442v475h54v-529h-496z" />
    <glyph glyph-name="uni2517" unicode="&#x2517;" horiz-adv-x="940" 
d="M442 271v529h54v-475h444v-54h-498z" />
    <glyph glyph-name="uni2523" unicode="&#x2523;" horiz-adv-x="940" 
d="M496 271v-471h-54v1000h54v-475h444v-54h-444z" />
    <glyph glyph-name="uni2533" unicode="&#x2533;" horiz-adv-x="940" 
d="M496 271v-471h-54v471h-442v54h920v-54h-424z" />
    <glyph glyph-name="uni252B" unicode="&#x252b;" horiz-adv-x="940" 
d="M442 -200v471h-442v54h442v475h54v-1000h-54z" />
    <glyph glyph-name="uni253B" unicode="&#x253b;" horiz-adv-x="940" 
d="M0 271v54h442v475h54v-475h444v-54h-940z" />
    <glyph glyph-name="uni254B" unicode="&#x254b;" horiz-adv-x="940" 
d="M496 271v-471h-54v471h-442v54h442v475h54v-475h444v-54h-444z" />
    <glyph glyph-name="uni2520" unicode="&#x2520;" horiz-adv-x="940" 
d="M507 282v-482h-76v1000h76v-482h433v-36h-433z" />
    <glyph glyph-name="uni252F" unicode="&#x252f;" horiz-adv-x="940" 
d="M488 264v-464h-38v464h-450v72h940v-72h-452z" />
    <glyph glyph-name="uni2528" unicode="&#x2528;" horiz-adv-x="940" 
d="M431 -200v482h-431v36h431v482h76v-1000h-76z" />
    <glyph glyph-name="uni2537" unicode="&#x2537;" horiz-adv-x="940" 
d="M0 264v72h450v464h38v-464h452v-72h-940z" />
    <glyph glyph-name="uni253F" unicode="&#x253f;" horiz-adv-x="940" 
d="M488 264v-464h-38v464h-450v72h450v464h38v-464h452v-72h-452z" />
    <glyph glyph-name="uni251D" unicode="&#x251d;" horiz-adv-x="940" 
d="M488 264v-464h-38v1000h38v-464h452v-72h-452z" />
    <glyph glyph-name="uni2530" unicode="&#x2530;" horiz-adv-x="940" 
d="M507 282v-482h-76v482h-431v36h940v-36h-433z" />
    <glyph glyph-name="uni2525" unicode="&#x2525;" horiz-adv-x="940" 
d="M450 -200v464h-450v72h450v464h38v-1000h-38z" />
    <glyph glyph-name="uni2538" unicode="&#x2538;" horiz-adv-x="940" 
d="M0 282v36h431v482h76v-482h433v-36h-940z" />
    <glyph glyph-name="uni2542" unicode="&#x2542;" horiz-adv-x="940" 
d="M507 282v-482h-76v482h-431v36h431v482h76v-482h433v-36h-433z" />
    <glyph glyph-name="uni2512" unicode="&#x2512;" horiz-adv-x="940" 
d="M431 -200v482h-431v36h507v-518h-76z" />
    <glyph glyph-name="uni2511" unicode="&#x2511;" horiz-adv-x="940" 
d="M450 -200v464h-450v72h488v-536h-38z" />
    <glyph glyph-name="uni251A" unicode="&#x251a;" horiz-adv-x="940" 
d="M0 282v36h431v482h76v-518h-507z" />
    <glyph glyph-name="uni2519" unicode="&#x2519;" horiz-adv-x="940" 
d="M0 264v72h450v464h38v-536h-488z" />
    <glyph glyph-name="uni2516" unicode="&#x2516;" horiz-adv-x="940" 
d="M431 282v518h76v-482h433v-36h-509z" />
    <glyph glyph-name="uni2515" unicode="&#x2515;" horiz-adv-x="940" 
d="M450 264v536h38v-464h452v-72h-490z" />
    <glyph glyph-name="uni250E" unicode="&#x250e;" horiz-adv-x="940" 
d="M507 282v-482h-76v518h509v-36h-433z" />
    <glyph glyph-name="uni250D" unicode="&#x250d;" horiz-adv-x="940" 
d="M488 264v-464h-38v536h490v-72h-452z" />
    <glyph glyph-name="uni251E" unicode="&#x251e;" horiz-adv-x="940" 
d="M487 282v-482h-37v500h-19v500h76v-482h433v-36h-453z" />
    <glyph glyph-name="uni251F" unicode="&#x251f;" horiz-adv-x="940" 
d="M507 282v-482h-76v500h19v500h38v-482h452v-36h-433z" />
    <glyph glyph-name="uni2521" unicode="&#x2521;" horiz-adv-x="940" 
d="M488 264v-464h-38v500h-19v500h76v-464h433v-72h-452z" />
    <glyph glyph-name="uni2522" unicode="&#x2522;" horiz-adv-x="940" 
d="M507 264v-464h-76v500h19v500h38v-464h452v-72h-433z" />
    <glyph glyph-name="uni2526" unicode="&#x2526;" horiz-adv-x="940" 
d="M488 300v-500h-38v482h-450v36h431v482h76v-500h-19z" />
    <glyph glyph-name="uni2527" unicode="&#x2527;" horiz-adv-x="940" 
d="M431 -200v482h-431v36h450v482h38v-500h19v-500h-76z" />
    <glyph glyph-name="uni2529" unicode="&#x2529;" horiz-adv-x="940" 
d="M488 300v-500h-38v464h-450v72h431v464h76v-500h-19z" />
    <glyph glyph-name="uni252A" unicode="&#x252a;" horiz-adv-x="940" 
d="M431 -200v464h-431v72h450v464h38v-500h19v-500h-76z" />
    <glyph glyph-name="uni252D" unicode="&#x252d;" horiz-adv-x="940" 
d="M488 282v-482h-38v464h-450v72h469v-18h471v-36h-452z" />
    <glyph glyph-name="uni252E" unicode="&#x252e;" horiz-adv-x="940" 
d="M488 264v-464h-38v482h-450v36h469v18h471v-72h-452z" />
    <glyph glyph-name="uni2531" unicode="&#x2531;" horiz-adv-x="940" 
d="M507 282v-482h-76v464h-431v72h469v-18h471v-36h-433z" />
    <glyph glyph-name="uni2532" unicode="&#x2532;" horiz-adv-x="940" 
d="M507 264v-464h-76v482h-431v36h469v18h471v-72h-433z" />
    <glyph glyph-name="uni2535" unicode="&#x2535;" horiz-adv-x="940" 
d="M469 282v-18h-469v72h450v464h38v-482h452v-36h-471z" />
    <glyph glyph-name="uni2536" unicode="&#x2536;" horiz-adv-x="940" 
d="M469 264v18h-469v36h450v482h38v-464h452v-72h-471z" />
    <glyph glyph-name="uni2539" unicode="&#x2539;" horiz-adv-x="940" 
d="M469 282v-18h-469v72h431v464h76v-482h433v-36h-471z" />
    <glyph glyph-name="uni253A" unicode="&#x253a;" horiz-adv-x="940" 
d="M469 264v18h-469v36h431v482h76v-464h433v-72h-471z" />
    <glyph glyph-name="uni253D" unicode="&#x253d;" horiz-adv-x="940" 
d="M488 282v-482h-38v464h-450v76h450v460h38v-482h452v-36h-452z" />
    <glyph glyph-name="uni253E" unicode="&#x253e;" horiz-adv-x="940" 
d="M488 264v-464h-38v482h-450v36h450v482h38v-464h452v-72h-452z" />
    <glyph glyph-name="uni2540" unicode="&#x2540;" horiz-adv-x="940" 
d="M488 282v-482h-38v482h-450v36h431v482h76v-482h433v-36h-452z" />
    <glyph glyph-name="uni2541" unicode="&#x2541;" horiz-adv-x="940" 
d="M507 282v-482h-76v482h-431v36h450v482h38v-482h452v-36h-433z" />
    <glyph glyph-name="uni2543" unicode="&#x2543;" horiz-adv-x="940" 
d="M488 282v-482h-38v464h-450v72h431v464h76v-482h433v-36h-452z" />
    <glyph glyph-name="uni2544" unicode="&#x2544;" horiz-adv-x="940" 
d="M488 264v-464h-38v482h-450v36h431v482h76v-464h433v-72h-452z" />
    <glyph glyph-name="uni2545" unicode="&#x2545;" horiz-adv-x="940" 
d="M507 282v-482h-76v464h-431v72h450v464h38v-482h452v-36h-433z" />
    <glyph glyph-name="uni2546" unicode="&#x2546;" horiz-adv-x="940" 
d="M507 264v-464h-76v482h-431v36h450v482h38v-464h452v-72h-433z" />
    <glyph glyph-name="uni2547" unicode="&#x2547;" horiz-adv-x="940" 
d="M488 264v-464h-38v464h-450v72h431v464h76v-464h433v-72h-452z" />
    <glyph glyph-name="uni2548" unicode="&#x2548;" horiz-adv-x="940" 
d="M507 264v-464h-76v464h-431v72h450v464h38v-464h452v-72h-433z" />
    <glyph glyph-name="uni2549" unicode="&#x2549;" horiz-adv-x="940" 
d="M507 282v-482h-76v464h-431v72h431v464h76v-482h433v-36h-433z" />
    <glyph glyph-name="uni254A" unicode="&#x254a;" horiz-adv-x="940" 
d="M507 264v-464h-76v482h-431v36h431v482h76v-464h433v-72h-433z" />
    <glyph glyph-name="uni3395" unicode="&#x3395;" horiz-adv-x="940" 
d="M886 526q0 -51 -15 -107.5t-41.5 -114t-63 -112t-78.5 -100.5q9 -38 30 -38q8 0 18 14.5t27 57.5l104 -54q-17 -43 -33.5 -69t-35 -40.5t-40 -19.5t-48.5 -5q-38 0 -63.5 22t-42.5 56q-23 -17 -45 -30l-63 90q42 26 76 56q-5 35 -6.5 66.5t-1.5 54.5q0 99 11.5 179
t35.5 137t59.5 87.5t83.5 30.5q37 0 62.5 -11t41 -32t22 -51t6.5 -67zM279 156q-8 -26 -4.5 -37.5t11.5 -11.5q12 0 21 9t17 26t16 40t18 52l59 174l132 -43l-75 -238q-7 -22 -6 -28t10 -5l8 1v-113q-14 -1 -27.5 -3t-30.5 -2q-28 0 -47 13t-27 33q-15 -19 -32.5 -27.5
t-34.5 -8.5q-32 0 -59 14l-74 -217l-125 44l186 572l130 -42zM748 559q-9 0 -19.5 -26.5t-19.5 -69t-16.5 -95t-10.5 -104.5q29 51 47.5 112t26.5 138q2 24 -0.5 34.5t-7.5 10.5z" />
    <glyph glyph-name="uni3396" unicode="&#x3396;" horiz-adv-x="940" 
d="M375 314q0 32 -3 41.5t-6 9.5q-6 0 -10 -10t-9 -27v-380h-136v360q0 32 -2.5 44.5t-7.5 12.5q-8 0 -11.5 -13t-5.5 -36v-368h-137v531h115v-17q15 16 32 22t26 6q26 0 45 -17.5t34 -43.5q19 29 45 45t50 16q63 0 90.5 -39t27.5 -119v-384h-137v366zM896 526
q0 -52 -14.5 -110t-41 -115.5t-62.5 -111.5t-79 -99q5 -17 11.5 -26.5t17.5 -9.5q8 0 18 14.5t27 57.5l104 -54q-17 -43 -33.5 -69t-35 -40.5t-40 -19.5t-48.5 -5q-38 0 -63.5 22t-42.5 57q-17 -12 -33 -21l-63 90q35 23 64 46q-5 35 -6.5 66.5t-1.5 54.5q0 99 11.5 179
t35.5 137t59.5 87.5t83.5 30.5q37 0 62.5 -11t41 -32t22 -51t6.5 -67zM758 559q-9 0 -19.5 -27.5t-19.5 -70.5t-16.5 -97t-10.5 -106q29 50 47.5 112.5t26.5 143.5q2 24 -0.5 34.5t-7.5 10.5z" />
    <glyph glyph-name="uni3397" unicode="&#x3397;" horiz-adv-x="940" 
d="M470 712v-764h-131v35q-9 -15 -20 -24.5t-22 -14.5t-21.5 -6.5t-18.5 -1.5q-39 0 -73 16.5t-59.5 51t-40.5 88t-15 128.5q0 128 44 199.5t138 71.5q21 0 40 -10t29 -27v258h150zM866 526q0 -52 -14.5 -110t-41 -115.5t-62.5 -111.5t-79 -99q5 -17 11.5 -26.5t17.5 -9.5
q8 0 18 14.5t27 57.5l104 -54q-17 -43 -33.5 -69t-35 -40.5t-40 -19.5t-48.5 -5q-38 0 -63.5 22t-42.5 57q-17 -12 -33 -21l-63 90q35 23 64 46q-5 35 -6.5 66.5t-1.5 54.5q0 99 11.5 179t35.5 137t59.5 87.5t83.5 30.5q37 0 62.5 -11t41 -32t22 -51t6.5 -67zM328 254
q0 24 -2 44.5t-7.5 36.5t-14.5 25t-24 9q-18 0 -29.5 -11.5t-18 -31.5t-9 -48t-2.5 -61q0 -75 13 -116.5t48 -41.5q30 0 38 30t8 77v88zM728 559q-9 0 -19.5 -27.5t-19.5 -70.5t-16.5 -97t-10.5 -106q29 50 47.5 112.5t26.5 143.5q2 24 -0.5 34.5t-7.5 10.5z" />
    <glyph glyph-name="uni2113" unicode="&#x2113;" horiz-adv-x="430" 
d="M400 526q0 -49 -15.5 -105t-42 -112.5t-63 -111t-78.5 -101.5q5 -20 12.5 -31t18.5 -11q8 0 18 14.5t27 57.5l104 -54q-17 -43 -33.5 -69t-35 -40.5t-40 -19.5t-48.5 -5q-38 0 -63.5 22t-42.5 57q-15 -12 -30 -22t-30 -19l-63 90q24 16 47 32.5t44 36.5q-5 33 -6.5 64
t-1.5 54q0 99 11.5 179t35.5 137t59.5 87.5t83.5 30.5q37 0 62.5 -11t41 -32t22 -51t6.5 -67zM262 559q-9 0 -19 -25.5t-19 -67t-16 -93t-11 -102.5q29 51 47.5 110.5t25.5 132.5q2 24 -0.5 34.5t-7.5 10.5z" />
    <glyph glyph-name="uni3398" unicode="&#x3398;" horiz-adv-x="850" 
d="M805 526q0 -51 -15 -107.5t-41.5 -114t-63 -112t-78.5 -100.5q9 -38 30 -38q8 0 18 14.5t27 57.5l104 -54q-17 -43 -33.5 -69t-35 -40.5t-40 -19.5t-48.5 -5q-38 0 -63.5 22t-42.5 56q-23 -17 -45 -30l-63 90q42 26 76 56q-5 35 -6.5 66.5t-1.5 54.5q0 99 11.5 179
t35.5 137t59.5 87.5t83.5 30.5q37 0 62.5 -11t41 -32t22 -51t6.5 -67zM199 373l88 109h171l-197 -237l197 -297h-160l-99 151v-151h-136v763h136v-338zM667 559q-9 0 -19.5 -26.5t-19.5 -69t-16.5 -95t-10.5 -104.5q29 51 47.5 112t26.5 138q2 24 -0.5 34.5t-7.5 10.5z" />
    <glyph glyph-name="uni33C4" unicode="&#x33c4;" horiz-adv-x="750" 
d="M374 -24q-13 -9 -25 -16t-26 -12.5t-31 -8.5t-40 -3q-97 0 -148.5 67t-51.5 210t53.5 211.5t156.5 68.5q36 0 62 -11.5t50 -31.5l-29 -133q-18 14 -31 23.5t-22 15t-16 7.5t-14 2q-32 0 -45.5 -38t-13.5 -109q0 -78 14 -115.5t47 -37.5q9 0 17.5 1t18.5 5t23 11t33 19z
M702 -22q-26 -17 -52.5 -29.5t-72.5 -12.5q-97 0 -148.5 67t-51.5 210t53.5 211.5t156.5 68.5q40 0 64.5 -11.5t48.5 -31.5l-29 -133q-37 28 -53.5 38t-30.5 10q-32 0 -45.5 -38t-13.5 -109q0 -78 14 -115.5t47 -37.5q9 0 18 1.5t19.5 5.5t24 11.5t33.5 19.5z" />
    <glyph glyph-name="uni33A3" unicode="&#x33a3;" horiz-adv-x="940" 
d="M303 325q0 46 -8 46q-7 0 -13 -36v-387h-115v370q0 30 -2 41.5t-7 11.5q-3 0 -5 -6t-3.5 -14.5t-2.5 -18t-1 -15.5v-369h-116v531h101v-24q8 18 23 26.5t26 8.5q26 0 39.5 -20t20.5 -45q12 29 33 47t46 18q53 0 76.5 -42.5t23.5 -119.5v-380h-116v377zM717 325
q0 46 -8 46q-7 0 -13 -36v-387h-115v370q0 30 -2 41.5t-7 11.5q-3 0 -5 -6t-3.5 -14.5t-2.5 -18t-1 -15.5v-369h-116v531h101v-24q8 18 23 26.5t26 8.5q26 0 39.5 -20t20.5 -45q12 29 33 47t46 18q53 0 76.5 -42.5t23.5 -119.5v-380h-116v377zM847 641q13 0 17 5t4 11
q0 13 -12 13q-9 0 -21.5 -6t-25.5 -16l-29 56q39 30 82 30q39 0 60 -20.5t21 -48.5q0 -12 -4.5 -25t-16.5 -24q29 -18 29 -55q0 -16 -6.5 -31t-19 -27t-30.5 -19t-41 -7q-20 0 -41 6.5t-44 20.5l35 62q10 -8 24.5 -13t24.5 -5q13 0 17 4.5t4 11.5q0 8 -7.5 13.5t-19.5 5.5
h-27v58h27z" />
    <glyph glyph-name="uni33A4" unicode="&#x33a4;" horiz-adv-x="940" 
d="M709 314q0 32 -3 41.5t-6 9.5q-6 0 -10 -10t-9 -27v-380h-136v360q0 32 -2.5 44.5t-7.5 12.5q-8 0 -11.5 -13t-5.5 -36v-368h-137v531h115v-17q15 16 32 22t26 6q26 0 45 -17.5t34 -43.5q19 29 45 45t50 16q63 0 90.5 -39t27.5 -119v-384h-137v366zM367 -24
q-13 -9 -25 -16t-26 -12.5t-31 -8.5t-40 -3q-97 0 -148.5 67t-51.5 210t53.5 211.5t156.5 68.5q36 0 62 -11.5t50 -31.5l-29 -133q-18 14 -31 23.5t-22 15t-16 7.5t-14 2q-32 0 -45.5 -38t-13.5 -109q0 -78 14 -115.5t47 -37.5q9 0 17.5 1t18.5 5t23 11t33 19zM847 641
q13 0 17 5t4 11q0 13 -12 13q-9 0 -21.5 -6t-25.5 -16l-29 56q39 30 82 30q39 0 60 -20.5t21 -48.5q0 -12 -4.5 -25t-16.5 -24q29 -18 29 -55q0 -16 -6.5 -31t-19 -27t-30.5 -19t-41 -7q-20 0 -41 6.5t-44 20.5l35 62q10 -8 24.5 -13t24.5 -5q13 0 17 4.5t4 11.5
q0 8 -7.5 13.5t-19.5 5.5h-27v58h27z" />
    <glyph glyph-name="uni33A5" unicode="&#x33a5;" horiz-adv-x="940" 
d="M594 305q0 32 -4.5 48t-29.5 16q-17 0 -38.5 -15t-38.5 -38v-368h-160v357q0 30 -9 47t-35 17q-17 0 -36.5 -14t-30.5 -39v-368h-160v533h150v-40q20 29 48.5 40t48.5 11q50 0 80.5 -20t54.5 -51q32 36 70 53.5t76 17.5q47 0 80 -13t54 -37.5t30.5 -59t9.5 -76.5v-358
h-160v357zM777 641q13 0 17 5t4 11q0 13 -12 13q-9 0 -21.5 -6t-25.5 -16l-29 56q39 30 82 30q39 0 60 -20.5t21 -48.5q0 -12 -4.5 -25t-16.5 -24q29 -18 29 -55q0 -16 -6.5 -31t-19 -27t-30.5 -19t-41 -7q-20 0 -41 6.5t-44 20.5l35 62q10 -8 24.5 -13t24.5 -5q13 0 17 4.5
t4 11.5q0 8 -7.5 13.5t-19.5 5.5h-27v58h27z" />
    <glyph glyph-name="uni33A6" unicode="&#x33a6;" horiz-adv-x="940" 
d="M702 314q0 32 -3 41.5t-6 9.5q-6 0 -10 -10t-9 -27v-380h-136v360q0 32 -2.5 44.5t-7.5 12.5q-8 0 -11.5 -13t-5.5 -36v-368h-137v531h115v-17q15 16 32 22t26 6q26 0 45 -17.5t34 -43.5q19 29 45 45t50 16q63 0 90.5 -39t27.5 -119v-384h-137v366zM163 404l47 78h156
l-157 -237l155 -297h-147l-54 108v-108h-131v763h131v-307zM837 641q13 0 17 5t4 11q0 13 -12 13q-9 0 -21.5 -6t-25.5 -16l-29 56q39 30 82 30q39 0 60 -20.5t21 -48.5q0 -12 -4.5 -25t-16.5 -24q29 -18 29 -55q0 -16 -6.5 -31t-19 -27t-30.5 -19t-41 -7q-20 0 -41 6.5
t-44 20.5l35 62q10 -8 24.5 -13t24.5 -5q13 0 17 4.5t4 11.5q0 8 -7.5 13.5t-19.5 5.5h-27v58h27z" />
    <glyph glyph-name="uni3399" unicode="&#x3399;" horiz-adv-x="870" 
d="M680 314q0 32 -3 41.5t-6 9.5q-6 0 -10 -10t-9 -27v-380h-136v360q0 32 -2.5 44.5t-7.5 12.5q-8 0 -11.5 -13t-5.5 -36v-368h-137v531h115v-17q15 16 32 22t26 6q26 0 45 -17.5t34 -43.5q19 29 45 45t50 16q63 0 90.5 -39t27.5 -119v-384h-137v366zM279 602
q-23 0 -31.5 -12.5t-8.5 -41.5v-63h91v-124h-91v-413h-154v413h-53v124h53v63q0 80 40 129t131 49h75v-124h-52z" />
    <glyph glyph-name="uni339A" unicode="&#x339a;" horiz-adv-x="940" 
d="M768 314q0 32 -3 41.5t-6 9.5q-6 0 -10 -10t-9 -27v-380h-136v360q0 32 -2.5 44.5t-7.5 12.5q-8 0 -11.5 -13t-5.5 -36v-368h-137v531h115v-17q15 16 32 22t26 6q26 0 45 -17.5t34 -43.5q19 29 45 45t50 16q63 0 90.5 -39t27.5 -119v-384h-137v366zM256 295q0 37 -1 55.5
t-12 18.5q-14 0 -23.5 -18.5t-18.5 -45.5v-357h-150v533h136v-38q14 26 37 37.5t44 11.5q41 0 67.5 -14t42 -39.5t21.5 -61.5t6 -81v-348h-149v347z" />
    <glyph glyph-name="uni339B" unicode="&#x339b;" horiz-adv-x="940" 
d="M795 325q0 46 -8 46q-7 0 -13 -36v-387h-115v370q0 30 -2 41.5t-7 11.5q-3 0 -5 -6t-3.5 -14.5t-2.5 -18t-1 -15.5v-369h-116v531h101v-24q8 18 23 26.5t26 8.5q26 0 39.5 -20t20.5 -45q12 29 33 47t46 18q53 0 76.5 -42.5t23.5 -119.5v-380h-116v377zM239 156
q-8 -26 -4.5 -37.5t11.5 -11.5q12 0 21 9t17 26t16 40t18 52l59 174l132 -43l-75 -238q-7 -22 -6 -28t10 -5l8 1v-113q-14 -1 -27.5 -3t-30.5 -2q-28 0 -47 13t-27 33q-15 -19 -32.5 -27.5t-34.5 -8.5q-32 0 -59 14l-74 -217l-125 44l186 572l130 -42z" />
    <glyph glyph-name="uni339C" unicode="&#x339c;" 
d="M321 325q0 46 -8 46q-7 0 -13 -36v-387h-115v370q0 30 -2 41.5t-7 11.5q-3 0 -5 -6t-3.5 -14.5t-2.5 -18t-1 -15.5v-369h-116v531h101v-24q8 18 23 26.5t26 8.5q26 0 39.5 -20t20.5 -45q12 29 33 47t46 18q53 0 76.5 -42.5t23.5 -119.5v-380h-116v377zM747 325
q0 46 -8 46q-7 0 -13 -36v-387h-115v370q0 30 -2 41.5t-7 11.5q-3 0 -5 -6t-3.5 -14.5t-2.5 -18t-1 -15.5v-369h-116v531h101v-24q8 18 23 26.5t26 8.5q26 0 39.5 -20t20.5 -45q12 29 33 47t46 18q53 0 76.5 -42.5t23.5 -119.5v-380h-116v377z" />
    <glyph glyph-name="uni339D" unicode="&#x339d;" horiz-adv-x="900" 
d="M709 314q0 32 -3 41.5t-6 9.5q-6 0 -10 -10t-9 -27v-380h-136v360q0 32 -2.5 44.5t-7.5 12.5q-8 0 -11.5 -13t-5.5 -36v-368h-137v531h115v-17q15 16 32 22t26 6q26 0 45 -17.5t34 -43.5q19 29 45 45t50 16q63 0 90.5 -39t27.5 -119v-384h-137v366zM367 -24
q-13 -9 -25 -16t-26 -12.5t-31 -8.5t-40 -3q-97 0 -148.5 67t-51.5 210t53.5 211.5t156.5 68.5q36 0 62 -11.5t50 -31.5l-29 -133q-18 14 -31 23.5t-22 15t-16 7.5t-14 2q-32 0 -45.5 -38t-13.5 -109q0 -78 14 -115.5t47 -37.5q9 0 17.5 1t18.5 5t23 11t33 19z" />
    <glyph glyph-name="uni339E" unicode="&#x339e;" horiz-adv-x="940" 
d="M734 314q0 32 -3 41.5t-6 9.5q-6 0 -10 -10t-9 -27v-380h-136v360q0 32 -2.5 44.5t-7.5 12.5q-8 0 -11.5 -13t-5.5 -36v-368h-137v531h115v-17q15 16 32 22t26 6q26 0 45 -17.5t34 -43.5q19 29 45 45t50 16q63 0 90.5 -39t27.5 -119v-384h-137v366zM195 404l47 78h156
l-157 -237l155 -297h-147l-54 108v-108h-131v763h131v-307z" />
    <glyph glyph-name="uni339F" unicode="&#x339f;" horiz-adv-x="940" 
d="M303 321q0 46 -8 46q-7 0 -13 -36v-383h-115v366q0 30 -2 41.5t-7 11.5q-3 0 -5 -6t-3.5 -14.5t-2.5 -18t-1 -15.5v-365h-116v527h101v-24q8 18 23 26.5t26 8.5q26 0 39.5 -20t20.5 -45q12 29 33 47t46 18q53 0 76.5 -42.5t23.5 -119.5v-376h-116v373zM717 321
q0 46 -8 46q-7 0 -13 -36v-383h-115v366q0 30 -2 41.5t-7 11.5q-3 0 -5 -6t-3.5 -14.5t-2.5 -18t-1 -15.5v-365h-116v527h101v-24q8 18 23 26.5t26 8.5q26 0 39.5 -20t20.5 -45q12 29 33 47t46 18q53 0 76.5 -42.5t23.5 -119.5v-376h-116v373zM775 542q25 24 41.5 41
t27 29.5t15.5 21.5t6 17q2 14 -13 14q-17 0 -47 -31l-39 55q21 24 46.5 36t47.5 12q18 0 33 -7t26 -18t17 -26t6 -31q0 -26 -13.5 -48t-40.5 -49h61v-69h-174v53z" />
    <glyph glyph-name="uni33A0" unicode="&#x33a0;" horiz-adv-x="940" 
d="M709 310q0 32 -3 41.5t-6 9.5q-6 0 -10 -10t-9 -27v-376h-136v356q0 32 -2.5 44.5t-7.5 12.5q-8 0 -11.5 -13t-5.5 -36v-364h-137v527h115v-17q15 16 32 22t26 6q26 0 45 -17.5t34 -43.5q19 29 45 45t50 16q63 0 90.5 -39t27.5 -119v-380h-137v362zM367 -24
q-13 -9 -25 -16t-26 -12.5t-31 -8.5t-40 -3q-97 0 -148.5 67t-51.5 210t53.5 209.5t156.5 66.5q36 0 62 -11.5t50 -31.5l-29 -133q-18 14 -31 23.5t-22 15t-16 7.5t-14 2q-32 0 -45.5 -36t-13.5 -107q0 -78 14 -115.5t47 -37.5q9 0 17.5 1t18.5 5t23 11t33 19zM775 542
q25 24 41.5 41t27 29.5t15.5 21.5t6 17q2 14 -13 14q-17 0 -47 -31l-39 55q21 24 46.5 36t47.5 12q18 0 33 -7t26 -18t17 -26t6 -31q0 -26 -13.5 -48t-40.5 -49h61v-69h-174v53z" />
    <glyph glyph-name="uni33A1" unicode="&#x33a1;" horiz-adv-x="940" 
d="M594 305q0 32 -4.5 48t-29.5 16q-17 0 -38.5 -15t-38.5 -38v-368h-160v357q0 30 -9 47t-35 17q-17 0 -36.5 -14t-30.5 -39v-368h-160v533h150v-40q20 29 48.5 40t48.5 11q50 0 80.5 -20t54.5 -51q32 36 70 53.5t76 17.5q47 0 80 -13t54 -37.5t30.5 -59t9.5 -76.5v-358
h-160v357zM705 542q25 24 41.5 41t27 29.5t15.5 21.5t6 17q2 14 -13 14q-17 0 -47 -31l-39 55q21 24 46.5 36t47.5 12q18 0 33 -7t26 -18t17 -26t6 -31q0 -26 -13.5 -48t-40.5 -49h61v-69h-174v53z" />
    <glyph glyph-name="uni33A2" unicode="&#x33a2;" horiz-adv-x="940" 
d="M702 314q0 32 -3 41.5t-6 9.5q-6 0 -10 -10t-9 -27v-380h-136v360q0 32 -2.5 44.5t-7.5 12.5q-8 0 -11.5 -13t-5.5 -36v-368h-137v531h115v-17q15 16 32 22t26 6q26 0 45 -17.5t34 -43.5q19 29 45 45t50 16q63 0 90.5 -39t27.5 -119v-384h-137v366zM163 402l47 77h156
l-156 -235l154 -296h-147l-54 108v-108h-131v763h131v-309zM765 542q25 24 41.5 41t27 29.5t15.5 21.5t6 17q2 14 -13 14q-17 0 -47 -31l-39 55q21 24 46.5 36t47.5 12q18 0 33 -7t26 -18t17 -26t6 -31q0 -26 -13.5 -48t-40.5 -49h61v-69h-174v53z" />
    <glyph glyph-name="uni33CA" unicode="&#x33ca;" horiz-adv-x="850" 
d="M256 295q0 37 -1 55.5t-12 18.5q-14 0 -23.5 -18.5t-18.5 -45.5v-357h-150v763h150v-253q14 17 32 25.5t35 8.5q41 0 67.5 -14t42 -39.5t21.5 -61.5t6 -81v-348h-149v347zM435 96q0 50 16 86t44.5 60t68.5 35.5t87 12.5q0 15 -1.5 30.5t-6 27.5t-13.5 20t-24 8
q-17 0 -42.5 -9.5t-63.5 -45.5l-44 105q35 31 72 48.5t90 17.5t87 -18t53 -47.5t26 -68t7 -79.5v-330h-129v34q-10 -14 -22.5 -23t-25.5 -14t-24.5 -7t-18.5 -2q-38 0 -64 13t-42 35t-23 50.5t-7 60.5zM573 101q0 -26 10.5 -36t22.5 -10q22 0 35.5 23.5t13.5 65.5v32
q-37 -3 -59.5 -26t-22.5 -49z" />
    <glyph glyph-name="uni338D" unicode="&#x338d;" horiz-adv-x="940" 
d="M877 37q0 -72 -8 -126t-29.5 -90t-58.5 -54t-94 -18q-34 0 -66.5 11t-63.5 40l27 113q33 -27 55.5 -36t39.5 -9q12 0 24 4t21.5 15.5t16 33.5t8.5 58q-14 -20 -34 -30t-37 -10q-39 0 -68 19t-48 54t-28.5 85t-9.5 113q0 149 44.5 216.5t119.5 65.5q17 -1 32 -9t29 -22v19
h128v-443zM256 156q-8 -26 -4.5 -37.5t11.5 -11.5q12 0 21 9t17 26t16 40t18 52l59 174l132 -43l-75 -238q-7 -22 -6 -28t10 -5l8 1v-113q-14 -1 -27.5 -3t-30.5 -2q-28 0 -47 13t-27 33q-15 -19 -32.5 -27.5t-34.5 -8.5q-32 0 -59 14l-74 -217l-125 44l186 572l130 -42z
M736 261q0 52 -7.5 81t-27.5 29q-18 0 -25.5 -40t-7.5 -118q0 -69 7 -111.5t24 -42.5q21 0 29 33t8 86v83z" />
    <glyph glyph-name="uni338E" unicode="&#x338e;" horiz-adv-x="900" 
d="M843 37q0 -72 -8 -126t-29.5 -90t-58.5 -54t-94 -18q-34 0 -66.5 11t-63.5 40l27 113q33 -27 55.5 -36t39.5 -9q12 0 24 4t21.5 15.5t16 33.5t8.5 58q-14 -20 -34 -30t-37 -10q-39 0 -68 19t-48 54t-28.5 85t-9.5 113q0 149 44.5 216.5t119.5 65.5q17 -1 32 -9t29 -22v19
h128v-443zM336 325q0 46 -8 46q-7 0 -13 -36v-387h-115v370q0 30 -2 41.5t-7 11.5q-3 0 -5 -6t-3.5 -14.5t-2.5 -18t-1 -15.5v-369h-116v531h101v-24q8 18 23 26.5t26 8.5q26 0 39.5 -20t20.5 -45q12 29 33 47t46 18q53 0 76.5 -42.5t23.5 -119.5v-380h-116v377zM702 261
q0 52 -7.5 81t-27.5 29q-18 0 -25.5 -40t-7.5 -118q0 -69 7 -111.5t24 -42.5q21 0 29 33t8 86v83z" />
    <glyph glyph-name="uni338F" unicode="&#x338f;" horiz-adv-x="790" 
d="M733 37q0 -72 -8 -126t-29.5 -90t-58.5 -54t-94 -18q-34 0 -66.5 11t-63.5 40l27 113q33 -27 55.5 -36t39.5 -9q12 0 24 4t21.5 15.5t16 33.5t8.5 58q-14 -20 -34 -30t-37 -10q-39 0 -68 19t-48 54t-28.5 85t-9.5 113q0 149 44.5 216.5t119.5 65.5q17 -1 32 -9t29 -22v19
h128v-443zM195 404l47 78h156l-157 -237l155 -297h-147l-54 108v-108h-131v763h131v-307zM592 261q0 52 -7.5 81t-27.5 29q-18 0 -25.5 -40t-7.5 -118q0 -69 7 -111.5t24 -42.5q21 0 29 33t8 86v83z" />
    <glyph glyph-name="uni33CF" unicode="&#x33cf;" horiz-adv-x="800" 
d="M199 380l78 102h171l-190 -236l190 -298h-160l-89 144v-144h-136v763h136v-331zM666 614v-132h92v-124h-92v-244q0 -41 6 -47q9 -9 26 -9t29.5 3.5t29.5 8.5l12 -116q-29 -10 -56.5 -14.5t-50.5 -3.5q-47 1 -77 16.5t-47.5 40t-24.5 56.5t-7 65v244h-52v124h52v132h160z
" />
    <glyph glyph-name="uni3388" unicode="&#x3388;" horiz-adv-x="940" 
d="M895 711v-762h-152v762h152zM361 -24q-26 -17 -51 -28.5t-65 -11.5q-97 0 -148.5 67t-51.5 210t53.5 210t156.5 67q40 0 64.5 -11t48.5 -31l-29 -133q-34 28 -52 37.5t-32 9.5q-32 0 -45.5 -37t-13.5 -107q0 -78 14 -115.5t47 -37.5q21 0 41.5 5.5t43.5 28.5zM364 95
q0 50 16 87t44.5 61t67 36.5t84.5 13.5q0 13 -1.5 27.5t-5.5 26.5t-12 20t-21 8q-17 0 -41.5 -11t-62.5 -48l-46 111q35 31 72 48t90 17q54 0 88 -17.5t52.5 -47t25.5 -67.5t7 -80v-331h-133v25q-26 -23 -48 -30t-39 -7q-39 0 -65 12.5t-42 34.5t-23 50.5t-7 60.5zM506 101
q0 -29 9 -37t21 -8q22 0 33 22.5t11 64.5v32q-37 -5 -55.5 -26.5t-18.5 -47.5z" />
    <glyph glyph-name="uni3389" unicode="&#x3389;" horiz-adv-x="940" 
d="M147 408l39 74h129l-126 -227l127 -306h-128l-41 101v-102h-120v763h120v-303zM518 95q0 41 11 75t31.5 59.5t49 40.5t63.5 17v3q0 36 -4.5 63t-17.5 27q-14 0 -35.5 -16.5t-50.5 -52.5l-32 115q26 30 56.5 49t72.5 19t67.5 -15t38.5 -42t17 -64.5t4 -82.5v-341h-104v30
q-11 -26 -28.5 -33t-31.5 -7q-26 0 -46 13.5t-33.5 35.5t-20.5 50t-7 57zM935 -51h-127v761h127v-761zM520 -27q-23 -18 -45.5 -27.5t-54.5 -8.5q-31 0 -58 17t-46.5 51t-30.5 85.5t-11 122.5q0 69 11.5 121t32.5 87.5t49.5 53t62.5 17.5q35 0 55.5 -11.5t40.5 -28.5
l-27 -123q-25 26 -38 33.5t-24 7.5t-17.5 -14.5t-10.5 -36.5t-5.5 -49t-1.5 -52q0 -27 1.5 -54.5t5 -50t11 -36.5t19.5 -14q8 0 22 6t38 27zM660 45q12 0 13.5 26t1.5 75v39q-18 -10 -27.5 -26t-9.5 -54q0 -32 5.5 -46t16.5 -14z" />
    <glyph glyph-name="uni33C8" unicode="&#x33c8;" horiz-adv-x="940" 
d="M641 680q120 0 172 -45t52 -146q0 -93 -73 -151q52 -28 79 -72.5t27 -100.5q0 -115 -61.5 -166t-171.5 -51h-174v732h150zM456 712v-764h-131v35q-9 -15 -20 -24.5t-22 -14.5t-21.5 -6.5t-18.5 -1.5q-39 0 -73 16.5t-59.5 51t-40.5 88t-15 128.5q0 128 44 199.5t138 71.5
q21 0 40 -10t29 -27v258h150zM314 254q0 24 -2 44.5t-7.5 36.5t-14.5 25t-24 9q-18 0 -29.5 -11.5t-18 -31.5t-9 -48t-2.5 -61q0 -75 13 -116.5t48 -41.5q30 0 38 30t8 77v88zM652 76q46 0 73.5 21.5t27.5 75.5q0 48 -30.5 68t-79.5 20h-5v-185h14zM638 388q42 2 60.5 21
t18.5 68q0 40 -21 57.5t-54 17.5h-4v-164z" />
    <glyph glyph-name="uni33A7" unicode="&#x33a7;" horiz-adv-x="940" 
d="M315 325q0 46 -8 46q-7 0 -13 -36v-387h-115v370q0 30 -2 41.5t-7 11.5q-3 0 -5 -6t-3.5 -14.5t-2.5 -18t-1 -15.5v-369h-116v531h101v-24q8 18 23 26.5t26 8.5q26 0 39.5 -20t20.5 -45q12 29 33 47t46 18q53 0 76.5 -42.5t23.5 -119.5v-380h-116v377zM656 97
q18 -14 32 -22.5t25.5 -13t21.5 -6t20 -1.5q19 0 30.5 7.5t15.5 29.5q3 18 -4.5 31t-20.5 23.5t-29.5 20t-32.5 20.5q-87 56 -87 154q0 75 45 112.5t117 37.5q34 0 59 -10t54 -30l-32 -119q-29 26 -47 34t-35 8q-15 0 -24 -8t-9 -23q0 -23 14 -39.5t43 -32.5
q64 -35 89 -76.5t25 -99.5q0 -76 -45 -117t-128 -41q-22 0 -38.5 3t-31 9.5t-28.5 15.5t-29 21zM521 650h106l-77 -762h-103z" />
    <glyph glyph-name="uni33A8" unicode="&#x33a8;" horiz-adv-x="940" 
d="M305 325q0 46 -8 46q-7 0 -13 -36v-387h-115v370q0 30 -2 41.5t-7 11.5q-3 0 -5 -6t-3.5 -14.5t-2.5 -18t-1 -15.5v-369h-116v531h101v-24q8 18 23 26.5t26 8.5q26 0 39.5 -20t20.5 -45q12 29 33 47t46 18q53 0 76.5 -42.5t23.5 -119.5v-380h-116v377zM626 97
q18 -14 32 -22.5t25.5 -13t21.5 -6t20 -1.5q19 0 30.5 7.5t15.5 29.5q3 18 -4.5 31t-20.5 23.5t-29.5 20t-32.5 20.5q-87 56 -87 154q0 75 45 112.5t117 37.5q34 0 59 -10t54 -30l-32 -119q-29 26 -47 34t-35 8q-15 0 -24 -8t-9 -23q0 -23 14 -39.5t43 -32.5
q64 -35 89 -76.5t25 -99.5q0 -76 -45 -117t-128 -41q-22 0 -38.5 3t-31 9.5t-28.5 15.5t-29 21zM496 650h106l-62 -762h-103zM775 562q25 24 41.5 41t27 29.5t15.5 21.5t6 17q2 14 -13 14q-17 0 -47 -31l-39 55q21 24 46.5 36t47.5 12q18 0 33 -7t26 -18t17 -26t6 -31
q0 -26 -13.5 -48t-40.5 -49h61v-69h-174v53z" />
    <glyph glyph-name="uni33B0" unicode="&#x33b0;" horiz-adv-x="850" 
d="M61 -252v733h131v-35q9 15 19.5 24.5t21.5 14.5t21.5 6.5t19.5 1.5q39 0 72.5 -16.5t59 -51t40 -88t14.5 -128.5q0 -128 -43 -199.5t-137 -71.5q-22 0 -40.5 10t-28.5 27v-227h-150zM494 101q23 -13 40 -21.5t30.5 -13.5t25.5 -7t26 -2q50 0 56 34q5 26 -13 43t-53 31
q-40 17 -66 36t-41.5 40.5t-21.5 45.5t-6 52q0 78 48.5 115.5t139.5 37.5q21 0 38 -2t33.5 -7t34 -13t37.5 -19l-37 -114q-31 17 -56 26t-52 9q-16 0 -26 -11t-11 -25q-1 -12 4 -21.5t13.5 -17t20 -13t23.5 -9.5q40 -15 67 -33t43 -40t22.5 -48t6.5 -58q0 -81 -55.5 -120.5
t-150.5 -39.5q-48 0 -85.5 12.5t-76.5 37.5zM203 175q0 -24 2.5 -44.5t8.5 -36.5t15 -25t22 -9q33 0 46 43t13 109q0 75 -14.5 116.5t-46.5 41.5q-27 0 -36.5 -30t-9.5 -77v-88z" />
    <glyph glyph-name="uni33B1" unicode="&#x33b1;" horiz-adv-x="840" 
d="M269 295q0 37 -1 55.5t-12 18.5q-14 0 -23.5 -18.5t-18.5 -45.5v-357h-150v533h136v-38q14 26 37 37.5t44 11.5q41 0 67.5 -14t42 -39.5t21.5 -61.5t6 -81v-348h-149v347zM484 101q23 -13 40 -21.5t30.5 -13.5t25.5 -7t26 -2q50 0 56 34q5 26 -13 43t-53 31
q-40 17 -66 36t-41.5 40.5t-21.5 45.5t-6 52q0 78 48.5 115.5t139.5 37.5q21 0 38 -2t33.5 -7t34 -13t37.5 -19l-37 -114q-31 17 -56 26t-52 9q-16 0 -26 -11t-11 -25q-1 -12 4 -21.5t13.5 -17t20 -13t23.5 -9.5q40 -15 67 -33t43 -40t22.5 -48t6.5 -58q0 -81 -55.5 -120.5
t-150.5 -39.5q-48 0 -85.5 12.5t-76.5 37.5z" />
    <glyph glyph-name="uni33B2" unicode="&#x33b2;" horiz-adv-x="940" 
d="M269 156q-8 -26 -4.5 -37.5t11.5 -11.5q12 0 21 9t17 26t16 40t18 52l59 174l132 -43l-75 -238q-7 -22 -6 -28t10 -5l8 1v-113q-14 -1 -27.5 -3t-30.5 -2q-28 0 -47 13t-27 33q-15 -19 -32.5 -27.5t-34.5 -8.5q-32 0 -59 14l-74 -217l-125 44l186 572l130 -42zM575 101
q23 -13 40 -21.5t30.5 -13.5t25.5 -7t26 -2q50 0 56 34q5 26 -13 43t-53 31q-40 17 -66 36t-41.5 40.5t-21.5 45.5t-6 52q0 78 48.5 115.5t139.5 37.5q38 0 71.5 -10t71.5 -31l-37 -114q-31 17 -56 26t-52 9q-16 0 -26 -11t-11 -25q-1 -12 4 -21.5t13.5 -17t20 -13
t23.5 -9.5q40 -15 67 -33t43 -40t22.5 -48t6.5 -58q0 -81 -55.5 -120.5t-150.5 -39.5q-48 0 -85.5 12.5t-76.5 37.5z" />
    <glyph glyph-name="uni33B3" unicode="&#x33b3;" horiz-adv-x="940" 
d="M391 314q0 32 -3 41.5t-6 9.5q-6 0 -10 -10t-9 -27v-380h-136v360q0 32 -2.5 44.5t-7.5 12.5q-8 0 -11.5 -13t-5.5 -36v-368h-137v531h115v-17q15 16 32 22t26 6q26 0 45 -17.5t34 -43.5q19 29 45 45t50 16q63 0 90.5 -39t27.5 -119v-384h-137v366zM581 101
q23 -13 40 -21.5t30.5 -13.5t25.5 -7t26 -2q50 0 56 34q5 26 -13 43t-53 31q-40 17 -66 36t-41.5 40.5t-21.5 45.5t-6 52q0 78 48.5 115.5t139.5 37.5q21 0 38 -2t33.5 -7t34 -13t37.5 -19l-37 -114q-31 17 -56 26t-52 9q-16 0 -26 -11t-11 -25q-1 -12 4 -21.5t13.5 -17
t20 -13t23.5 -9.5q40 -15 67 -33t43 -40t22.5 -48t6.5 -58q0 -81 -55.5 -120.5t-150.5 -39.5q-48 0 -85.5 12.5t-76.5 37.5z" />
    <glyph glyph-name="uni33B4" unicode="&#x33b4;" horiz-adv-x="940" 
d="M61 -252v733h131v-35q9 15 19.5 24.5t21.5 14.5t21.5 6.5t19.5 1.5q39 0 72.5 -16.5t59 -51t40 -88t14.5 -128.5q0 -128 -43 -199.5t-137 -71.5q-22 0 -40.5 10t-28.5 27v-227h-150zM640 202l103 481h151l-181 -737h-146l-182 738h151zM203 175q0 -24 2.5 -44.5
t8.5 -36.5t15 -25t22 -9q33 0 46 43t13 109q0 75 -14.5 116.5t-46.5 41.5q-27 0 -36.5 -30t-9.5 -77v-88z" />
    <glyph glyph-name="uni33B5" unicode="&#x33b5;" horiz-adv-x="940" 
d="M640 202l103 481h151l-181 -737h-146l-182 738h151zM269 295q0 37 -1 55.5t-12 18.5q-14 0 -23.5 -18.5t-18.5 -45.5v-357h-150v533h136v-38q14 26 37 37.5t44 11.5q41 0 67.5 -14t42 -39.5t21.5 -61.5t6 -81v-348h-149v347z" />
    <glyph glyph-name="uni33B6" unicode="&#x33b6;" horiz-adv-x="940" 
d="M248 156q-8 -26 -4.5 -37.5t11.5 -11.5q12 0 21 9t17 26t16 40t18 52l55 159l132 -43l-71 -223q-7 -22 -6 -28t10 -5l8 1v-113q-14 -1 -27.5 -3t-30.5 -2q-28 0 -47 13t-27 33q-15 -19 -32.5 -27.5t-34.5 -8.5q-32 0 -59 14l-74 -217l-125 44l186 572l130 -42zM699 202
l103 481h151l-181 -737h-146l-182 738h151z" />
    <glyph glyph-name="uni33B7" unicode="&#x33b7;" horiz-adv-x="940" 
d="M389 314q0 32 -3 41.5t-6 9.5q-6 0 -10 -10t-9 -27v-380h-136v360q0 32 -2.5 44.5t-7.5 12.5q-8 0 -11.5 -13t-5.5 -36v-368h-137v531h115v-17q15 16 32 22t26 6q26 0 45 -17.5t34 -43.5q19 29 45 45t50 16q63 0 90.5 -39t27.5 -119v-384h-137v366zM704 215l82 468h143
l-156 -737h-146l-146 738h143z" />
    <glyph glyph-name="uni33B8" unicode="&#x33b8;" horiz-adv-x="850" 
d="M634 229l80 454h144l-155 -737h-146l-145 738h144zM199 386l73 96h171l-183 -228l194 -306h-160l-95 155v-155h-136v763h136v-325z" />
    <glyph glyph-name="uni33B9" unicode="&#x33b9;" horiz-adv-x="940" 
d="M390 -55v249l-47 -249h-118l-47 244v-244h-118v739h136l88 -487l88 487h136v-739h-118zM735 234l75 449h144l-150 -737h-146l-140 738h144z" />
    <glyph glyph-name="uni3380" unicode="&#x3380;" horiz-adv-x="940" 
d="M61 -252v733h131v-35q9 15 19.5 24.5t21.5 14.5t21.5 6.5t19.5 1.5q39 0 72.5 -16.5t59 -51t40 -88t14.5 -128.5q0 -128 -43 -199.5t-137 -71.5q-22 0 -40.5 10t-28.5 27v-227h-150zM743 117h-133l-37 -171h-143l174 738h146l173 -737h-143zM203 175q0 -24 2.5 -44.5
t8.5 -36.5t15 -25t22 -9q33 0 46 43t13 109q0 75 -14.5 116.5t-46.5 41.5q-27 0 -36.5 -30t-9.5 -77v-88zM637 240h79l-39 178z" />
    <glyph glyph-name="uni3381" unicode="&#x3381;" horiz-adv-x="940" 
d="M743 117h-133l-37 -171h-143l174 738h146l173 -737h-143zM269 295q0 37 -1 55.5t-12 18.5q-14 0 -23.5 -18.5t-18.5 -45.5v-357h-150v533h136v-38q14 26 37 37.5t44 11.5q41 0 67.5 -14t42 -39.5t21.5 -61.5t6 -81v-348h-149v347zM637 240h79l-39 178z" />
    <glyph glyph-name="uni3382" unicode="&#x3382;" horiz-adv-x="940" 
d="M771 117h-133l-37 -171h-143l174 738h146l173 -737h-143zM248 156q-8 -26 -4.5 -37.5t11.5 -11.5q12 0 21 9t17 26t16 40t18 52l59 174l132 -43l-75 -238q-7 -22 -6 -28t10 -5l8 1v-113q-14 -1 -27.5 -3t-30.5 -2q-28 0 -47 13t-27 33q-15 -19 -32.5 -27.5t-34.5 -8.5
q-32 0 -59 14l-74 -217l-125 44l186 572l130 -42zM665 240h79l-39 178z" />
    <glyph glyph-name="uni3383" unicode="&#x3383;" horiz-adv-x="940" 
d="M375 314q0 32 -1.5 41.5t-4.5 9.5q-6 0 -10 -10t-9 -27v-380h-136v360q0 32 -2.5 44.5t-7.5 12.5q-8 0 -10.5 -13t-4.5 -36v-368h-137v531h115v-16q15 16 31 21.5t25 5.5q26 0 45 -17.5t34 -43.5q19 29 45 45t50 16q63 0 89 -39t26 -119v-384h-137v366zM779 113h-92
l-26 -165h-136l134 736h146l138 -735h-136zM707 236h51l-26 152z" />
    <glyph glyph-name="uni3384" unicode="&#x3384;" horiz-adv-x="940" 
d="M713 117h-133l-37 -169h-143l174 736h146l173 -735h-143zM195 404l47 78h156l-158 -240l153 -294h-147l-51 102v-102h-131v763h131v-307zM607 240h79l-39 178z" />
    <glyph glyph-name="uni33BA" unicode="&#x33ba;" horiz-adv-x="940" 
d="M718 681l59 -408l42 408h133l-94 -733h-135l-68 422l-68 -422h-135l-94 733h133l40 -409l61 409h126zM31 480h120v-48q13 31 37.5 45.5t42.5 14.5q37 0 65.5 -15.5t48.5 -49.5t30.5 -87.5t10.5 -128.5q0 -130 -37 -199.5t-118 -69.5q-10 0 -24.5 5t-31.5 18v-222h-144
v737zM173 179q0 -24 2 -45t7 -36.5t12 -25t18 -9.5q21 0 26 40.5t5 110.5q0 80 -6.5 118.5t-26.5 38.5t-28.5 -30.5t-8.5 -76.5v-85z" />
    <glyph glyph-name="uni33BB" unicode="&#x33bb;" horiz-adv-x="940" 
d="M718 681l59 -408l42 408h133l-94 -733h-135l-68 422l-68 -422h-135l-94 733h133l40 -409l61 409h126zM236 295q0 37 -1 55.5t-12 18.5q-14 0 -23.5 -18.5t-18.5 -45.5v-357h-150v533h136v-38q14 26 37 37.5t44 11.5q41 0 67.5 -14t42 -39.5t21.5 -61.5t6 -81v-348h-149
v347z" />
    <glyph glyph-name="uni33BC" unicode="&#x33bc;" horiz-adv-x="940" 
d="M213 166q-1 -3 -3 -11.5t-3 -17.5t0.5 -16t8.5 -7q13 0 24 28.5t28 91.5l41 148l120 -35l-56 -217q-1 -3 -2.5 -9.5t-2.5 -13.5t1 -10.5t12 -1.5l14 2v-115q-34 -7 -59 -7q-24 0 -41 13t-27 30q-14 -14 -33 -22.5t-34 -8.5q-18 0 -37 11l-58 -214l-120 41l156 577
l125 -42zM738 681l48 -388l32 388h132l-83 -736h-135l-57 421l-57 -421h-135l-83 736h132l31 -390l49 390h126z" />
    <glyph glyph-name="uni33BD" unicode="&#x33bd;" horiz-adv-x="940" 
d="M738 681l48 -388l32 388h132l-83 -736h-135l-57 421l-57 -421h-135l-83 736h132l31 -390l49 390h126zM300 325q0 46 -8 46q-7 0 -13 -36v-387h-115v370q0 30 -2 41.5t-7 11.5q-3 0 -5 -6t-3.5 -14.5t-2.5 -18t-1 -15.5v-369h-116v531h101v-24q8 18 23 26.5t26 8.5
q26 0 39.5 -20t20.5 -45q12 29 33 47t46 18q53 0 76.5 -42.5t23.5 -119.5v-380h-116v377z" />
    <glyph glyph-name="uni33BE" unicode="&#x33be;" horiz-adv-x="940" 
d="M718 681l59 -408l42 408h133l-94 -733h-135l-68 422l-68 -422h-135l-94 733h133l40 -409l61 409h126zM182 417l37 65h156l-149 -233l157 -301h-147l-54 108v-108h-131v763h131v-294z" />
    <glyph glyph-name="uni33BF" unicode="&#x33bf;" horiz-adv-x="940" 
d="M333 -51v235l-34 -235h-120l-34 232v-232h-118v731h133l79 -486l79 486h133v-731h-118zM755 684l46 -364l9 364h123l-45 -739h-136l-57 432l-57 -432h-135l-44 739h119l10 -366l47 366h120z" />
    <glyph glyph-name="uni3390" unicode="&#x3390;" horiz-adv-x="940" 
d="M486 -51h-155v311h-113v-311h-155v732h155v-291h113v291h155v-732zM528 481h360v-99l-187 -311h195v-122h-376v99l188 311h-180v122z" />
    <glyph glyph-name="uni3391" unicode="&#x3391;" horiz-adv-x="940" 
d="M627 -51h-137v311h-29v-311h-137v735h137v-294h29v294h137v-735zM147 404l39 80h127l-129 -243l130 -292h-124l-43 102v-102h-120v761h120v-306zM653 482h273v-98l-130 -313h139v-122h-291v98l125 313h-116v122z" />
    <glyph glyph-name="uni3392" unicode="&#x3392;" horiz-adv-x="940" 
d="M268 -52v211l-28 -211h-93l-27 195v-195h-98v732h110l61 -513l63 513h111v-732h-99zM509 388h23v292h123v-732h-123v312h-23v-312h-123v732h123v-292zM676 482h252v-101l-116 -311h125v-122h-266v101l113 311h-108v122z" />
    <glyph glyph-name="uni3393" unicode="&#x3393;" horiz-adv-x="940" 
d="M519 390h23v290h123v-732h-123v312h-23v-312h-123v732h123v-290zM376 14q-16 -23 -30.5 -38t-31 -24t-35.5 -12.5t-44 -3.5q-61 0 -102 28t-66.5 77.5t-36.5 118t-11 150.5q0 85 11 154t36.5 118.5t66.5 76.5t102 27q22 0 39.5 -3t32.5 -10.5t29.5 -20t32.5 -31.5
l-56 -119q-31 35 -46.5 47.5t-32.5 12.5q-26 0 -41.5 -25t-23 -62.5t-9.5 -81.5t-2 -83q0 -36 2 -80t9.5 -81.5t23 -63t41.5 -25.5q3 0 8.5 1t11.5 5v182h-60v127h182v-361zM686 482h252v-101l-116 -311h125v-122h-266v101l113 311h-108v122z" />
    <glyph glyph-name="uni3394" unicode="&#x3394;" horiz-adv-x="940" 
d="M505 390h28v291h123v-733h-123v312h-28v-312h-123v733h123v-291zM22 550v131h345v-131h-99v-602h-149v602h-97zM676 482h252v-101l-116 -311h125v-122h-266v101l113 311h-108v122z" />
    <glyph glyph-name="Omega" unicode="&#x2126;" horiz-adv-x="760" 
d="M380 559q-46 0 -77.5 -15.5t-51.5 -44t-29 -68t-9 -88.5q0 -50 10 -96t28.5 -84.5t45 -69t59.5 -49.5v-99h-318v130h103q-40 51 -64.5 119.5t-24.5 147.5q0 81 20 145t60.5 108t102.5 67.5t145 23.5q166 0 247 -91t81 -253q0 -85 -23 -150.5t-66 -116.5h103v-130h-318v99
q33 19 60.5 49.5t47 69t30 84.5t10.5 96q0 49 -9.5 88.5t-30.5 68t-53.5 44t-78.5 15.5z" />
    <glyph glyph-name="uni33C0" unicode="&#x33c0;" horiz-adv-x="940" 
d="M664 560q-28 0 -46.5 -15.5t-29.5 -44t-15.5 -68.5t-4.5 -89q0 -106 19 -181.5t67 -114.5v-98h-247v130h81q-32 54 -51 120.5t-19 142.5q0 81 14.5 145t44.5 108t76.5 67t110.5 23q128 0 188 -90t60 -253q0 -76 -19 -142.5t-51 -120.5h80v-130h-246v98q48 39 67 114.5
t19 181.5q0 49 -4.5 89t-16 68.5t-30.5 44t-47 15.5zM195 411l42 71h151l-151 -236l156 -298h-147l-51 102v-102h-131v763h131v-300z" />
    <glyph glyph-name="uni33C1" unicode="&#x33c1;" horiz-adv-x="940" 
d="M704 563q-24 0 -40.5 -16t-26.5 -45t-14.5 -69.5t-4.5 -89.5q0 -105 14 -181t62 -115v-98h-232v130h81q-32 54 -51 120.5t-19 142.5q0 81 13 145.5t40.5 109t71.5 68t106 23.5q124 0 180.5 -91.5t56.5 -254.5q0 -76 -21 -142.5t-53 -120.5h80v-130h-231v98
q48 39 64 114.5t16 181.5q0 49 -5 89.5t-16 69.5t-28.5 45t-42.5 16zM333 -51v235l-34 -235h-120l-34 232v-232h-118v731h133l79 -486l79 486h133v-731h-118z" />
    <glyph glyph-name="uni338A" unicode="&#x338a;" horiz-adv-x="870" 
d="M61 -252v733h130v-43q12 22 37.5 38.5t53.5 16.5q34 0 66.5 -16.5t57 -51t39.5 -88t15 -128.5q0 -128 -43.5 -199.5t-133.5 -71.5q-21 0 -41 11.5t-31 28.5v-230h-150zM848 681v-131h-197v-160h176v-130h-176v-311h-159v732h356zM203 175q0 -24 1.5 -44.5t6.5 -36.5
t14 -25t24 -9q18 0 29.5 11.5t18 31.5t9 48t2.5 61q0 75 -13 116.5t-48 41.5q-15 0 -24 -8t-13.5 -22.5t-5.5 -34t-1 -42.5v-88z" />
    <glyph glyph-name="uni338B" unicode="&#x338b;" horiz-adv-x="870" 
d="M279 295q0 37 -2 55.5t-14 18.5q-17 0 -25.5 -16.5t-15.5 -44.5v-359h-159v532h141v-52q13 32 39 47.5t49 15.5q79 0 112 -53t33 -143v-347h-158v346zM848 681v-131h-197v-160h176v-130h-176v-311h-159v732h356z" />
    <glyph glyph-name="uni338C" unicode="&#x338c;" horiz-adv-x="870" 
d="M235 166q-1 -3 -3 -11.5t-3 -17.5t0.5 -16t8.5 -7q13 0 23.5 28.5t28.5 91.5l49 166l117 -35l-61 -235q-1 -3 -2.5 -9.5t-2.5 -13.5t1 -10.5t12 -1.5l14 2v-115q-34 -7 -59 -7q-24 0 -41 13t-27 30q-14 -14 -33 -22.5t-34 -8.5q-18 0 -37 11l-58 -214l-120 41l156 577
l125 -42zM848 681v-131h-197v-160h176v-130h-176v-311h-159v732h356z" />
    <glyph glyph-name="uni33D6" unicode="&#x33d6;" horiz-adv-x="940" 
d="M303 325q0 46 -8 46q-7 0 -13 -36v-387h-115v370q0 30 -2 41.5t-7 11.5q-3 0 -5 -6t-3.5 -14.5t-2.5 -18t-1 -15.5v-369h-116v531h101v-24q8 18 23 26.5t26 8.5q26 0 39.5 -20t20.5 -45q12 29 33 47t46 18q53 0 76.5 -42.5t23.5 -119.5v-380h-116v377zM777 213
q0 -77 -11 -130t-32.5 -85.5t-53 -47t-72.5 -14.5t-72 14.5t-52 47t-31.5 85.5t-10.5 130t10.5 130t31.5 86t52 47.5t72 14.5t72.5 -14.5t53 -47.5t32.5 -86t11 -130zM929 -51h-134v761h134v-761zM640 213q0 33 -1 62.5t-4.5 51.5t-10 35t-16.5 13t-16 -13t-9.5 -35
t-4.5 -51.5t-1 -62.5t1 -62.5t4.5 -51.5t9.5 -34.5t16 -12.5t16.5 12.5t10 34.5t4.5 51.5t1 62.5z" />
    <glyph glyph-name="uni33C5" unicode="&#x33c5;" horiz-adv-x="820" 
d="M763 678v-731h-131v34q-18 -30 -41.5 -38t-40.5 -8q-39 0 -72.5 16.5t-59 51t-40 88t-14.5 128.5q0 128 43 199.5t137 71.5q21 0 40 -10t29 -27v225h150zM367 -24q-13 -9 -25 -16t-26 -12.5t-31 -8.5t-40 -3q-97 0 -148.5 67t-51.5 210t53.5 211.5t156.5 68.5
q36 0 62 -11.5t50 -31.5l-29 -133q-18 14 -31 23.5t-22 15t-16 7.5t-14 2q-32 0 -45.5 -38t-13.5 -109q0 -78 14 -115.5t47 -37.5q9 0 17.5 1t18.5 5t23 11t33 19zM621 253q0 24 -2.5 44.5t-8.5 36.5t-15 25t-22 9q-33 0 -46 -43t-13 -109q0 -75 14.5 -116.5t46.5 -41.5
q27 0 36.5 30t9.5 77v88z" />
    <glyph glyph-name="uni33AD" unicode="&#x33ad;" horiz-adv-x="940" 
d="M890 -52h-115v16q-11 -18 -25.5 -23t-23.5 -5q-35 0 -63 15.5t-48 49t-31 87t-11 129.5q0 130 34.5 201t98.5 71q11 0 24.5 -7t21.5 -18v216h138v-732zM261 99q0 83 44 133.5t118 58.5v27t-1.5 28.5t-5 23t-10.5 9.5q-13 0 -34 -16t-54 -55l-34 117q26 32 56 50t72 18
q45 0 72.5 -15.5t42.5 -42.5t20 -64t5 -80v-343h-120v22q-11 -17 -27 -25t-31 -8q-27 0 -48.5 14t-35.5 36.5t-21.5 52t-7.5 59.5zM274 359q-47 5 -61.5 -24t-14.5 -83v-304h-144v533h140v-10q20 10 37.5 13t42.5 1v-126zM762 249q0 24 -1.5 45t-4.5 37t-8 25.5t-13 9.5
q-16 0 -22 -41t-6 -111q0 -80 6.5 -118.5t23.5 -38.5q14 0 19.5 30.5t5.5 76.5v85zM410 54q15 0 15 91v33q-14 -8 -24 -22.5t-10 -46.5q0 -29 5.5 -42t13.5 -13z" />
    <glyph glyph-name="uni33AE" unicode="&#x33ae;" horiz-adv-x="940" 
d="M583 -53h-79v24q-8 -20 -24.5 -27.5t-27.5 -3.5q-39 14 -60 83t-21 194q0 59 5.5 108t17 84.5t29.5 55.5t43 20q5 0 13 -2v200h104v-736zM149 97q0 85 31 138t81 55v23q0 26 -1 41.5t-8 15.5q-11 0 -24 -14.5t-32 -43.5l-20 120q16 28 37 43.5t49 15.5q31 0 49.5 -16
t27.5 -43.5t11.5 -63t2.5 -74.5v-346h-78v15q-6 -14 -18 -20t-20 -6q-19 0 -35 13t-28 34.5t-18.5 50.5t-6.5 62zM737 113q24 -30 39.5 -43t27.5 -13q26 0 26 41q0 14 -6.5 33.5t-29.5 41.5q-64 65 -64 166q0 70 27 110.5t79 40.5q25 0 45 -8t39 -32l-19 -123q-19 26 -28 33
t-20 7q-12 0 -19 -10.5t-7 -24.5q0 -18 8 -39.5t28 -38.5q34 -29 52 -64.5t18 -92.5q0 -75 -30 -117.5t-91 -42.5q-28 0 -52.5 15.5t-43.5 38.5zM163 359q-15 -1 -23 -8.5t-11.5 -19.5t-4.5 -28t-1 -33v-321h-108v532h103v-18q9 11 18.5 16t26.5 3v-123zM655 646h82
l-64 -755h-78zM488 252q0 47 -2.5 72t-8.5 25q-11 0 -11 -133q0 -77 3.5 -109.5t9.5 -32.5q5 0 7 26t2 71v81zM257 50q5 0 6.5 22t1.5 63v44q-11 -8 -16 -27t-5 -44q0 -20 1 -31.5t2.5 -17.5t4 -7.5t5.5 -1.5z" />
    <glyph glyph-name="uni33AF" unicode="&#x33af;" horiz-adv-x="940" 
d="M583 -53h-79v24q-8 -20 -24.5 -27.5t-27.5 -3.5q-39 14 -60 83t-21 194q0 59 5.5 108t17 84.5t29.5 55.5t43 20q5 0 13 -2v200h104v-736zM149 97q0 85 31 138t81 55v23q0 26 -1 41.5t-8 15.5q-11 0 -24 -14.5t-32 -43.5l-20 120q16 28 37 43.5t49 15.5q31 0 49.5 -16
t27.5 -43.5t11.5 -63t2.5 -74.5v-346h-78v15q-6 -14 -18 -20t-20 -6q-19 0 -35 13t-28 34.5t-18.5 50.5t-6.5 62zM737 113q24 -30 39.5 -43t27.5 -13q26 0 26 41q0 14 -6.5 33.5t-29.5 41.5q-64 65 -64 166q0 70 27 110.5t79 40.5q25 0 45 -8t39 -32l-19 -123q-19 26 -28 33
t-20 7q-12 0 -19 -10.5t-7 -24.5q0 -18 8 -39.5t28 -38.5q34 -29 52 -64.5t18 -92.5q0 -75 -30 -117.5t-91 -42.5q-28 0 -52.5 15.5t-43.5 38.5zM163 359q-15 -1 -23 -8.5t-11.5 -19.5t-4.5 -28t-1 -33v-321h-108v532h103v-18q9 11 18.5 16t26.5 3v-123zM655 646h82
l-64 -755h-78zM765 582q25 24 41.5 41t27 29.5t15.5 21.5t6 17q2 14 -13 14q-17 0 -47 -31l-39 55q21 24 46.5 36t47.5 12q18 0 33 -7t26 -18t17 -26t6 -31q0 -26 -13.5 -48t-40.5 -49h61v-69h-174v53zM488 252q0 47 -2.5 72t-8.5 25q-11 0 -11 -133q0 -77 3.5 -109.5
t9.5 -32.5q5 0 7 26t2 71v81zM257 50q5 0 6.5 22t1.5 63v44q-11 -8 -16 -27t-5 -44q0 -20 1 -31.5t2.5 -17.5t4 -7.5t5.5 -1.5z" />
    <glyph glyph-name="uni33DB" unicode="&#x33db;" horiz-adv-x="760" 
d="M576 453q19 23 41 31.5t37 8.5q20 0 34 -2.5t41 -12.5v-142q-25 17 -39 22t-28 5q-17 0 -30.5 -10t-23 -26.5t-16 -36.5t-9.5 -41v-301h-160v534h153v-29zM72 102q22 -14 38.5 -22t30 -13t26 -6.5t26.5 -1.5q26 0 39 7t15 25q4 27 -13 43.5t-51 30.5q-41 17 -67.5 36
t-42 40t-22 45.5t-6.5 52.5q0 78 49.5 115.5t141.5 37.5q43 0 73 -8.5t68 -31.5l-38 -118q-32 18 -54.5 27t-50.5 9q-20 0 -29.5 -9.5t-9.5 -22.5q0 -23 13 -35.5t51 -27.5q77 -31 107 -74.5t30 -106.5q0 -82 -54.5 -120t-150.5 -38q-48 0 -85.5 11.5t-77.5 37.5z" />
    <glyph glyph-name="uni33A9" unicode="&#x33a9;" horiz-adv-x="850" 
d="M225 680q119 0 171 -59.5t52 -166.5q0 -113 -55.5 -171t-167.5 -58h-9v-280h-153v735h162zM221 356q32 0 53.5 20.5t21.5 75.5t-21 76t-54 21h-5v-193h5zM439 95q0 50 16 87t44.5 61t67 36.5t84.5 13.5q0 13 -1.5 27.5t-5.5 26.5t-12 20t-21 8q-17 0 -41.5 -11t-62.5 -48
l-46 111q35 31 72 48t90 17q54 0 88 -17.5t52.5 -47t25.5 -67.5t7 -80v-331h-133v25q-26 -23 -48 -30t-39 -7q-39 0 -65 12.5t-42 34.5t-23 50.5t-7 60.5zM581 101q0 -29 9 -37t21 -8q22 0 33 22.5t11 64.5v32q-37 -5 -55.5 -26.5t-18.5 -47.5z" />
    <glyph glyph-name="uni33AA" unicode="&#x33aa;" horiz-adv-x="940" 
d="M430 679q117 0 169 -55t52 -170q0 -108 -53 -167.5t-142 -64.5v-273h-136v730h110zM147 404l39 80h127l-129 -243l130 -292h-124l-43 102v-102h-120v761h120v-306zM634 98q0 85 42 136t121 57v2q2 30 -3 54.5t-19 24.5q-6 0 -13.5 -2t-17 -8.5t-22.5 -19t-31 -33.5
l-33 117q26 32 52.5 49.5t70.5 17.5q41 0 68.5 -16t43.5 -44t22.5 -64.5t6.5 -76.5v-344h-115v26q-11 -19 -28.5 -28t-30.5 -9q-28 0 -49.5 13.5t-35.5 36t-21.5 51.5t-7.5 60zM456 356q20 5 32.5 27t12.5 69q0 48 -11 68.5t-34 24.5v-189zM784 52q6 0 10 22t4 70v35
q-34 -13 -34 -71q0 -30 5 -43t15 -13z" />
    <glyph glyph-name="uni33AB" unicode="&#x33ab;" horiz-adv-x="940" 
d="M268 -52v211l-28 -211h-93l-27 195v-195h-98v732h110l61 -513l63 513h111v-732h-99zM468 680q113 0 167 -57.5t54 -169.5q0 -104 -47.5 -160t-126.5 -67v-278h-129v732h82zM655 96q0 40 10 74.5t29 59.5t46 40t61 17v3q0 35 -1.5 58.5t-12.5 23.5q-6 0 -11.5 -2t-12.5 -7
t-16 -15t-22 -26l-30 111q25 29 48 44.5t53 15.5q41 0 65.5 -15.5t37.5 -42.5t17 -64.5t4 -81.5v-340h-105v27q-12 -21 -29.5 -29t-29.5 -8q-26 0 -45 13.5t-31.5 36t-18.5 50.5t-6 57zM514 357q17 5 31.5 26.5t14.5 67.5q0 48 -14 70t-32 28v-192zM794 51q7 0 9.5 20.5
t2.5 75.5v38q-12 -5 -20 -25t-8 -53q0 -34 5 -45t11 -11z" />
    <glyph glyph-name="uni33AC" unicode="&#x33ac;" horiz-adv-x="940" 
d="M364 17q-16 -21 -30.5 -36.5t-31 -25.5t-35.5 -14.5t-44 -4.5q-61 0 -102 28t-66.5 77.5t-36.5 118t-11 150.5q0 85 11 154t36.5 118.5t66.5 76.5t102 27q22 0 39.5 -3.5t33 -11t30 -20t32.5 -31.5l-58 -122q-30 35 -45 48.5t-33 13.5q-25 0 -39 -24.5t-21 -61.5
t-8.5 -81t-1.5 -83q0 -36 1.5 -79.5t8.5 -81t21 -62.5t39 -25q3 0 8.5 1t11.5 3v183h-54v127h176v-359zM468 680q113 0 167 -57.5t54 -169.5q0 -104 -47.5 -160t-126.5 -67v-278h-129v732h82zM655 96q0 40 10 74.5t29 59.5t46 40t61 17v3q0 35 -1.5 58.5t-12.5 23.5
q-6 0 -11.5 -2t-12.5 -7t-16 -15t-22 -26l-30 111q25 29 48 44.5t53 15.5q41 0 65.5 -15.5t37.5 -42.5t17 -64.5t4 -81.5v-340h-105v27q-12 -21 -29.5 -29t-29.5 -8q-26 0 -45 13.5t-31.5 36t-18.5 50.5t-6 57zM514 357q17 5 31.5 26.5t14.5 67.5q0 48 -14 70t-32 28v-192z
M794 51q7 0 9.5 20.5t2.5 75.5v38q-12 -5 -20 -25t-8 -53q0 -34 5 -45t11 -11z" />
    <glyph glyph-name="uni33DD" unicode="&#x33dd;" horiz-adv-x="940" 
d="M362 681l48 -388l32 388h132l-83 -736h-135l-57 421l-57 -421h-135l-83 736h132l31 -390l49 390h126zM588 681h138v-217q8 11 21.5 18t24.5 7q64 0 98.5 -71t34.5 -201q0 -76 -10.5 -129.5t-30 -87t-47 -49t-62.5 -15.5q-10 0 -25.5 5t-26.5 24v-17h-115v733zM716 164
q0 -46 5.5 -76.5t19.5 -30.5q17 0 23.5 38.5t6.5 118.5q0 70 -6 111t-22 41q-8 0 -13 -9.5t-8 -25.5t-4.5 -37t-1.5 -45v-85z" />
    <glyph glyph-name="uni33D0" unicode="&#x33d0;" horiz-adv-x="750" 
d="M562 314q0 32 -3 41.5t-6 9.5q-6 0 -10 -10t-9 -27v-380h-136v360q0 32 -2.5 44.5t-7.5 12.5q-8 0 -11.5 -13t-5.5 -36v-368h-137v531h115v-17q15 16 32 22t26 6q26 0 45 -17.5t34 -43.5q19 29 45 45t50 16q63 0 90.5 -39t27.5 -119v-384h-137v366zM206 711v-763h-157
v763h157z" />
    <glyph glyph-name="uni33D3" unicode="&#x33d3;" horiz-adv-x="750" 
d="M465 357l76 125h171l-161 -266l161 -266h-171l-76 124l-75 -124h-171l161 266l-161 266h171zM206 711v-763h-157v763h157z" />
    <glyph glyph-name="uni33C3" unicode="&#x33c3;" horiz-adv-x="900" 
d="M213 680q60 0 101 -13.5t65.5 -38.5t35.5 -60.5t11 -78.5q0 -93 -73 -151q52 -28 79 -72.5t27 -100.5q0 -115 -61.5 -166t-171.5 -51h-163v732h150zM835 -257h-144v222q-17 -13 -31.5 -18t-24.5 -5q-81 0 -118 69.5t-37 199.5q0 75 10.5 128.5t30.5 87.5t48.5 49.5
t65.5 15.5q18 0 42 -13t38 -47v48h120v-737zM693 264q0 46 -8.5 76.5t-28.5 30.5t-26.5 -38.5t-6.5 -118.5q0 -70 5 -110.5t26 -40.5q10 0 17.5 9.5t12.5 25t7 36.5t2 45v85zM213 76q46 0 73.5 18.5t27.5 72.5q0 48 -28.5 71t-70.5 23h-5v-185h3zM210 388q15 2 27.5 7
t21.5 15t14 26.5t5 40.5q0 20 -6.5 34t-16.5 23t-22 13.5t-23 4.5v-164z" />
    <glyph glyph-name="uni33C9" unicode="&#x33c9;" horiz-adv-x="940" 
d="M462 17q-32 -43 -72.5 -62.5t-90.5 -19.5q-68 0 -115 26.5t-76.5 75.5t-42.5 118.5t-13 154.5q0 88 14 157.5t44 118.5t76.5 75t112.5 26q23 0 41 -3.5t34 -11.5t30.5 -20t31.5 -30l-60 -127q-9 9 -16.5 19.5t-16 20t-19.5 16t-26 6.5q-31 0 -49.5 -23.5t-28 -60
t-12.5 -80t-3 -83.5q0 -38 2 -81t11 -79.5t28 -60.5t52 -24q9 0 25 7v173h-74v130h213v-358zM604 25l-151 457h150l73 -234l77 234h157l-202 -608q-21 -63 -66 -93.5t-105 -30.5q-27 0 -45.5 4t-45.5 13l21 124q18 -8 31.5 -11t27.5 -4q19 -1 28 12.5t16 33.5z" />
    <glyph glyph-name="uni33DC" unicode="&#x33dc;" horiz-adv-x="870" 
d="M90 130q22 -20 39 -32.5t31 -20t26.5 -10.5t26.5 -3q28 0 39 20t11 60q0 16 -1.5 31.5t-8 30t-19.5 28.5t-36 27q-38 22 -66.5 45t-48.5 51t-30 62t-10 77q0 49 15.5 85t42.5 60t64 35.5t79 11.5q50 0 87.5 -16t78.5 -51l-61 -125q-40 38 -64 51t-44 13q-21 0 -33.5 -16
t-12.5 -47q0 -42 17.5 -70t59.5 -53q77 -45 111.5 -99.5t34.5 -132.5q0 -44 -12 -81.5t-37 -66t-64 -44.5t-92 -16q-26 0 -48.5 3.5t-43.5 12.5t-43 24.5t-47 39.5zM708 481h153l-154 -533h-161l-155 532h158l79 -316z" />
    <glyph glyph-name="uni33C6" unicode="&#x33c6;" horiz-adv-x="940" 
d="M915 20q0 -137 -33.5 -204t-114.5 -67q-28 0 -54 9t-49 34l21 121q29 -31 46 -40t30 -9q14 0 23.5 19t16.5 72q-19 -13 -40 -13q-57 0 -90 71.5t-33 197.5q0 74 10 127t26.5 87.5t39 51t48.5 16.5q14 0 27.5 -8.5t24.5 -22.5v19h101v-461zM519 420l33 62h126l-126 -228
l126 -305h-121l-38 90v-91h-113v763h113v-291zM242 170q-12 -11 -20.5 -18.5t-17.5 -12.5t-21 -7.5t-30 -2.5q-27 0 -51 14t-42 47t-28 86t-10 131t10.5 131t29 86t44.5 47.5t56 14.5q19 0 31.5 -2.5t22 -8t17.5 -13t19 -17.5l-28 -132q-20 32 -31.5 40t-19.5 8
q-6 0 -10.5 -13.5t-7.5 -35.5t-4 -48.5t-1 -51.5q0 -28 1 -55t3.5 -48.5t7.5 -35t13 -13.5q6 0 19 4t29 26zM292 710h94l-61 -816h-95zM792 263q0 45 -3 73.5t-10 28.5q-8 0 -12 -36.5t-4 -114.5q0 -75 4.5 -110t10.5 -35q8 0 11 31.5t3 78.5v84z" />
    <glyph glyph-name="AE" unicode="&#xc6;" horiz-adv-x="870" 
d="M535 260v-181h312v-131h-475v169h-140l-75 -169h-162l337 733h499v-131h-296v-160h280v-130h-280zM287 240h85v189z" />
    <glyph glyph-name="Eth" unicode="&#xd0;" horiz-adv-x="650" 
d="M65 251h-78v123h78v307h223q91 0 154 -25.5t102.5 -73.5t57 -115.5t17.5 -151.5t-17.5 -152t-57 -115.5t-102.5 -73.5t-154 -26h-223v303zM227 251v-172h68q36 0 65.5 10.5t50 37.5t31.5 72.5t11 115.5q0 69 -12 114.5t-34 72.5t-53 37.5t-69 10.5h-58v-176h96v-123h-96z
" />
    <glyph glyph-name="ordfeminine" unicode="&#xaa;" horiz-adv-x="380" 
d="M228 449q-14 -24 -37 -33.5t-37 -9.5q-30 0 -52.5 9.5t-38 26t-23 38t-7.5 46.5q0 60 49 100t139 48q-4 18 -15 24t-26 6q-17 0 -38.5 -6.5t-53.5 -34.5l-30 90q31 25 62 35.5t69 10.5q48 0 77.5 -13t45.5 -35t21.5 -49.5t5.5 -57.5v-229h-111v34zM156 534q0 -23 24 -23
q15 0 31 14t16 31v16q-10 1 -22.5 -1.5t-23 -7t-18 -12t-7.5 -17.5z" />
    <glyph glyph-name="Hbar" unicode="&#x126;" horiz-adv-x="720" 
d="M640 440v-491h-163v307h-235v-307h-163v491h-54v130h54v111h163v-111h235v111h163v-111h56v-130h-56zM242 386h235v54h-235v-54z" />
    <glyph glyph-name="IJ" unicode="&#x132;" horiz-adv-x="620" 
d="M212 -51h-163v732h163v-732zM569 681v-485q0 -71 -18 -120.5t-49.5 -80t-75 -44t-95.5 -13.5q-14 0 -25 0.5t-22 2t-23.5 4.5t-30.5 8l20 129q25 -7 41 -9.5t33 -2.5q21 0 36 6t25.5 20.5t15.5 39.5t5 64v481h163z" />
    <glyph glyph-name="Ldot" unicode="&#x13f;" horiz-adv-x="520" 
d="M226 681v-601h272v-131h-435v732h163zM437 278h-152v153h152v-153z" />
    <glyph glyph-name="Lslash" unicode="&#x141;" horiz-adv-x="550" 
d="M266 681v-263l143 81v-151l-143 -81v-187h272v-131h-435v225l-105 -59v151l105 59v356h163z" />
    <glyph glyph-name="Oslash" unicode="&#xd8;" horiz-adv-x="700" 
d="M554 613q57 -51 85 -128t28 -167q0 -93 -24.5 -164t-67.5 -119.5t-102 -73.5t-129 -25q-18 0 -34.5 2t-32.5 5l-22 -53h-154l48 117q-57 51 -85.5 130t-28.5 170q0 85 22.5 155t64 120t100.5 77.5t131 27.5q20 0 38 -2t35 -6l14 33h155zM191 309q0 -33 6 -70t19 -70
l162 393q-12 4 -28 4q-41 0 -70.5 -22t-49.5 -58t-29.5 -82t-9.5 -95zM511 314q0 30 -6 65t-20 68l-160 -387q6 -1 12 -1.5t12 -0.5q39 0 69.5 20.5t51 56t31 82t10.5 97.5z" />
    <glyph glyph-name="OE" unicode="&#x152;" horiz-adv-x="900" 
d="M582 260v-181h298v-131h-518q-75 0 -136 22t-103.5 66.5t-66 112t-23.5 157.5q0 93 23 163.5t65.5 117.5t103.5 70.5t137 23.5h502v-131h-282v-160h266v-130h-266zM196 306q0 -110 40.5 -170t125.5 -60h57v478h-57q-44 0 -75.5 -18t-51.5 -51t-29.5 -78.5t-9.5 -100.5z
" />
    <glyph glyph-name="ordmasculine" unicode="&#xba;" horiz-adv-x="420" 
d="M212 799q40 0 73 -14t57 -38.5t37.5 -59t13.5 -76.5q0 -51 -16 -88t-42.5 -60.5t-60 -35t-67.5 -11.5q-38 0 -71 13.5t-57 38t-38 59.5t-14 78q0 45 14.5 81t40 61t59 38.5t71.5 13.5zM211 698q-29 0 -40.5 -26.5t-11.5 -64.5q0 -45 13.5 -67.5t36.5 -22.5q24 0 37.5 23
t13.5 70q0 16 -2.5 32t-8 28.5t-15 20t-23.5 7.5z" />
    <glyph glyph-name="Thorn" unicode="&#xde;" horiz-adv-x="537" 
d="M259 541q128 0 188 -55.5t60 -171.5q0 -113 -60 -170t-188 -57h-39v-138h-162v732h162v-140h39zM255 218q43 0 67.5 19.5t24.5 74.5t-24.5 76.5t-67.5 21.5h-35v-192h35z" />
    <glyph glyph-name="Tbar" unicode="&#x166;" horiz-adv-x="530" 
d="M343 353v-404h-163v404h-125v130h125v67h-173v131h517v-131h-181v-67h136v-130h-136z" />
    <glyph glyph-name="Eng" unicode="&#x14a;" horiz-adv-x="665" 
d="M605 -79q0 -71 -30 -105.5t-102 -34.5q-26 0 -50.5 15t-56.5 56l67 79q8 -20 12 -25t8 -5q10 0 10 13v63l-243 456v-494h-157v742h184l201 -403v405h157v-762z" />
    </font>
</defs>
</svg>
